<svg xmlns="http://www.w3.org/2000/svg" width="62.016" height="70.448" viewBox="0 0 62.016 70.448"><g transform="translate(-0.012 0.01)"><g transform="translate(0.012 -0.01)"><g transform="translate(0)"><path d="M212.7-.009a1.671,1.671,0,0,1,.741,1.568c-.023,3.386-.01,6.772-.012,10.156a2.742,2.742,0,0,1-.046.682,1.132,1.132,0,0,1-2.194,0,3.233,3.233,0,0,1-.048-.75c0-3.34.012-6.681-.013-10.02a1.721,1.721,0,0,1,.747-1.635h.825Z" transform="translate(-180.555 0.01)" fill="#007192"/><path d="M12.016,328.551c1.335-.411,2.639-.921,3.988-1.208a13.649,13.649,0,0,1,9.415,1.2,14.153,14.153,0,0,0,6.844,1.671c2.061-.012,4.122.119,6.182.148a7.363,7.363,0,0,1,6.533,3.619c.048.075.109.143.188.246l6.825-3.218c.849-.4,1.687-.823,2.549-1.19a5.816,5.816,0,0,1,7.173,2.23,1.206,1.206,0,0,1-.4,1.925c-6.762,4.381-13.484,8.824-20.317,13.093a11.7,11.7,0,0,1-8.1,1.479,70.622,70.622,0,0,1-7.183-1.755c-2.894-.773-5.774-1.6-8.654-2.416a4.217,4.217,0,0,0-3.316.366,10.96,10.96,0,0,1-1.03.549c-.778.323-1.347.713-1.287,1.722a.965.965,0,0,1-1.1.988c-3.046-.062-6.091-.13-9.135-.236-.844-.029-1.208-.521-1.183-1.447q.143-5.461.3-10.922.117-4.225.23-8.449c.033-1.235.391-1.583,1.632-1.552q4.121.1,8.243.206c1.315.036,1.652.417,1.6,1.738-.016.41,0,.823,0,1.215Zm47.132,4.075a3.411,3.411,0,0,0-4.01-.558c-2.856,1.344-5.7,2.717-8.566,4.038a.83.83,0,0,0-.591,1.07c.2,1.157-.152,1.935-1.687,1.877-4.075-.154-8.152-.232-12.229-.342a9.886,9.886,0,0,1-1.1-.071,1.128,1.128,0,0,1,.1-2.248,5.509,5.509,0,0,1,.618,0q5.531.148,11.061.3c.264.007.527,0,.8,0a4.921,4.921,0,0,0-4.472-3.984c-1.327-.071-2.656-.094-3.984-.133-1.671-.051-3.344-.083-5.015-.148a14.892,14.892,0,0,1-5.7-1.838,12.429,12.429,0,0,0-11.914.516,1,1,0,0,0-.579.969c-.084,3.573-.2,7.145-.3,10.717a2.97,2.97,0,0,0,.064.436c.369-.191.673-.339.969-.5a6.514,6.514,0,0,1,5.112-.56c2.287.65,4.575,1.3,6.87,1.923,2.714.736,5.4,1.623,8.162,2.11a10.82,10.82,0,0,0,8.009-1.671c3.519-2.314,7.069-4.582,10.605-6.87l7.77-5.028ZM9.2,345.546c.161-5.825.322-11.713.487-17.707H2.84c-.161,5.852-.323,11.722-.488,17.707Z" transform="translate(-0.012 -278.263)" fill="#007192"/><path d="M120.143,139.679A16.73,16.73,0,1,1,136.944,123,16.746,16.746,0,0,1,120.143,139.679Zm.055-2.294a14.428,14.428,0,1,0-14.44-14.41A14.443,14.443,0,0,0,120.2,137.385Z" transform="translate(-88.461 -90.835)" fill="#007192"/><path d="M270.97,43.638c0-.824-.014-1.65.006-2.474a1.147,1.147,0,1,1,2.279.03q.022,2.44,0,4.878c-.006.83-.465,1.335-1.156,1.325s-1.115-.51-1.128-1.356C270.96,45.241,270.969,44.439,270.97,43.638Z" transform="translate(-231.726 -34.128)" fill="#007192"/><path d="M153.656,43.666c0,.824.014,1.65,0,2.474a1.147,1.147,0,1,1-2.279-.026q-.022-2.472,0-4.946a1.133,1.133,0,0,1,1.151-1.258,1.151,1.151,0,0,1,1.128,1.285c.016.824,0,1.648,0,2.474Z" transform="translate(-129.443 -34.128)" fill="#007192"/><path d="M187.373,153.511a2.578,2.578,0,0,0,2.253,2.608c.52.075,1.054.084,1.561.209a4.9,4.9,0,0,1,3.726,4.488,4.827,4.827,0,0,1-3.083,4.811c-.7.252-.937.559-.856,1.254a.97.97,0,0,1-.678,1.14,1.431,1.431,0,0,1-1.128-.151,1.631,1.631,0,0,1-.449-1.134,1.1,1.1,0,0,0-.789-1.2,4.736,4.736,0,0,1-2.867-4.129,1.2,1.2,0,0,1,1.083-1.467c.679-.038,1.15.45,1.225,1.276a2.618,2.618,0,0,0,5.224.064,2.656,2.656,0,0,0-2.358-2.81,8.991,8.991,0,0,1-2.565-.623,4.556,4.556,0,0,1-2.6-4.556A4.679,4.679,0,0,1,188.111,149c.463-.2.643-.42.587-.9a2.313,2.313,0,0,1,.026-.615,1.13,1.13,0,0,1,1.141-.98,1.04,1.04,0,0,1,1.08,1.025c-.083.918.337,1.24,1.127,1.58a4.676,4.676,0,0,1,2.828,4.007,1.252,1.252,0,0,1-1.047,1.571c-.685.064-1.174-.449-1.256-1.316a2.616,2.616,0,0,0-5.227.138Z" transform="translate(-158.256 -125.289)" fill="#007192"/></g></g></g></svg>