<svg xmlns="http://www.w3.org/2000/svg" width="76.366" height="76.35" viewBox="0 0 76.366 76.35"><path d="M76.364,75.591a1.594,1.594,0,0,1-1.572.757c-1.366-.04-2.733-.006-4.1-.014-.88,0-1.366-.414-1.364-1.121s.486-1.1,1.374-1.111c.317,0,.631,0,.982,0V71.524c-.432,0-.825.024-1.215-.006a1.1,1.1,0,0,1-1.145-1.2c-.014-.273-.006-.546-.006-.821V7.115H49.062c0,.414.01.807,0,1.2a3.437,3.437,0,0,1-1.912,3.141.8.8,0,0,0-.5.86c.024.689.006,1.38.006,2.149h.94c3.057,0,6.115-.024,9.17.026a2.2,2.2,0,0,1,1.368.556c2.739,2.673,5.434,5.39,8.137,8.1.761.763.761,1.271,0,2.036q-3.024,3.039-6.063,6.063c-.787.785-1.042.823-2.125.291V34.68a8.715,8.715,0,0,1-.024.968,1.029,1.029,0,0,1-1.084,1.01,1,1,0,0,1-1.094-.994c-.056-.791-.032-1.589-.034-2.384,0-1.416,0-2.832,0-4.249,0-.576.08-1.109.683-1.366a1.233,1.233,0,0,1,1.5.5c.307.355.592.731.852,1.056L64.011,24.1c-.092-.1-.227-.275-.38-.428-2.177-2.181-4.348-4.368-6.551-6.523a1.7,1.7,0,0,0-1.022-.426c-1.137-.054-2.279-.02-3.46-.02a7.551,7.551,0,0,1-2.858,4.667c.659.633,1.291,1.217,1.9,1.826a1.159,1.159,0,0,1,.018,1.922c-2.085,2.1-4.187,4.177-6.268,6.278a1.25,1.25,0,0,1-1.94.074V47.539h12.4V45.9c0-1.639-.01-3.281.006-4.92.008-.829.438-1.309,1.107-1.315s1.109.472,1.115,1.3c.016,1.914.006,3.826.006,5.74v.876c.478,0,.87.012,1.263,0a3.6,3.6,0,0,1,3.619,1.876,3.509,3.509,0,0,1-.478,4.073,3.728,3.728,0,0,1,.683,3.715c.9,0,1.7-.008,2.514,0,.924.01,1.319.384,1.321,1.313q.012,8.237,0,16.474c0,.964-.41,1.3-1.486,1.3H11.011c-1.362,0-1.653-.291-1.655-1.663v-15.8c0-1.329.3-1.625,1.605-1.627h2.2a3.746,3.746,0,0,1,.719-3.677,3.555,3.555,0,0,1-.173-4.593c1.133-1.542,2.826-1.444,4.573-1.376v-.868c0-2.287-.006-4.573,0-6.858,0-.87.442-1.388,1.117-1.38s1.09.526,1.113,1.4c0,.173,0,.349,0,.522v7.123H41.167V29.4a1.487,1.487,0,0,1,.014-.59c.189-.4.365-.952.7-1.094a1.557,1.557,0,0,1,1.251.271A7.037,7.037,0,0,1,44.244,29.2l5.1-5.1c-.1-.112-.259-.295-.428-.464-2.161-2.163-4.312-4.334-6.5-6.469a1.8,1.8,0,0,0-1.084-.444c-1.113-.058-2.233-.02-3.4-.02a7.324,7.324,0,0,1-3.239,4.888,7.06,7.06,0,0,1-4.326,1.1C27.174,22.515,24.8,20.4,23.746,16.7c-1.261,0-2.548-.008-3.834.01a.734.734,0,0,0-.436.233q-3.558,3.555-7.1,7.125c-.016.016-.016.046,0,0l5.185,5.139c.237-.309.554-.753.9-1.167a1.127,1.127,0,0,1,1.335-.4,1.14,1.14,0,0,1,.723,1.189c0,1.789.014,3.579-.006,5.368-.008.833-.442,1.295-1.127,1.289s-1.082-.464-1.1-1.315,0-1.719,0-2.619c-1.129.512-1.34.472-2.165-.353L10.21,25.3c-.91-.912-.916-1.352-.026-2.245,2.653-2.655,5.314-5.3,7.955-7.965a1.957,1.957,0,0,1,1.512-.637c3.057.024,6.115.01,9.172.01h.89c0-1.151,0-2.235,0-3.32.006-1.028.229-1.3,1.237-1.508A1.289,1.289,0,0,0,32.12,8.314c.014-.39,0-.783,0-1.221H7.055V69.542c0,.249.006.5,0,.745a1.124,1.124,0,0,1-1.187,1.237c-.368.024-.741,0-1.165,0v2.579c.41,0,.825-.02,1.235,0a1.088,1.088,0,0,1,1.109,1.145,1.069,1.069,0,0,1-1.105,1.072q-2.384.036-4.772,0A1.106,1.106,0,0,1,.012,75.213a1.125,1.125,0,0,1,1.163-1.107c.37-.02.743,0,1.175,0V71.526c-.365,0-.707.012-1.048,0A1.167,1.167,0,0,1,.01,70.229c0-.123,0-.249,0-.372q0-34.1-.01-68.21A1.662,1.662,0,0,1,.755,0H6.274a1.428,1.428,0,0,1,.791,1.466c-.038,1.084-.01,2.171-.01,3.283H27.346C27.071,2.424,27.873.767,30.134,0h1.492a1.416,1.416,0,0,0,.237.147,3.506,3.506,0,0,1,2.508,3.476c.01.366,0,.733,0,1.141h7.639c0-.359.008-.673,0-.99a3.205,3.205,0,0,1,.914-2.581A12.8,12.8,0,0,1,44.75,0h1.492c2.3.767,3.067,2.474,2.81,4.764H69.321c0-1.127.028-2.215-.01-3.3A1.428,1.428,0,0,1,70.1,0h6.264V70.821c-.56.888-1.492.671-2.346.733v2.532c.88.056,1.823-.2,2.346.761v.745ZM64.718,74.064V59.537H11.64V74.064H64.72ZM2.293,2.267V69.24H4.768V2.267ZM74.076,69.257V2.287h-2.46V69.257ZM34.429,7.083a5.276,5.276,0,0,0-.048.679A3.694,3.694,0,0,1,32.248,11.6a.543.543,0,0,0-.273.376c-.026.811-.012,1.621-.012,2.438H44.427c0-1.187-.008-2.324,0-3.462.008-.849.263-1.133,1.105-1.3s1.235-.544,1.287-1.3c.028-.41.006-.825.006-1.269h-12.4ZM26.192,49.817h-9.16a3.992,3.992,0,0,0-.741.036,1.255,1.255,0,0,0-1.068,1.319,1.2,1.2,0,0,0,1.1,1.205,3.923,3.923,0,0,0,.667.036q9.16,0,18.321,0a3.147,3.147,0,0,0,.811-.076,1.163,1.163,0,0,0,.918-1.125,1.146,1.146,0,0,0-.747-1.245,2.9,2.9,0,0,0-1.018-.143c-3.03-.01-6.057-.006-9.087-.006Zm24.019,2.6q4.544,0,9.087,0a3.976,3.976,0,0,0,.886-.066,1.26,1.26,0,0,0,.123-2.416,3.092,3.092,0,0,0-.95-.112q-9.125-.009-18.247,0a3.085,3.085,0,0,0-.95.114,1.264,1.264,0,0,0,.151,2.418,4.125,4.125,0,0,0,.888.062q4.505.006,9.011,0Zm-24.1,2.237H17.1a5.066,5.066,0,0,0-.817.04,1.261,1.261,0,0,0-.223,2.43,2.619,2.619,0,0,0,.874.112q9.2.009,18.394,0a2.734,2.734,0,0,0,.946-.131A1.264,1.264,0,0,0,36.01,54.7a4.648,4.648,0,0,0-.817-.042q-4.544,0-9.087,0Zm24.107,0H41.2a5.066,5.066,0,0,0-.817.04,1.266,1.266,0,0,0-.225,2.434,2.69,2.69,0,0,0,.876.11q9.2.009,18.4,0a2.627,2.627,0,0,0,.944-.133,1.259,1.259,0,0,0-.261-2.4,4.848,4.848,0,0,0-.817-.042q-4.544,0-9.087,0ZM26.141,16.735a4.783,4.783,0,0,0,4.874,3.727,4.714,4.714,0,0,0,4.533-3.727ZM48.25,19.609a3.973,3.973,0,0,0,1.938-2.862h-4.8l2.86,2.862ZM29.567,4.758H32.14c-.074-.837.285-1.755-.6-2.267a1.592,1.592,0,0,0-1.307-.05c-.952.478-.657,1.426-.671,2.316Zm17.247.016c-.022-.932.289-1.924-.745-2.364a1.617,1.617,0,0,0-1.354.171c-.749.556-.43,1.414-.436,2.191h2.534Z" fill="#007192"/><path d="M73.433,313.706v4.964h43.483v-4.964H82.8c-.249,0-.5.01-.745-.008a1.037,1.037,0,0,1-1.064-1.028,1.08,1.08,0,0,1,.992-1.181,3.948,3.948,0,0,1,.6-.018h34.968c1.317,0,1.645.323,1.647,1.607q0,3.167,0,6.336c0,1.165-.355,1.54-1.5,1.54q-22.516,0-45.033,0c-1.115,0-1.494-.376-1.5-1.462q-.006-3.281,0-6.559c0-1.066.376-1.454,1.418-1.46q2.014-.012,4.025,0c.851.006,1.376.462,1.362,1.145s-.5,1.078-1.331,1.086c-1.042.01-2.081,0-3.209,0Z" transform="translate(-56.99 -249.428)" fill="#007192"/></svg>