<svg xmlns="http://www.w3.org/2000/svg" width="68.539" height="43.372" viewBox="0 0 68.539 43.372"><g transform="translate(-0.012)"><g transform="translate(0.012)"><g transform="translate(0)"><path d="M68.551,35.751a1.463,1.463,0,0,1-1.5.767c-1-.032-2-.009-3.047-.009a6.949,6.949,0,0,1-2.677,5.437A6.631,6.631,0,0,1,56.9,43.368a6.9,6.9,0,0,1-6.571-6.809H26.212a6.874,6.874,0,0,1-2.836,5.508,6.606,6.606,0,0,1-4.4,1.293,6.892,6.892,0,0,1-6.433-6.851h-.7c-1.606,0-3.214.009-4.82,0A2.26,2.26,0,0,1,4.57,34.043c-.005-.685,0-1.372,0-2.132H1.7a5.687,5.687,0,0,1-.8-.027.968.968,0,0,1-.882-.944.98.98,0,0,1,.773-1.1,2.469,2.469,0,0,1,.662-.066q4.786-.005,9.573,0a3.116,3.116,0,0,1,.467.023,1.068,1.068,0,0,1,.953,1.1,1.028,1.028,0,0,1-1.052,1c-1.293.025-2.588.011-3.883.013H6.754V34.3a3.872,3.872,0,0,0,.5.064c1.74.005,3.482-.009,5.222.013.379,0,.526-.148.678-.476a6.524,6.524,0,0,1,6.211-4.1,6.514,6.514,0,0,1,6.263,4.121.656.656,0,0,0,.7.454q10.61-.016,21.221-.009c.152,0,.3-.025.528-.043v-7.5c0-.179-.009-.358.005-.535A1.109,1.109,0,0,1,49.141,25.2a1.06,1.06,0,0,1,1.071,1.125c.014,2.411.007,4.822.007,7.231a1.845,1.845,0,0,0,.011.467c.034.123.136.308.225.317.116.013.261-.1.37-.195.059-.05.063-.163.1-.243a6.8,6.8,0,0,1,12.485.02.636.636,0,0,0,.692.456c.733-.025,1.467-.007,2.25-.007V29.622c-.374,0-.764.009-1.155,0a3.316,3.316,0,0,1-3.362-3.414q-.016-1.038,0-2.076A1.089,1.089,0,0,1,63.08,22.9c1-.013,2.007,0,3.1,0a2.383,2.383,0,0,0-1.057-1.59,4.5,4.5,0,0,0-2-.79c-4.194-.072-8.39-.038-12.585-.038a2.342,2.342,0,0,0-.317.052c0,.39.014.765,0,1.137a1.055,1.055,0,0,1-1.041,1.084,1.078,1.078,0,0,1-1.089-1.048c-.02-.2-.009-.4-.009-.6V2.187H6.715V21.1a6.413,6.413,0,0,1-.013.669.994.994,0,0,1-1,.976.991.991,0,0,1-1.078-.81,2.829,2.829,0,0,1-.054-.73q0-9.306,0-18.614A2.286,2.286,0,0,1,7.16,0h40.5a2.254,2.254,0,0,1,2.561,2.538c0,.644,0,1.288,0,2,.283.013.517.034.753.034,2.3,0,4.6.048,6.894-.011,2.887-.073,5.408,1.919,4.9,5.837-.047.358-.426.671-.737,1.134.51,2.041,1.057,4.265,1.631,6.485a.7.7,0,0,0,.408.429,5.608,5.608,0,0,1,4.378,4.541.754.754,0,0,0,.093.175V35.751ZM61.476,18.3c-.038-.209-.061-.383-.1-.553-.476-1.924-.969-3.843-1.422-5.771a.718.718,0,0,0-.844-.671c-2.72.03-5.44.013-8.161.016-.216,0-.435.02-.665.032V18.3H61.476ZM57.161,41.23a4.652,4.652,0,1,0-4.646-4.65,4.688,4.688,0,0,0,4.646,4.65Zm-37.738,0a4.652,4.652,0,1,0-4.687-4.6,4.676,4.676,0,0,0,4.687,4.6ZM60.605,9.114a2.248,2.248,0,0,0-2.4-2.384c-2.5-.016-4.992-.005-7.488,0a3.748,3.748,0,0,0-.461.059V9.114ZM66.369,27.4V25.092H64.043c-.265,2.058.293,2.611,2.327,2.312Z" transform="translate(-0.012 0)" fill="#007192"/><path d="M115.477,67.615c2.776-2.783,5.406-5.421,8.035-8.059.5-.506,1-1.021,1.517-1.513a1.073,1.073,0,1,1,1.513,1.511q-5.078,5.1-10.178,10.178a1.04,1.04,0,0,1-1.649-.02q-2.806-2.779-5.583-5.587a1.071,1.071,0,1,1,1.529-1.488q2.17,2.138,4.31,4.307a6.687,6.687,0,0,1,.506.674Z" transform="translate(-89.304 -47.347)" fill="#007192"/><path d="M162.772,168.582h-7.5a4,4,0,0,1-.733-.036.89.89,0,0,1-.81-.984,2.007,2.007,0,0,1,.694-1.018c.159-.145.511-.1.776-.1q7.6-.008,15.193,0a3.691,3.691,0,0,1,.467.016,1.079,1.079,0,0,1,1.005,1.127,1.04,1.04,0,0,1-1.064.987c-.824.027-1.651.011-2.477.011h-5.555Z" transform="translate(-126.233 -136.671)" fill="#007192"/><path d="M20.637,142.983q-3.278,0-6.555,0c-.851,0-1.338-.39-1.343-1.053s.5-1.084,1.331-1.086q6.621-.005,13.243,0c.812,0,1.332.454,1.313,1.105s-.5,1.032-1.3,1.034c-2.23.005-4.459,0-6.689,0Z" transform="translate(-10.463 -115.653)" fill="#007192"/><path d="M309.432,192.2a2.2,2.2,0,0,1,2.246,2.175,2.215,2.215,0,1,1-4.43.059A2.194,2.194,0,0,1,309.432,192.2Z" transform="translate(-252.301 -157.826)" fill="#007192"/><path d="M98.136,192.19a2.175,2.175,0,0,1,2.219,2.189,2.214,2.214,0,0,1-2.189,2.239,2.261,2.261,0,0,1-2.237-2.209A2.213,2.213,0,0,1,98.136,192.19Z" transform="translate(-78.775 -157.818)" fill="#007192"/></g></g></g></svg>