<svg xmlns="http://www.w3.org/2000/svg" width="57.83" height="58.339" viewBox="0 0 57.83 58.339"><g transform="translate(0 0)"><g transform="translate(0 0)"><path d="M15.46,58.349a.572.572,0,0,0-.135-.094,2.9,2.9,0,0,1-2.2-3.065c-.009-2.771,0-5.544,0-8.315a8.562,8.562,0,0,0-1.187-4.509,4.989,4.989,0,0,0-4.177-2.471,4.977,4.977,0,0,1-.624-.04.944.944,0,0,1-.781-1.032.928.928,0,0,1,.889-.877,12.123,12.123,0,0,0,1.9-.292c2.14-.653,3.159-2.315,3.672-4.343a11.084,11.084,0,0,0,.291-2.363c.044-1.479.014-2.961.012-4.442,0-.181-.017-.362-.033-.7-.881,1.077-1.663,2.041-2.455,3a2.751,2.751,0,0,1-3.136,1.036,3.474,3.474,0,0,1-1.517-1.027C4.18,26.654,2.44,24.447.7,22.247a2.853,2.853,0,0,1-.073-3.632q4.111-5.633,8.243-11.25A11.732,11.732,0,0,1,13.147,3.78Q16.121,2.292,19.1.8A7.437,7.437,0,0,1,22.5.011q6.122.018,12.242,0a7.958,7.958,0,0,1,3.67.863Q41.3,2.326,44.2,3.777a12.054,12.054,0,0,1,4.386,3.718q4.017,5.49,8.039,10.975a2.93,2.93,0,0,1-.075,3.911Q54,25.59,51.428,28.78a2.91,2.91,0,0,1-4.705.02c-.793-.956-1.575-1.92-2.452-2.992V36h8.788a4.34,4.34,0,0,1,4.713,3.575.362.362,0,0,0,.064.093V41.03a4.876,4.876,0,0,1-1.6,2.68A11.361,11.361,0,0,1,57.228,45a11.48,11.48,0,0,1,.609,1.5v1.367a5.068,5.068,0,0,1-1.66,2.709,4.863,4.863,0,0,1,1.66,2.76V54.7c-.044.12-.094.237-.129.361a4.324,4.324,0,0,1-2.625,2.97c-.291.119-.593.21-.89.315H15.46ZM41.634,4.712c-2.558,5.255-6.913,7.768-12.547,7.895C23.1,12.74,18.46,10.251,15.7,4.7A12.114,12.114,0,0,0,10.3,8.67C8.494,11.2,6.637,13.7,4.784,16.2a.6.6,0,0,0,0,.87c1.28,1.625,2.532,3.272,3.794,4.909.82,1.065,1.642,2.127,2.444,3.168a7.724,7.724,0,0,1,1.149-1.062,1.921,1.921,0,0,1,2.887,1.782c.033,1.593-.053,3.193.03,4.783a14.307,14.307,0,0,0,.511,3.3,5.116,5.116,0,0,0,3.949,3.844,13.538,13.538,0,0,0,1.412.158.933.933,0,0,1,.889.872.949.949,0,0,1-.779,1.033,3.888,3.888,0,0,1-.566.038,4.828,4.828,0,0,0-4.252,2.522,7.39,7.39,0,0,0-.98,2.757c-.183,2.071-.132,4.163-.173,6.248,0,.027.046.055.1.116h.647c3.188,0,6.378-.04,9.566.024a1.978,1.978,0,0,0,1.936-1.038,4.284,4.284,0,0,1-1.586-3.387,4.437,4.437,0,0,1,1.619-3.375A4.365,4.365,0,0,1,30.191,36c3.8-.014,7.592,0,11.389,0h.7v-9.71a6.274,6.274,0,0,1,.029-.738,1.932,1.932,0,0,1,3.3-1.144c.237.236.444.5.668.758a1.16,1.16,0,0,0,.148-.132c2.073-2.692,4.136-5.388,6.224-8.068.25-.321.108-.493-.067-.73-1.72-2.339-3.486-4.646-5.134-7.033a12.353,12.353,0,0,0-5.812-4.483Zm.2,51.7c3.852,0,7.7.009,11.555,0a2.419,2.419,0,0,0,2.4-3.135,2.477,2.477,0,0,0-2.579-1.733q-10.758,0-21.514,0c-.513,0-1.026-.014-1.537,0a2.434,2.434,0,1,0,.068,4.867c3.87.011,7.741,0,11.611,0Zm-.062-6.817h3.187c2.846,0,5.691.015,8.537-.009a2.4,2.4,0,0,0,2.277-3.17,2.484,2.484,0,0,0-2.62-1.669q-11.354,0-22.707,0a5.043,5.043,0,0,0-.568.024,2.306,2.306,0,0,0-1.987,1.488,2.4,2.4,0,0,0,2.273,3.33c3.87.017,7.74,0,11.609.006Zm0-11.647c-3.89,0-7.778-.008-11.667,0a2.415,2.415,0,0,0-.667,4.728,4.5,4.5,0,0,0,1.182.11q11.183.009,22.365,0a7.007,7.007,0,0,0,.738-.026,2.415,2.415,0,0,0-.286-4.818c-3.888-.015-7.778,0-11.667,0ZM36.291,1.966c-5.1,0-10.126-.058-15.163.04a4.114,4.114,0,0,0,1.283,2.413,8.3,8.3,0,0,0,5.633,2.369,8.573,8.573,0,0,0,7.114-2.614,4.417,4.417,0,0,0,1.132-2.208Zm1.852.953c-1.75,3.966-4.956,5.664-8.98,5.8-4.422.149-7.994-1.475-9.97-5.787-.551.274-1.1.549-1.648.819a8.844,8.844,0,0,0,2.905,4.1A12.9,12.9,0,0,0,30.539,10.57a11.912,11.912,0,0,0,7.534-3.859,8.483,8.483,0,0,0,1.764-2.951l-1.692-.845ZM25.622,53.512H15.069c0,.58-.006,1.126,0,1.671.012.9.339,1.222,1.251,1.222q4.837,0,9.672,0a2.039,2.039,0,0,0,.294-.029c-.224-.962-.438-1.885-.667-2.864ZM47.555,26.746c.26.318.493.639.764.925a.948.948,0,0,0,1.531-.038c1.774-2.2,3.543-4.4,5.271-6.626a1.188,1.188,0,0,0,.132-1.036,13.152,13.152,0,0,0-1.176-1.7c-2.207,2.867-4.352,5.658-6.522,8.478Zm-37.756,0c-2.178-2.829-4.332-5.626-6.521-8.47-.412.562-.784,1.039-1.122,1.537a.948.948,0,0,0,.056,1.21C3.974,23.23,5.73,25.439,7.5,27.635a.949.949,0,0,0,1.531.037c.26-.272.482-.581.765-.925Zm4.307,8.8a7.987,7.987,0,0,1-2.926,3.372,7.814,7.814,0,0,1,2.931,3.346,7.721,7.721,0,0,1,2.913-3.354A7.843,7.843,0,0,1,14.1,35.542Z" transform="translate(-0.006 -0.009)" fill="#007192"/><path d="M127.376,117.826a.972.972,0,0,1-.942.951,11.755,11.755,0,0,0-1.9.306c-2.108.659-3.113,2.3-3.629,4.308a16.079,16.079,0,0,0-.321,2.132c-.076.645-.431,1.045-.977,1.042a.994.994,0,0,1-.971-1.055,9.244,9.244,0,0,0-.81-3.523,5.066,5.066,0,0,0-4.486-3.174c-.189-.014-.379-.021-.568-.044a.925.925,0,0,1-.907-.913.941.941,0,0,1,.877-1.006c.374-.052.761-.03,1.132-.093a5.176,5.176,0,0,0,4.264-3.928,18.946,18.946,0,0,0,.488-2.73c.064-.422.183-.829.616-.928a1.3,1.3,0,0,1,.939.128,1.458,1.458,0,0,1,.39.823,26.21,26.21,0,0,0,.788,3.352,4.95,4.95,0,0,0,4.757,3.346c.823.03,1.268.391,1.26,1Zm-4.827-.014a7.786,7.786,0,0,1-2.942-3.352,7.852,7.852,0,0,1-2.92,3.363,7.8,7.8,0,0,1,2.926,3.336,7.848,7.848,0,0,1,2.935-3.348Z" transform="translate(-94.843 -92.531)" fill="#007192"/></g></g></svg>