<svg xmlns="http://www.w3.org/2000/svg" width="69.202" height="43.872" viewBox="0 0 69.202 43.872"><g transform="translate(0.238 0.25)"><g transform="translate(0.012)"><g transform="translate(0)"><path d="M68.551,35.751a1.463,1.463,0,0,1-1.5.767c-1-.032-2-.009-3.047-.009a6.949,6.949,0,0,1-2.677,5.437A6.631,6.631,0,0,1,56.9,43.368a6.9,6.9,0,0,1-6.571-6.809H26.212a6.874,6.874,0,0,1-2.836,5.508,6.606,6.606,0,0,1-4.4,1.293,6.892,6.892,0,0,1-6.433-6.851h-.7c-1.606,0-3.214.009-4.82,0A2.26,2.26,0,0,1,4.57,34.043c-.005-.685,0-1.372,0-2.132H1.7a5.687,5.687,0,0,1-.8-.027.968.968,0,0,1-.882-.944.98.98,0,0,1,.773-1.1,2.469,2.469,0,0,1,.662-.066q4.786-.005,9.573,0a3.116,3.116,0,0,1,.467.023,1.068,1.068,0,0,1,.953,1.1,1.028,1.028,0,0,1-1.052,1c-1.293.025-2.588.011-3.883.013H6.754V34.3a3.872,3.872,0,0,0,.5.064c1.74.005,3.482-.009,5.222.013.379,0,.526-.148.678-.476a6.524,6.524,0,0,1,6.211-4.1,6.514,6.514,0,0,1,6.263,4.121.656.656,0,0,0,.7.454q10.61-.016,21.221-.009c.152,0,.3-.025.528-.043v-7.5c0-.179-.009-.358.005-.535A1.109,1.109,0,0,1,49.141,25.2a1.06,1.06,0,0,1,1.071,1.125c.014,2.411.007,4.822.007,7.231a1.845,1.845,0,0,0,.011.467c.034.123.136.308.225.317.116.013.261-.1.37-.195.059-.05.063-.163.1-.243a6.8,6.8,0,0,1,12.485.02.636.636,0,0,0,.692.456c.733-.025,1.467-.007,2.25-.007V29.622c-.374,0-.764.009-1.155,0a3.316,3.316,0,0,1-3.362-3.414q-.016-1.038,0-2.076A1.089,1.089,0,0,1,63.08,22.9c1-.013,2.007,0,3.1,0a2.383,2.383,0,0,0-1.057-1.59,4.5,4.5,0,0,0-2-.79c-4.194-.072-8.39-.038-12.585-.038a2.342,2.342,0,0,0-.317.052c0,.39.014.765,0,1.137a1.055,1.055,0,0,1-1.041,1.084,1.078,1.078,0,0,1-1.089-1.048c-.02-.2-.009-.4-.009-.6V2.187H6.715V21.1a6.413,6.413,0,0,1-.013.669.994.994,0,0,1-1,.976.991.991,0,0,1-1.078-.81,2.829,2.829,0,0,1-.054-.73q0-9.306,0-18.614A2.286,2.286,0,0,1,7.16,0h40.5a2.254,2.254,0,0,1,2.561,2.538c0,.644,0,1.288,0,2,.283.013.517.034.753.034,2.3,0,4.6.048,6.894-.011,2.887-.073,5.408,1.919,4.9,5.837-.047.358-.426.671-.737,1.134.51,2.041,1.057,4.265,1.631,6.485a.7.7,0,0,0,.408.429,5.608,5.608,0,0,1,4.378,4.541.754.754,0,0,0,.093.175V35.751ZM61.476,18.3c-.038-.209-.061-.383-.1-.553-.476-1.924-.969-3.843-1.422-5.771a.718.718,0,0,0-.844-.671c-2.72.03-5.44.013-8.161.016-.216,0-.435.02-.665.032V18.3H61.476ZM57.161,41.23a4.652,4.652,0,1,0-4.646-4.65,4.688,4.688,0,0,0,4.646,4.65Zm-37.738,0a4.652,4.652,0,1,0-4.687-4.6,4.676,4.676,0,0,0,4.687,4.6ZM60.605,9.114a2.248,2.248,0,0,0-2.4-2.384c-2.5-.016-4.992-.005-7.488,0a3.748,3.748,0,0,0-.461.059V9.114ZM66.369,27.4V25.092H64.043c-.265,2.058.293,2.611,2.327,2.312Z" transform="translate(-0.012 0)" fill="#007192"/><path d="M19.4,43.622c-.143,0-.289,0-.434-.012a7.081,7.081,0,0,1-4.237-1.758,7.558,7.558,0,0,1-2.413-5.094h-.469c-1,0-2.008,0-3.012,0-.694,0-1.269,0-1.809-.005a2.512,2.512,0,0,1-2.7-2.712c0-.453,0-.9,0-1.38q0-.248,0-.5H1.407a3.872,3.872,0,0,1-.544-.031A1.3,1.3,0,0,1,.721,29.6a2.691,2.691,0,0,1,.73-.076q4.785-.005,9.574,0a3.309,3.309,0,0,1,.5.026,1.314,1.314,0,0,1,1.165,1.363,1.284,1.284,0,0,1-1.3,1.238c-.688.013-1.363.015-1.874.015l-1.771,0H7v1.925a1.547,1.547,0,0,0,.251.027q.928,0,1.853,0H10c.732,0,1.6,0,2.481.012h.01c.236,0,.31-.056.438-.331a6.793,6.793,0,0,1,6.437-4.246h.017a6.877,6.877,0,0,1,3.9,1.1,7.453,7.453,0,0,1,2.578,3.161.415.415,0,0,0,.47.309c5.144-.008,10.375-.008,15.434-.008h5.787a2.742,2.742,0,0,0,.278-.02V26.819c0-.049,0-.1,0-.146,0-.133,0-.27.008-.409a1.361,1.361,0,0,1,1.306-1.315h.021a1.316,1.316,0,0,1,1.3,1.374c.011,1.809.009,3.647.008,5.425q0,.9,0,1.807c0,.053,0,.1-.005.153a.883.883,0,0,0,.008.249.5.5,0,0,0,.046.107,1.34,1.34,0,0,0,.124-.093c0-.011.008-.026.011-.037a.811.811,0,0,1,.051-.144,7.579,7.579,0,0,1,2.575-3.128,6.85,6.85,0,0,1,3.869-1.111h.027a6.85,6.85,0,0,1,3.89,1.107,7.493,7.493,0,0,1,2.575,3.156c.124.267.213.312.418.312H64.1c.27-.009.561-.014.918-.014.216,0,.433,0,.654,0l.437,0V29.873h-.123l-.392,0c-.148,0-.277,0-.4,0a3.575,3.575,0,0,1-3.607-3.661c-.011-.691-.011-1.392,0-2.084a1.337,1.337,0,0,1,1.49-1.473c.366,0,.763-.007,1.249-.007l1.523,0A2.014,2.014,0,0,0,65,21.526a4.357,4.357,0,0,0-1.88-.756c-2.368-.04-4.69-.046-6.449-.046q-1.533,0-3.065,0t-3.067,0a.387.387,0,0,0-.065.008q0,.075,0,.15c0,.26.006.529-.007.793a1.307,1.307,0,0,1-1.286,1.322h-.026a1.327,1.327,0,0,1-1.317-1.274,4.169,4.169,0,0,1-.012-.472c0-.052,0-.1,0-.155V2.437H6.965V21.1c0,.053,0,.105,0,.158a4.6,4.6,0,0,1-.015.537A1.239,1.239,0,0,1,5.718,23q-.052,0-.1,0a1.233,1.233,0,0,1-1.234-1,2.656,2.656,0,0,1-.063-.715v-.08c0-6.1,0-12.409,0-18.614A2.89,2.89,0,0,1,5.038.47,2.888,2.888,0,0,1,7.16-.25h40.5a2.868,2.868,0,0,1,2.1.706,2.834,2.834,0,0,1,.716,2.081c0,.425,0,.85,0,1.294,0,.154,0,.31,0,.469l.048,0c.159.009.309.018.454.018.685,0,1.381.005,2.054.01.716,0,1.457.01,2.184.01,1.018,0,1.86-.009,2.65-.03l.16,0a5.034,5.034,0,0,1,3.864,1.625,5.535,5.535,0,0,1,1.134,4.5,1.768,1.768,0,0,1-.466.832c-.083.1-.168.207-.249.32l.326,1.308c.41,1.647.834,3.351,1.277,5.064a.477.477,0,0,0,.229.25A5.871,5.871,0,0,1,68.7,22.927c0,.009.017.03.027.045s.03.047.043.071l.031.056V35.5h.166l-.191.367a1.674,1.674,0,0,1-1.623.9l-.109,0c-.358-.012-.746-.017-1.221-.017-.294,0-.59,0-.889,0l-.694,0a7.184,7.184,0,0,1-2.759,5.384,6.888,6.888,0,0,1-4.589,1.475A7.09,7.09,0,0,1,52.5,41.843,7.435,7.435,0,0,1,50.1,36.809H26.448a7.093,7.093,0,0,1-2.924,5.46A6.824,6.824,0,0,1,19.4,43.622Zm-7.552-7.363h.933l.016.233c.342,4.976,4.056,6.5,6.2,6.619.136.008.273.011.407.011a6.334,6.334,0,0,0,3.831-1.256,6.66,6.66,0,0,0,2.735-5.319l.011-.238H50.562l.015.234a6.615,6.615,0,0,0,6.33,6.575,6.4,6.4,0,0,0,4.264-1.369A6.673,6.673,0,0,0,63.752,36.5l.011-.238H64c.313,0,.621,0,.926,0s.6,0,.892,0c.48,0,.873.005,1.237.017l.092,0a1.175,1.175,0,0,0,1.148-.577V23.232a.6.6,0,0,1-.087-.19,5.343,5.343,0,0,0-4.2-4.354.937.937,0,0,1-.587-.608c-.444-1.716-.868-3.421-1.278-5.069q-.179-.721-.353-1.418l-.027-.108.062-.092c.112-.167.232-.315.338-.446a1.46,1.46,0,0,0,.358-.581,5.054,5.054,0,0,0-1.014-4.1,4.543,4.543,0,0,0-3.488-1.455l-.147,0c-.794.02-1.64.03-2.663.03-.729,0-1.471,0-2.188-.01-.672,0-1.368-.009-2.051-.01-.16,0-.317-.009-.484-.019l-.28-.015-.239-.011V4.537c0-.243,0-.477,0-.707,0-.444,0-.868,0-1.292A2.009,2.009,0,0,0,47.662.25H7.16A2.419,2.419,0,0,0,5.392.823a2.42,2.42,0,0,0-.571,1.77c0,6.2,0,12.513,0,18.614v.082a2.292,2.292,0,0,0,.045.582.742.742,0,0,0,.821.626.751.751,0,0,0,.767-.752,4.157,4.157,0,0,0,.012-.48c0-.055,0-.109,0-.164V1.937H48.325V21.105c0,.054,0,.108,0,.162a3.738,3.738,0,0,0,.009.416.833.833,0,0,0,.819.823h.017a.806.806,0,0,0,.8-.846c.012-.249.009-.5.006-.764,0-.12,0-.24,0-.362v-.211l.208-.035c.05-.008.092-.017.129-.025a1.1,1.1,0,0,1,.229-.031q1.533,0,3.066,0t3.066,0c1.76,0,4.085.005,6.458.046a4.7,4.7,0,0,1,2.126.825,2.631,2.631,0,0,1,1.174,1.749l.07.306H66.18c-.643,0-1.255,0-1.854,0-.484,0-.879,0-1.242.007-.7.009-.984.284-1,.981s-.011,1.382,0,2.068a3.06,3.06,0,0,0,3.119,3.168c.114,0,.24,0,.384,0l.388,0,.377,0h.25v5.246h-.25c-.234,0-.464,0-.69,0s-.436,0-.65,0c-.351,0-.637,0-.9.013h-.056a.87.87,0,0,1-.872-.6,6.246,6.246,0,0,0-6.011-3.974h-.026a6.292,6.292,0,0,0-6,3.956.472.472,0,0,0-.019.06.5.5,0,0,1-.147.266.851.851,0,0,1-.514.255l-.044,0c-.307-.031-.434-.48-.44-.5a1.27,1.27,0,0,1-.024-.407c0-.045,0-.087,0-.126q0-.9,0-1.808c0-1.777,0-3.614-.008-5.421a.809.809,0,0,0-.8-.877h-.013a.86.86,0,0,0-.815.856c-.009.116-.008.235-.006.362,0,.051,0,.1,0,.153v7.735l-.23.018c-.08.006-.151.014-.216.021a3.161,3.161,0,0,1-.332.023H41.76c-5.059,0-10.29,0-15.434.008a.9.9,0,0,1-.925-.6,6.24,6.24,0,0,0-6.02-3.975h-.016a6.248,6.248,0,0,0-5.985,3.957.889.889,0,0,1-.891.62h-.015c-.879-.011-1.745-.012-2.475-.012H7.254a2.231,2.231,0,0,1-.383-.043c-.05-.009-.1-.017-.149-.024L6.5,34.519V31.663H7.752l1.771,0c.509,0,1.181,0,1.865-.015a.777.777,0,0,0,.807-.762.817.817,0,0,0-.744-.845,2.945,2.945,0,0,0-.427-.02q-4.786-.005-9.573,0a2.268,2.268,0,0,0-.594.057.731.731,0,0,0-.591.838.72.72,0,0,0,.669.718,3.365,3.365,0,0,0,.472.026H4.82v.25c0,.259,0,.51,0,.755,0,.475,0,.924,0,1.375a2.013,2.013,0,0,0,2.205,2.216c.539,0,1.113.005,1.806.005C9.836,36.262,10.84,36.259,11.844,36.259Zm7.547,5.222a4.861,4.861,0,1,1,.034,0Zm0-9.3a4.422,4.422,0,0,0-4.4,4.447,4.416,4.416,0,0,0,4.405,4.356h.031a4.4,4.4,0,0,0-.034-8.8Zm37.786,9.3H57.16a4.9,4.9,0,0,1-.01-9.8h.034a4.93,4.93,0,0,1,4.9,4.931A4.927,4.927,0,0,1,57.174,41.48Zm.01-9.3h-.03a4.4,4.4,0,0,0,.006,8.8h.014A4.425,4.425,0,0,0,61.58,36.6a4.43,4.43,0,0,0-4.4-4.426Zm8.3-4.447h0a1.7,1.7,0,0,1-1.368-.479,2.735,2.735,0,0,1-.318-2.191l.028-.218h2.8V27.62l-.214.031A6.418,6.418,0,0,1,65.481,27.729Zm-1.216-2.388a2.134,2.134,0,0,0,.223,1.579,1.256,1.256,0,0,0,.992.309h0a5.3,5.3,0,0,0,.639-.044V25.342Zm-2.789-6.789H50.032V11.118l.236-.013.195-.012c.166-.011.322-.021.484-.021q1.254,0,2.511,0h1.7c1.084,0,2.511,0,3.947-.018h.025a.957.957,0,0,1,1.065.863c.313,1.334.652,2.687.979,4q.222.886.442,1.773c.031.127.052.253.074.386.01.058.02.119.031.183l0,.022v.272Zm-10.944-.5H61.18c-.015-.087-.03-.167-.049-.246q-.219-.885-.441-1.77c-.328-1.31-.667-2.665-.981-4-.093-.393-.2-.478-.578-.478h-.02c-1.438.016-2.867.018-3.952.018l-3.4,0h-.811c-.135,0-.272.008-.416.017ZM60.839,9.364H50.007v-2.8l.218-.028c.052-.007.1-.015.151-.023a2.04,2.04,0,0,1,.343-.038l1.579,0q1.447,0,2.894,0c1.146,0,2.1,0,3.017.009a2.737,2.737,0,0,1,2.02.83,2.407,2.407,0,0,1,.626,1.82Zm-10.332-.5h9.851a1.883,1.883,0,0,0-.5-1.213,2.244,2.244,0,0,0-1.657-.671c-.911-.006-1.868-.009-3.013-.009q-1.447,0-2.893,0l-1.579,0A1.33,1.33,0,0,0,50.507,7Z" transform="translate(-0.012 0)" fill="#007192"/><path d="M115.477,67.615c2.776-2.783,5.406-5.421,8.035-8.059.5-.506,1-1.021,1.517-1.513a1.073,1.073,0,1,1,1.513,1.511q-5.078,5.1-10.178,10.178a1.04,1.04,0,0,1-1.649-.02q-2.806-2.779-5.583-5.587a1.071,1.071,0,1,1,1.529-1.488q2.17,2.138,4.31,4.307a6.687,6.687,0,0,1,.506.674Z" transform="translate(-89.304 -47.347)" fill="#007192"/><path d="M115.555,70.379a1.457,1.457,0,0,1-1.016-.489c-1.833-1.816-3.712-3.7-5.585-5.589a1.293,1.293,0,0,1-.071-1.9,1.269,1.269,0,0,1,.919-.415,1.483,1.483,0,0,1,1.034.476c1.484,1.462,2.944,2.93,4.312,4.308a3.01,3.01,0,0,1,.338.433l.021.03c2.7-2.707,5.265-5.279,7.828-7.851l.43-.435c.354-.358.719-.729,1.091-1.083a1.5,1.5,0,0,1,1.029-.454,1.254,1.254,0,0,1,.926.419,1.32,1.32,0,0,1-.092,1.9c-3.618,3.634-6.948,6.963-10.179,10.179A1.4,1.4,0,0,1,115.555,70.379ZM109.8,62.484a.782.782,0,0,0-.56.263.8.8,0,0,0,.068,1.2c1.872,1.892,3.75,3.771,5.582,5.585a.987.987,0,0,0,.664.344.932.932,0,0,0,.633-.324c3.23-3.215,6.559-6.544,10.177-10.177a.823.823,0,0,0,.083-1.208.767.767,0,0,0-.562-.262,1.014,1.014,0,0,0-.685.316c-.366.348-.729.716-1.08,1.072l-.432.436c-2.606,2.615-5.214,5.23-7.962,7.986v.649l-.45-.6c-.077-.1-.143-.2-.2-.283a2.624,2.624,0,0,0-.281-.364c-1.368-1.378-2.827-2.845-4.309-4.305A1,1,0,0,0,109.8,62.484Z" transform="translate(-89.304 -47.347)" fill="#007192"/><path d="M162.772,168.582h-7.5a4,4,0,0,1-.733-.036.89.89,0,0,1-.81-.984,2.007,2.007,0,0,1,.694-1.018c.159-.145.511-.1.776-.1q7.6-.008,15.193,0a3.691,3.691,0,0,1,.467.016,1.079,1.079,0,0,1,1.005,1.127,1.04,1.04,0,0,1-1.064.987c-.824.027-1.651.011-2.477.011h-5.555Z" transform="translate(-126.233 -136.671)" fill="#007192"/><path d="M169.676,168.835l-.674,0-.675,0-13.05,0h-.211a3.085,3.085,0,0,1-.569-.041,1.141,1.141,0,0,1-1.011-1.267,2.125,2.125,0,0,1,.773-1.165.912.912,0,0,1,.627-.173c.058,0,.116,0,.173,0l.144,0c3.22,0,6.429,0,9.143,0h6.174a2.936,2.936,0,0,1,.374.018,1.335,1.335,0,0,1,1.223,1.39,1.292,1.292,0,0,1-1.306,1.222c-.328.011-.688.016-1.133.016Zm-6.9-.5h5.555l.677,0,.675,0c.439,0,.794,0,1.117-.015a.788.788,0,0,0,.823-.753.836.836,0,0,0-.789-.864,2.5,2.5,0,0,0-.308-.014h-6.174c-2.714,0-5.922,0-9.143,0l-.158,0-.159,0c-.226,0-.279.033-.291.043a1.657,1.657,0,0,0-.615.871c-.06.391.263.634.61.7a2.578,2.578,0,0,0,.475.032h.211Z" transform="translate(-126.233 -136.671)" fill="#007192"/><path d="M20.637,142.983q-3.278,0-6.555,0c-.851,0-1.338-.39-1.343-1.053s.5-1.084,1.331-1.086q6.621-.005,13.243,0c.812,0,1.332.454,1.313,1.105s-.5,1.032-1.3,1.034c-2.23.005-4.459,0-6.689,0Z" transform="translate(-10.463 -115.653)" fill="#007192"/><path d="M25.1,143.236l-4.459,0H14.083c-.991,0-1.586-.486-1.593-1.3a1.23,1.23,0,0,1,.35-.9,1.688,1.688,0,0,1,1.23-.44q3.63,0,7.262,0c2.149,0,4.106,0,5.983,0a1.67,1.67,0,0,1,1.219.451,1.224,1.224,0,0,1,.344.912c-.024.785-.618,1.274-1.55,1.276Zm-4.459-.5,4.459,0,2.229,0c.309,0,1.029-.079,1.051-.791a.735.735,0,0,0-.2-.548,1.182,1.182,0,0,0-.86-.3c-1.877,0-3.833,0-5.982,0q-3.63,0-7.261,0a1.225,1.225,0,0,0-.875.292.731.731,0,0,0-.205.541c.005.666.6.805,1.093.805q2.184,0,4.369,0Z" transform="translate(-10.463 -115.653)" fill="#007192"/><path d="M309.432,192.2a2.2,2.2,0,0,1,2.246,2.175,2.215,2.215,0,1,1-4.43.059A2.194,2.194,0,0,1,309.432,192.2Z" transform="translate(-252.301 -157.826)" fill="#007192"/><path d="M309.456,191.949a2.464,2.464,0,0,1,.04,4.928h-.042A2.479,2.479,0,0,1,307,194.437a2.444,2.444,0,0,1,2.431-2.488Zm0,4.429h.034a2,2,0,0,0,1.942-2,1.95,1.95,0,0,0-1.972-1.929h-.021a1.944,1.944,0,0,0-1.936,1.98A1.977,1.977,0,0,0,309.453,196.378Z" transform="translate(-252.301 -157.826)" fill="#007192"/><path d="M98.136,192.19a2.175,2.175,0,0,1,2.219,2.189,2.214,2.214,0,0,1-2.189,2.239,2.261,2.261,0,0,1-2.237-2.209A2.213,2.213,0,0,1,98.136,192.19Z" transform="translate(-78.775 -157.818)" fill="#007192"/><path d="M98.154,191.94a2.429,2.429,0,0,1,2.452,2.438,2.47,2.47,0,0,1-2.437,2.491h-.018a2.516,2.516,0,0,1-2.472-2.456,2.417,2.417,0,0,1,.7-1.73,2.468,2.468,0,0,1,1.755-.742Zm0,4.428h.014a1.969,1.969,0,0,0,1.941-1.988,1.933,1.933,0,0,0-1.952-1.941h-.015a1.972,1.972,0,0,0-1.4.593,1.921,1.921,0,0,0-.557,1.374A2.008,2.008,0,0,0,98.151,196.368Z" transform="translate(-78.775 -157.818)" fill="#007192"/></g></g></g></svg>