<svg xmlns="http://www.w3.org/2000/svg" width="67.894" height="64.563" viewBox="0 0 67.894 64.563"><g transform="translate(0)"><g transform="translate(0)"><path d="M4.612,46.478C2.058,46.217.422,44.822.067,42.666a4.46,4.46,0,0,1,2.715-4.918.8.8,0,0,0,.6-.79,5.665,5.665,0,0,1,7.07-5.051l.4.093a6.911,6.911,0,0,1,10.5-2.076L24.864,28.2V4.937A4.555,4.555,0,0,1,29.8,0H62.914C66.038,0,67.9,1.847,67.9,4.96V53.584c0,3.267-1.28,4.807-4.568,5.387a11.928,11.928,0,0,1-.011,1.664,4.509,4.509,0,0,1-4.625,3.924q-12.349.011-24.7,0H11.42C8.362,64.561,6.66,63,6.3,59.977,5.766,55.487,5.18,51,4.612,46.478ZM37.049,56.634H62.964c1.821,0,2.67-.858,2.67-2.7V18.181H27.161v10.16a20.093,20.093,0,0,1,2.008.815,18.453,18.453,0,0,1,1.73,1.176A17.015,17.015,0,0,1,62.413,43.069,16.475,16.475,0,0,1,54.3,52.308a16.478,16.478,0,0,1-16.666-.331c-.2,1.585-.386,3.08-.584,4.659ZM6.916,46.471c.019.193.03.354.049.512.537,4.3,1.083,8.6,1.607,12.905a2.364,2.364,0,0,0,2.64,2.405q10.256,0,20.512,0a2.355,2.355,0,0,0,2.626-2.345c.3-2.479.622-4.956.93-7.435.25-2,.494-4.007.743-6.032H20.333c0,.56.008,1.074,0,1.588a3.963,3.963,0,1,1-7.925,0c-.008-.531,0-1.063,0-1.6H6.917ZM65.634,15.829V4.871a2.321,2.321,0,0,0-2.619-2.6H29.754a2.323,2.323,0,0,0-2.625,2.6q0,5.131,0,10.262c0,.227.021.456.032.679h6.766c0-.427-.011-.8,0-1.178a3.361,3.361,0,0,1,3.32-3.29q9.127-.034,18.257,0a3.362,3.362,0,0,1,3.33,3.354c.009.369,0,.739,0,1.136h6.8Zm-28.3,17c1.526,1.473,2.116,2.536,2.224,4.151a.73.73,0,0,0,.558.743,4.477,4.477,0,0,1,2.713,5.232A4.632,4.632,0,0,1,40.764,45.8a10.145,10.145,0,1,0-3.436-12.973Zm-.055,4.548A3.345,3.345,0,0,0,32.4,34.36c-1.25.624-1.683.461-2.186-.824a4.528,4.528,0,0,0-7.6-1.4c-.9.985-1.435.985-2.307,0a4.371,4.371,0,0,0-3.222-1.539,4.5,4.5,0,0,0-4.427,3.1c-.386,1.049-.978,1.278-1.967.76a5.024,5.024,0,0,0-.511-.24,3.314,3.314,0,0,0-4.514,3.167c.6,0,1.212,0,1.821,0C8.642,37.385,9,37.75,9,38.913c.008,1.638.234,1.863,1.885,1.864h.284a3.4,3.4,0,0,1,3.491,3.485c.013,1.225,0,2.452.006,3.68a1.708,1.708,0,1,0,3.394-.017c.009-1.18,0-2.358,0-3.538a3.4,3.4,0,0,1,3.3-3.608A1.181,1.181,0,0,0,22.6,39.455c0-.165,0-.331,0-.5,0-1.244.342-1.581,1.6-1.581H37.272Zm-4.485-5.622a10.811,10.811,0,0,1,1.793.023.737.737,0,0,0,.934-.442,12.452,12.452,0,0,1,23.209,7.673A12.515,12.515,0,0,1,39.36,47.666c-.338-.236-.669-.486-1.089-.79-.093.726-.151,1.354-.257,1.976a.8.8,0,0,0,.431.921,14.078,14.078,0,0,0,10.616,2.05A14.7,14.7,0,0,0,60.931,35.165c-1.668-10.9-13.5-15.188-21.711-10.674a14.6,14.6,0,0,0-6.433,7.265ZM36.094,62.3h.736c7.17,0,14.341-.038,21.511.028a2.534,2.534,0,0,0,2.674-3.375H36.882L36.094,62.3ZM20.339,44.122a1.427,1.427,0,0,0,.206.045q8.949.006,17.9,0a2.377,2.377,0,0,0,.949-.225,2.22,2.22,0,0,0,1.259-2.447A2.268,2.268,0,0,0,38.3,39.648q-6.436-.011-12.873,0c-.182,0-.363.025-.537.038a3.446,3.446,0,0,1-3.407,3.358,1.156,1.156,0,0,0-1.148,1.082ZM56.514,15.829c.214-1.573.009-2.292-1.915-2.258-3.816.068-7.635.021-11.453.021-1.863,0-3.723-.006-5.586,0-.966,0-1.358.408-1.371,1.384,0,.274,0,.548,0,.851ZM6.673,39.643c-.643,0-1.3,0-1.955,0a2.274,2.274,0,1,0-.025,4.527c2.26.006,4.519,0,6.779,0h.9c-.2-.938-.477-1.129-1.534-1.133-2.57-.008-3.665-.887-4.169-3.4Z" transform="translate(-0.003)" fill="#007192"/><path d="M75.112,288.34a3.4,3.4,0,1,1,3.37-3.392A3.423,3.423,0,0,1,75.112,288.34Zm0-2.269A1.126,1.126,0,1,0,74,284.946a1.152,1.152,0,0,0,1.118,1.125Z" transform="translate(-58.183 -228.312)" fill="#007192"/><path d="M266.741,24.778a3.394,3.394,0,1,1,3.39-3.37A3.427,3.427,0,0,1,266.741,24.778Zm-1.091-3.449a1.117,1.117,0,1,0,1.169-1.072A1.157,1.157,0,0,0,265.65,21.329Z" transform="translate(-213.594 -14.588)" fill="#007192"/><path d="M308.677,24.778a3.394,3.394,0,1,1,3.385-3.375A3.427,3.427,0,0,1,308.677,24.778Zm.034-2.269A1.126,1.126,0,1,0,307.58,21.4,1.151,1.151,0,0,0,308.711,22.509Z" transform="translate(-247.595 -14.588)" fill="#007192"/></g></g></svg>