<svg xmlns="http://www.w3.org/2000/svg" width="255.771" height="66.463" viewBox="0 0 255.771 66.463"><g transform="translate(-0.003 0.005)"><g transform="translate(0.003 -0.006)"><g transform="translate(0 0)"><path d="M46.139,70.425a23.828,23.828,0,0,1-.7-47.646.918.918,0,1,1,.051,1.836A21.876,21.876,0,0,0,24.141,46.6a21.994,21.994,0,1,0,43.987,0,21.869,21.869,0,0,0-4.115-12.816.918.918,0,0,1,1.493-1.07A23.831,23.831,0,0,1,46.139,70.429Z" transform="translate(-12.875 -13.142)" fill="#fff"/><path d="M108.9,75.827s-6.175,1.666-9.288-1.189-1.979-9.149-1.979-9.149,6.175-1.666,9.288,1.189S108.9,75.827,108.9,75.827Z" transform="translate(-56.225 -37.51)" fill="#fff"/><path d="M105.055,76.334c-2.335,0-5.033-.465-6.936-2.212-3.984-3.659-2.673-11.276-2.614-11.6l.1-.571.563-.152c.317-.085,7.8-2.051,11.784,1.607s2.673,11.276,2.614,11.6l-.1.571-.563.152a20.226,20.226,0,0,1-4.847.6Zm4.61-1.489Zm0,0ZM97.235,63.438c-.207,1.738-.55,6.873,2.132,9.335s7.765,1.679,9.483,1.32c.207-1.738.55-6.873-2.132-9.335S98.952,63.083,97.235,63.438Z" transform="translate(-54.966 -35.309)" fill="#fff"/><path d="M101.994,32.622s-5.976,2.284-9.36-.241-2.9-8.9-2.9-8.9,5.976-2.284,9.36.241S101.994,32.622,101.994,32.622Z" transform="translate(-51.77 -12.999)" fill="#fff"/><path d="M96.076,32.87a9.121,9.121,0,0,1-5.52-1.582c-4.335-3.236-3.8-10.95-3.773-11.276l.042-.579.541-.207c.3-.118,7.55-2.83,11.885.406s3.8,10.95,3.773,11.276l-.042.579-.541.207a19.928,19.928,0,0,1-6.365,1.176ZM88.59,20.749c-.03,1.751.148,6.894,3.062,9.068s7.892.88,9.567.355c.03-1.751-.148-6.894-3.062-9.068s-7.892-.88-9.567-.355Zm13.522,10.087Zm0,0Z" transform="translate(-50.06 -10.413)" fill="#fff"/><path d="M134.318,50.914s-2.284-5.976.241-9.36,8.9-2.9,8.9-2.9,2.284,5.976-.241,9.36S134.318,50.914,134.318,50.914Z" transform="translate(-76.962 -22.29)" fill="#fff"/><path d="M133.694,49.789c-.622,0-1.019-.03-1.091-.034l-.579-.042-.207-.541c-.118-.3-2.83-7.55.406-11.885s10.95-3.8,11.276-3.773l.579.042.207.541c.118.3,2.83,7.55-.406,11.885C141.328,49.4,136,49.789,133.694,49.789Zm-.355-1.84c1.751.03,6.894-.148,9.068-3.062s.88-7.9.355-9.567c-1.751-.03-6.894.148-9.068,3.062S132.814,46.274,133.339,47.949Z" transform="translate(-75.387 -19.317)" fill="#fff"/><path d="M58.378,70.672A19.022,19.022,0,0,1,49.965,34.59,19.021,19.021,0,1,0,61.123,70.473a18.93,18.93,0,0,1-2.745.2Z" transform="translate(-19.442 -19.958)" fill="#fff"/><rect width="1.019" height="4.145" transform="translate(27.003 5.177) rotate(-15.26)" fill="#fff"/><rect width="1.019" height="8.544" transform="matrix(0.999, -0.032, 0.032, 0.999, 30.884, 0.033)" fill="#fff"/><rect width="1.019" height="8.742" transform="translate(21.885 1.756) rotate(-19.44)" fill="#fff"/><rect width="1.019" height="8.455" transform="translate(14.492 5.984) rotate(-33.19)" fill="#fff"/><rect width="1.019" height="8.62" transform="translate(7.744 11.53) rotate(-48.32)" fill="#fff"/><rect width="1.019" height="8.696" transform="matrix(0.461, -0.887, 0.887, 0.461, 3.091, 18.918)" fill="#fff"/><rect width="1.019" height="8.539" transform="matrix(0.195, -0.981, 0.981, 0.195, 0.535, 27.31)" fill="#fff"/><rect width="8.603" height="1.019" transform="translate(0 34.751) rotate(-2.21)" fill="#fff"/><rect width="8.628" height="1.019" transform="translate(1.604 43.175) rotate(-17.69)" fill="#fff"/><rect width="8.341" height="1.019" transform="matrix(0.841, -0.542, 0.542, 0.841, 5.428, 50.93)" fill="#fff"/><rect width="8.311" height="1.019" transform="matrix(0.658, -0.753, 0.753, 0.658, 10.918, 57.63)" fill="#fff"/><rect width="8.201" height="1.019" transform="translate(17.902 62.455) rotate(-63.15)" fill="#fff"/><rect width="8.429" height="1.019" transform="translate(25.923 65.498) rotate(-79.49)" fill="#fff"/><rect width="1.019" height="8.523" transform="translate(33.893 57.955) rotate(-3.26)" fill="#fff"/><rect width="1.019" height="8.616" transform="matrix(0.941, -0.338, 0.338, 0.941, 40.269, 57.173)" fill="#fff"/><rect width="1.019" height="8.379" transform="translate(46.49 54.629) rotate(-32.1)" fill="#fff"/><g transform="translate(48.758 51.862)"><line x1="2.665" y1="3.176" transform="translate(0.392 0.329)" fill="#b8891c"/><rect width="1.019" height="4.145" transform="translate(0 0.656) rotate(-40.04)" fill="#fff"/></g><rect width="1.019" height="4.318" transform="translate(43.248 55.989) rotate(-26.04)" fill="#fff"/><rect width="1.019" height="4.115" transform="matrix(0.985, -0.171, 0.171, 0.985, 37.122, 57.786)" fill="#fff"/><rect width="4.149" height="1.019" transform="translate(30.588 61.825) rotate(-87.56)" fill="#fff"/><rect width="4.027" height="1.019" transform="matrix(0.312, -0.95, 0.95, 0.312, 23.273, 60.03)" fill="#fff"/><rect width="4.238" height="1.019" transform="translate(16.335 56.35) rotate(-48.48)" fill="#fff"/><rect width="4.052" height="1.019" transform="translate(11.317 51.549) rotate(-41.36)" fill="#fff"/><rect width="4.213" height="1.019" transform="translate(7.23 45.295) rotate(-25.09)" fill="#fff"/><rect width="4.149" height="1.019" transform="matrix(0.98, -0.199, 0.199, 0.98, 5.041, 38.207)" fill="#fff"/><rect width="1.019" height="4.411" transform="translate(4.273 31.806) rotate(-85.27)" fill="#fff"/><rect width="1.019" height="3.904" transform="translate(5.716 24.399) rotate(-68.65)" fill="#fff"/><rect width="1.019" height="4.035" transform="matrix(0.549, -0.836, 0.836, 0.549, 8.834, 17.768)" fill="#fff"/><rect width="1.019" height="4.593" transform="matrix(0.756, -0.655, 0.655, 0.756, 13.619, 11.861)" fill="#fff"/><rect width="1.019" height="4.331" transform="translate(20.056 7.442) rotate(-25.07)" fill="#fff"/><g transform="translate(81.054 12.759)"><g transform="translate(0 0)"><path d="M193.355,46.325a4.179,4.179,0,0,1-1.07-2.982v-.537a.235.235,0,0,1,.233-.233h1.142a.2.2,0,0,1,.233.233v.465a3.022,3.022,0,0,0,.63,1.992,1.994,1.994,0,0,0,1.493.753,2.275,2.275,0,0,0,1.683-.63,2.693,2.693,0,0,0,.732-2,2.8,2.8,0,0,0-.313-1.362,3.649,3.649,0,0,0-.816-1q-.5-.431-1.666-1.315c-.774-.575-1.387-1.066-1.84-1.48a4.966,4.966,0,0,1-1.1-1.48,4.47,4.47,0,0,1-.431-2.026,3.916,3.916,0,0,1,1.049-2.876,4.046,4.046,0,0,1,5.553.093A4.341,4.341,0,0,1,199.92,35v.584a.235.235,0,0,1-.233.233h-1.163a.235.235,0,0,1-.233-.233v-.6a3.064,3.064,0,0,0-.618-1.992,2.015,2.015,0,0,0-1.641-.757,1.977,1.977,0,0,0-1.535.664,2.67,2.67,0,0,0-.6,1.874,2.859,2.859,0,0,0,.266,1.269,3.455,3.455,0,0,0,.8,1.036q.533.489,1.582,1.282a25.387,25.387,0,0,1,2.085,1.666,4.8,4.8,0,0,1,1.057,1.4,4.08,4.08,0,0,1,.372,1.827,4.257,4.257,0,0,1-1.1,3.062,3.7,3.7,0,0,1-2.817,1.15,3.641,3.641,0,0,1-2.792-1.142Z" transform="translate(-191.998 -30.524)" fill="#fff"/><path d="M195.793,47.37a3.937,3.937,0,0,1-2.99-1.227h0a4.446,4.446,0,0,1-1.146-3.164v-.537a.5.5,0,0,1,.5-.5H193.3a.473.473,0,0,1,.5.5v.465a2.768,2.768,0,0,0,.567,1.819,1.732,1.732,0,0,0,1.3.656,1.955,1.955,0,0,0,1.476-.554,2.423,2.423,0,0,0,.656-1.806,2.532,2.532,0,0,0-.279-1.231,3.386,3.386,0,0,0-.753-.926c-.33-.283-.888-.723-1.654-1.307s-1.4-1.079-1.857-1.493a5.284,5.284,0,0,1-1.163-1.556,4.752,4.752,0,0,1-.461-2.144,4.2,4.2,0,0,1,1.125-3.066,4.311,4.311,0,0,1,5.943.1,4.632,4.632,0,0,1,1.129,3.244v.584a.5.5,0,0,1-.5.5H198.17a.5.5,0,0,1-.5-.5v-.6a2.788,2.788,0,0,0-.558-1.819,1.744,1.744,0,0,0-1.434-.656,1.706,1.706,0,0,0-1.337.575,2.439,2.439,0,0,0-.537,1.692,2.576,2.576,0,0,0,.241,1.15,3.127,3.127,0,0,0,.744.956c.351.321.876.744,1.565,1.265a24.86,24.86,0,0,1,2.106,1.683,5.157,5.157,0,0,1,1.117,1.476,4.387,4.387,0,0,1,.4,1.946,4.551,4.551,0,0,1-1.167,3.248,3.985,3.985,0,0,1-3.011,1.235Zm-3.633-4.889.038.5a3.929,3.929,0,0,0,1,2.8h0a3.368,3.368,0,0,0,2.6,1.057,3.428,3.428,0,0,0,2.622-1.07,4.016,4.016,0,0,0,1.019-2.876,3.81,3.81,0,0,0-.347-1.709,4.571,4.571,0,0,0-1-1.32,23.928,23.928,0,0,0-2.06-1.645c-.7-.533-1.243-.969-1.607-1.3a3.734,3.734,0,0,1-.863-1.117,3.142,3.142,0,0,1-.3-1.387,2.951,2.951,0,0,1,.677-2.056,2.249,2.249,0,0,1,1.734-.753,2.286,2.286,0,0,1,1.853.854,3.336,3.336,0,0,1,.677,2.161v.6l1.125-.038-.038-.546a4.113,4.113,0,0,0-.99-2.88,3.777,3.777,0,0,0-5.164-.089,3.668,3.668,0,0,0-.969,2.686,4.224,4.224,0,0,0,.4,1.9,4.756,4.756,0,0,0,1.045,1.4,22.636,22.636,0,0,0,1.819,1.459c.774.588,1.341,1.036,1.679,1.328a3.893,3.893,0,0,1,.876,1.074,3.043,3.043,0,0,1,.347,1.493,2.983,2.983,0,0,1-.812,2.187,2.49,2.49,0,0,1-1.886.711,2.266,2.266,0,0,1-1.688-.85,3.286,3.286,0,0,1-.689-2.161v-.427h-1.1Z" transform="translate(-191.64 -30.16)" fill="#fff"/></g><g transform="translate(10.261 0.19)"><path d="M217.635,46.5a4.723,4.723,0,0,1-1.1-3.261V31.483a.2.2,0,0,1,.233-.233h1.188a.2.2,0,0,1,.233.233V43.427a3.192,3.192,0,0,0,.639,2.072,2.062,2.062,0,0,0,1.688.791,2.133,2.133,0,0,0,1.721-.791,3.15,3.15,0,0,0,.651-2.072V31.483a.2.2,0,0,1,.233-.233h1.188a.2.2,0,0,1,.233.233V43.241a4.715,4.715,0,0,1-1.1,3.261,3.729,3.729,0,0,1-2.923,1.235,3.652,3.652,0,0,1-2.889-1.235Z" transform="translate(-216.269 -30.979)" fill="#fff"/><path d="M220.151,47.63a3.941,3.941,0,0,1-3.088-1.324,5.022,5.022,0,0,1-1.163-3.439V31.113a.473.473,0,0,1,.5-.5h1.188a.473.473,0,0,1,.5.5V43.058a2.953,2.953,0,0,0,.579,1.9,1.791,1.791,0,0,0,1.476.694,1.876,1.876,0,0,0,1.514-.694,2.89,2.89,0,0,0,.592-1.9V31.113a.473.473,0,0,1,.5-.5h1.189a.473.473,0,0,1,.5.5V42.871a4.967,4.967,0,0,1-1.176,3.439,4.006,4.006,0,0,1-3.121,1.324Zm-3.709-16.483v11.72a4.481,4.481,0,0,0,1.024,3.079h0a3.382,3.382,0,0,0,2.686,1.142,3.467,3.467,0,0,0,2.72-1.146,4.454,4.454,0,0,0,1.036-3.079V31.151h-1.112V43.058a3.424,3.424,0,0,1-.715,2.242,2.386,2.386,0,0,1-1.933.888,2.313,2.313,0,0,1-1.9-.892,3.465,3.465,0,0,1-.7-2.242v-11.9h-1.112Z" transform="translate(-215.9 -30.61)" fill="#fff"/></g><g transform="translate(21.152 0.19)"><path d="M249.039,31.25H250.2a.2.2,0,0,1,.233.233V47.314a.2.2,0,0,1-.233.233h-1.375a.261.261,0,0,1-.258-.186l-4.538-12.037c-.017-.047-.038-.068-.072-.059s-.047.034-.047.08l.021,11.965a.2.2,0,0,1-.233.233h-1.189a.2.2,0,0,1-.233-.233V31.483a.2.2,0,0,1,.233-.233h1.349a.265.265,0,0,1,.258.186l4.564,12.058c.017.047.038.068.068.059s.047-.034.047-.08V31.483a.2.2,0,0,1,.233-.233Z" transform="translate(-242.014 -30.979)" fill="#fff"/><path d="M249.838,47.444h-1.375a.52.52,0,0,1-.508-.364l-4.132-10.955.021,10.811a.473.473,0,0,1-.5.5h-1.189a.473.473,0,0,1-.5-.5V31.113a.473.473,0,0,1,.5-.5H243.5a.521.521,0,0,1,.508.36l4.158,10.988V31.113a.473.473,0,0,1,.5-.5h1.163a.473.473,0,0,1,.5.5V46.945a.473.473,0,0,1-.5.5Zm-7.647-.541H243.3l-.021-11.927a.337.337,0,0,1,.25-.343.331.331,0,0,1,.393.233l4.538,12.029,1.341.013V31.151h-1.087V43.1a.336.336,0,0,1-.254.343.328.328,0,0,1-.389-.237l-4.559-12.05-1.315-.013V46.9Zm6.382-3.883Zm-5.156-7.973Z" transform="translate(-241.65 -30.61)" fill="#fff"/></g><g transform="translate(31.912 0)"><path d="M268.825,46.325a4.179,4.179,0,0,1-1.07-2.982v-.537a.2.2,0,0,1,.233-.233h1.142a.2.2,0,0,1,.233.233v.465a3.022,3.022,0,0,0,.63,1.992,2.025,2.025,0,0,0,1.628.757,2.078,2.078,0,0,0,1.628-.723,2.733,2.733,0,0,0,.651-1.908,2.8,2.8,0,0,0-.313-1.362,3.649,3.649,0,0,0-.816-1q-.5-.431-1.662-1.315a23.268,23.268,0,0,1-1.84-1.48,5.052,5.052,0,0,1-1.108-1.48,4.47,4.47,0,0,1-.431-2.026,3.916,3.916,0,0,1,1.049-2.876,4.046,4.046,0,0,1,5.553.093A4.341,4.341,0,0,1,275.39,35v.584a.2.2,0,0,1-.233.233h-1.163a.2.2,0,0,1-.233-.233v-.6a3.064,3.064,0,0,0-.617-1.992,2,2,0,0,0-1.641-.757,1.977,1.977,0,0,0-1.535.664,2.67,2.67,0,0,0-.6,1.874,2.859,2.859,0,0,0,.266,1.269,3.455,3.455,0,0,0,.8,1.036q.533.489,1.582,1.282a25.381,25.381,0,0,1,2.085,1.666,4.8,4.8,0,0,1,1.057,1.4,4.08,4.08,0,0,1,.372,1.827,4.257,4.257,0,0,1-1.1,3.062,3.7,3.7,0,0,1-2.817,1.15,3.641,3.641,0,0,1-2.792-1.142Z" transform="translate(-267.459 -30.524)" fill="#fff"/><path d="M271.248,47.37a3.937,3.937,0,0,1-2.99-1.227h0a4.446,4.446,0,0,1-1.146-3.164v-.537a.473.473,0,0,1,.5-.5h1.142a.473.473,0,0,1,.5.5v.465a2.768,2.768,0,0,0,.567,1.819,1.745,1.745,0,0,0,1.421.66,1.813,1.813,0,0,0,1.43-.634,2.5,2.5,0,0,0,.584-1.73,2.532,2.532,0,0,0-.279-1.231,3.385,3.385,0,0,0-.753-.926c-.33-.283-.888-.723-1.654-1.307a23.726,23.726,0,0,1-1.857-1.493,5.371,5.371,0,0,1-1.167-1.556,4.752,4.752,0,0,1-.461-2.144,4.2,4.2,0,0,1,1.125-3.066,4.311,4.311,0,0,1,5.943.1,4.632,4.632,0,0,1,1.129,3.244v.584a.473.473,0,0,1-.5.5H273.62a.473.473,0,0,1-.5-.5v-.6a2.788,2.788,0,0,0-.558-1.819,1.732,1.732,0,0,0-1.434-.656,1.706,1.706,0,0,0-1.337.575,2.439,2.439,0,0,0-.537,1.692,2.589,2.589,0,0,0,.241,1.15,3.23,3.23,0,0,0,.744.956c.347.317.876.744,1.565,1.265a24.035,24.035,0,0,1,2.106,1.683,5.157,5.157,0,0,1,1.117,1.476,4.387,4.387,0,0,1,.4,1.946,4.551,4.551,0,0,1-1.167,3.248,3.985,3.985,0,0,1-3.011,1.235Zm-3.6-4.889v.5a3.928,3.928,0,0,0,1,2.8h0a3.368,3.368,0,0,0,2.6,1.057,3.428,3.428,0,0,0,2.622-1.07,4.023,4.023,0,0,0,1.019-2.876,3.811,3.811,0,0,0-.347-1.709,4.571,4.571,0,0,0-1-1.32,23.934,23.934,0,0,0-2.06-1.645c-.706-.533-1.243-.969-1.607-1.3a3.734,3.734,0,0,1-.863-1.117,3.155,3.155,0,0,1-.3-1.387,2.952,2.952,0,0,1,.677-2.056,2.4,2.4,0,0,1,3.582.1,3.336,3.336,0,0,1,.677,2.161v.567h1.091v-.546a4.111,4.111,0,0,0-.985-2.88,3.777,3.777,0,0,0-5.164-.089,3.668,3.668,0,0,0-.969,2.686,4.225,4.225,0,0,0,.4,1.9,4.757,4.757,0,0,0,1.045,1.4,22.636,22.636,0,0,0,1.819,1.459c.774.592,1.341,1.036,1.679,1.328a3.894,3.894,0,0,1,.876,1.074,3.043,3.043,0,0,1,.347,1.493,2.99,2.99,0,0,1-.723,2.089,2.376,2.376,0,0,1-1.831.812,2.305,2.305,0,0,1-1.836-.854,3.286,3.286,0,0,1-.689-2.161v-.427h-1.066Z" transform="translate(-267.09 -30.16)" fill="#fff"/></g><g transform="translate(42.317 0.19)"><path d="M298.547,31.25h1.188a.2.2,0,0,1,.233.233V47.314a.2.2,0,0,1-.233.233h-1.188a.2.2,0,0,1-.233-.233v-7.1a.081.081,0,0,0-.093-.093h-4.145a.081.081,0,0,0-.093.093v7.1a.2.2,0,0,1-.233.233h-1.189a.2.2,0,0,1-.233-.233V31.483a.2.2,0,0,1,.233-.233h1.189a.2.2,0,0,1,.233.233v7.076a.081.081,0,0,0,.093.093h4.145a.081.081,0,0,0,.093-.093V31.483A.2.2,0,0,1,298.547,31.25Z" transform="translate(-292.059 -30.979)" fill="#fff"/><path d="M299.367,47.444h-1.189a.473.473,0,0,1-.5-.5V40.017h-3.79V46.94a.473.473,0,0,1-.5.5h-1.189a.473.473,0,0,1-.5-.5V31.113a.473.473,0,0,1,.5-.5h1.189a.473.473,0,0,1,.5.5v6.9h3.79v-6.9a.473.473,0,0,1,.5-.5h1.189a.473.473,0,0,1,.5.5V46.945a.473.473,0,0,1-.5.5Zm-7.135-.541h1.112V39.839a.351.351,0,0,1,.364-.364h4.145a.351.351,0,0,1,.364.364V46.9h1.112V31.151h-1.112v7.038a.351.351,0,0,1-.364.364h-4.145a.351.351,0,0,1-.364-.364V31.151h-1.112V46.906Z" transform="translate(-291.69 -30.61)" fill="#fff"/></g><g transform="translate(53.305 0.19)"><path d="M318.31,47.31V31.483a.2.2,0,0,1,.233-.233h1.188a.2.2,0,0,1,.233.233V47.314a.2.2,0,0,1-.233.233h-1.188a.2.2,0,0,1-.233-.233Z" transform="translate(-318.039 -30.979)" fill="#fff"/><path d="M319.362,47.444h-1.189a.473.473,0,0,1-.5-.5V31.113a.473.473,0,0,1,.5-.5h1.189a.473.473,0,0,1,.5.5V46.945a.473.473,0,0,1-.5.5Zm-1.15-.541h1.112V31.151h-1.112V46.906Z" transform="translate(-317.67 -30.61)" fill="#fff"/></g><g transform="translate(58.309 0.19)"><path d="M336.889,31.25h1.163a.2.2,0,0,1,.233.233V47.314a.2.2,0,0,1-.233.233h-1.375a.258.258,0,0,1-.258-.186l-4.538-12.037c-.017-.047-.038-.068-.072-.059s-.047.034-.047.08l.021,11.965a.2.2,0,0,1-.233.233h-1.188a.2.2,0,0,1-.233-.233V31.483a.2.2,0,0,1,.233-.233h1.349a.261.261,0,0,1,.258.186l4.564,12.058c.017.047.038.068.072.059s.047-.034.047-.08V31.483a.2.2,0,0,1,.233-.233Z" transform="translate(-329.864 -30.979)" fill="#fff"/><path d="M337.688,47.444h-1.375a.521.521,0,0,1-.508-.36L331.674,36.13,331.7,46.94a.473.473,0,0,1-.5.5H330a.473.473,0,0,1-.5-.5V31.113a.473.473,0,0,1,.5-.5h1.349a.521.521,0,0,1,.508.36l4.158,10.988V31.113a.473.473,0,0,1,.5-.5h1.163a.473.473,0,0,1,.5.5V46.945a.473.473,0,0,1-.5.5Zm-7.647-.541h1.112l-.021-11.927a.337.337,0,0,1,.25-.343.331.331,0,0,1,.393.233l4.538,12.029,1.341.013V31.151h-1.087V43.1a.336.336,0,0,1-.254.343.328.328,0,0,1-.389-.237l-4.559-12.05-1.315-.013V46.9Zm6.378-3.883Zm-5.156-7.973Z" transform="translate(-329.5 -30.61)" fill="#fff"/></g><g transform="translate(69.788 0.19)"><path d="M364.428,32.692h-5.4a.081.081,0,0,0-.093.093v5.773a.081.081,0,0,0,.093.093h3.4a.2.2,0,0,1,.233.233v1a.2.2,0,0,1-.233.233h-3.4a.081.081,0,0,0-.093.093v5.8a.081.081,0,0,0,.093.093h5.4a.2.2,0,0,1,.233.233v.977a.2.2,0,0,1-.233.233h-6.915a.2.2,0,0,1-.233-.233V31.483a.2.2,0,0,1,.233-.233h6.915a.2.2,0,0,1,.233.233v.977A.2.2,0,0,1,364.428,32.692Z" transform="translate(-357.009 -30.979)" fill="#fff"/><path d="M364.059,47.444h-6.915a.473.473,0,0,1-.5-.5V31.113a.473.473,0,0,1,.5-.5h6.915a.473.473,0,0,1,.5.5v.977a.473.473,0,0,1-.5.5h-5.224v5.422h3.223a.473.473,0,0,1,.5.5v1a.473.473,0,0,1-.5.5h-3.223v5.443h5.224a.473.473,0,0,1,.5.5v.977a.473.473,0,0,1-.5.5Zm-6.877-.541h6.839V46h-5.363a.351.351,0,0,1-.364-.364v-5.8a.351.351,0,0,1,.364-.364h3.362v-.926h-3.362a.351.351,0,0,1-.364-.364V32.412a.351.351,0,0,1,.364-.364h5.363v-.9h-6.839Z" transform="translate(-356.64 -30.61)" fill="#fff"/></g><g transform="translate(84.037 0)"><path d="M392.078,46.352A4.025,4.025,0,0,1,390.97,43.4V34.873a4.008,4.008,0,0,1,1.108-2.956,3.9,3.9,0,0,1,2.9-1.117,3.837,3.837,0,0,1,4.052,4.073V43.4a4.006,4.006,0,0,1-1.117,2.944,3.942,3.942,0,0,1-2.935,1.129A3.865,3.865,0,0,1,392.078,46.352Zm4.631-1.036a2.563,2.563,0,0,0,.664-1.827V34.805a2.6,2.6,0,0,0-.664-1.853,2.264,2.264,0,0,0-1.734-.711,2.178,2.178,0,0,0-1.7.711,2.628,2.628,0,0,0-.651,1.853v8.683a2.592,2.592,0,0,0,.651,1.827,2.2,2.2,0,0,0,1.7.711A2.289,2.289,0,0,0,396.71,45.316Z" transform="translate(-390.699 -30.529)" fill="#fff"/><path d="M394.606,47.37a4.175,4.175,0,0,1-3.092-1.2,4.3,4.3,0,0,1-1.184-3.147V34.5a4.3,4.3,0,0,1,1.184-3.147,4.175,4.175,0,0,1,3.092-1.2,4.109,4.109,0,0,1,4.323,4.344v8.523a4.274,4.274,0,0,1-1.2,3.134,4.216,4.216,0,0,1-3.126,1.21Zm0-16.669a3.608,3.608,0,0,0-2.707,1.036,3.782,3.782,0,0,0-1.028,2.766v8.523a3.782,3.782,0,0,0,1.028,2.766h0a3.608,3.608,0,0,0,2.707,1.036,3.675,3.675,0,0,0,2.741-1.049,3.722,3.722,0,0,0,1.04-2.758V34.5a3.565,3.565,0,0,0-3.781-3.8Zm0,15.226a2.46,2.46,0,0,1-1.9-.8,2.877,2.877,0,0,1-.723-2.009V34.436a2.9,2.9,0,0,1,.723-2.034,2.471,2.471,0,0,1,1.9-.8,2.557,2.557,0,0,1,1.933.8,2.889,2.889,0,0,1,.736,2.034v8.683a2.858,2.858,0,0,1-.736,2.013A2.532,2.532,0,0,1,394.606,45.928Zm0-13.78a1.926,1.926,0,0,0-1.5.622,2.36,2.36,0,0,0-.579,1.666v8.683a2.327,2.327,0,0,0,.579,1.645,1.926,1.926,0,0,0,1.5.622,1.994,1.994,0,0,0,1.535-.626,2.3,2.3,0,0,0,.592-1.645V34.432a2.329,2.329,0,0,0-.592-1.666,1.993,1.993,0,0,0-1.535-.622Z" transform="translate(-390.33 -30.16)" fill="#fff"/></g><g transform="translate(95.046 0.19)"><path d="M423.249,47.356l-2.373-7.194a.094.094,0,0,0-.093-.072h-2.026a.081.081,0,0,0-.093.093v7.123a.2.2,0,0,1-.233.233h-1.189a.2.2,0,0,1-.233-.233V31.483a.2.2,0,0,1,.233-.233h3.84a3.418,3.418,0,0,1,2.749,1.248,4.874,4.874,0,0,1,1.049,3.248,5,5,0,0,1-.651,2.61,3.518,3.518,0,0,1-1.768,1.535.088.088,0,0,0-.072.118l2.538,7.288.025.093c0,.11-.072.161-.211.161h-1.21a.273.273,0,0,1-.279-.186Zm-4.585-14.575v5.892a.081.081,0,0,0,.093.093h2.094a2.072,2.072,0,0,0,1.721-.829,3.447,3.447,0,0,0,.651-2.2,3.5,3.5,0,0,0-.651-2.212,2.08,2.08,0,0,0-1.721-.837h-2.094a.081.081,0,0,0-.093.093Z" transform="translate(-416.735 -30.979)" fill="#fff"/><path d="M424.362,47.444h-1.21a.537.537,0,0,1-.533-.364v-.008l-2.339-7.08h-1.726V46.94a.473.473,0,0,1-.5.5h-1.189a.473.473,0,0,1-.5-.5V31.113a.473.473,0,0,1,.5-.5h3.84a3.694,3.694,0,0,1,2.952,1.341,5.16,5.16,0,0,1,1.112,3.422,5.3,5.3,0,0,1-.689,2.745,3.845,3.845,0,0,1-1.759,1.59l2.521,7.3a.431.431,0,0,1-.478.431Zm-1.235-.546,0,.013h1.125l-2.5-7.19a.358.358,0,0,1,.258-.465,3.305,3.305,0,0,0,1.6-1.413,4.777,4.777,0,0,0,.613-2.47,4.627,4.627,0,0,0-.985-3.075,3.132,3.132,0,0,0-2.542-1.15h-3.8V46.9h1.112V39.818a.351.351,0,0,1,.364-.364H420.4a.362.362,0,0,1,.351.258l2.373,7.186Zm-2.885-7.017Zm1.954-.118h0Zm-1.721-1.091h-2.094a.351.351,0,0,1-.364-.364V32.416a.351.351,0,0,1,.364-.364h2.094a2.342,2.342,0,0,1,1.937.943,3.784,3.784,0,0,1,.711,2.377,3.717,3.717,0,0,1-.711,2.369,2.352,2.352,0,0,1-1.933.931Zm-1.92-.541h1.92a1.812,1.812,0,0,0,1.51-.723,3.8,3.8,0,0,0,0-4.082,1.8,1.8,0,0,0-1.51-.732h-1.92V38.13Z" transform="translate(-416.36 -30.61)" fill="#fff"/></g><g transform="translate(104.99 0)"><path d="M441.58,46.411a3.8,3.8,0,0,1-1.07-2.83V34.687a3.8,3.8,0,0,1,1.07-2.83,4.4,4.4,0,0,1,5.74.013,3.813,3.813,0,0,1,1.083,2.838v1a.2.2,0,0,1-.233.233h-1.189a.2.2,0,0,1-.233-.233V34.662a2.464,2.464,0,0,0-.63-1.759,2.192,2.192,0,0,0-1.675-.664,2.165,2.165,0,0,0-1.666.677,2.429,2.429,0,0,0-.639,1.747V43.6a2.436,2.436,0,0,0,.639,1.747,2.417,2.417,0,0,0,3.341.013,2.457,2.457,0,0,0,.63-1.759V40.621a.081.081,0,0,0-.093-.093h-2a.2.2,0,0,1-.233-.233v-.977a.2.2,0,0,1,.233-.233h3.515a.2.2,0,0,1,.233.233v4.259a3.773,3.773,0,0,1-1.083,2.83,3.937,3.937,0,0,1-2.876,1.062,3.876,3.876,0,0,1-2.863-1.062Z" transform="translate(-440.239 -30.529)" fill="#fff"/><path d="M444.074,47.37a4.174,4.174,0,0,1-3.054-1.138h0a4.065,4.065,0,0,1-1.15-3.02V34.318a4.088,4.088,0,0,1,1.15-3.02,4.664,4.664,0,0,1,6.12.013,4.1,4.1,0,0,1,1.163,3.033v1a.473.473,0,0,1-.5.5h-1.189a.473.473,0,0,1-.5-.5V34.3a2.179,2.179,0,0,0-.554-1.573,1.928,1.928,0,0,0-1.48-.579,1.891,1.891,0,0,0-1.468.592,2.16,2.16,0,0,0-.567,1.561v8.941a2.16,2.16,0,0,0,.567,1.561,1.916,1.916,0,0,0,1.468.592,1.953,1.953,0,0,0,1.48-.579,2.179,2.179,0,0,0,.554-1.573v-2.8h-1.827a.473.473,0,0,1-.5-.5v-.977a.473.473,0,0,1,.5-.5H447.8a.473.473,0,0,1,.5.5v4.259a4.057,4.057,0,0,1-1.163,3.02A4.215,4.215,0,0,1,444.074,47.37Zm0-16.669a3.643,3.643,0,0,0-2.673.981,3.5,3.5,0,0,0-.99,2.635v8.895a3.514,3.514,0,0,0,.99,2.635h0a3.6,3.6,0,0,0,2.673.981,3.661,3.661,0,0,0,2.686-.981,3.5,3.5,0,0,0,1-2.635V38.991h-3.439v.9h1.963a.351.351,0,0,1,.364.364v2.982a2.715,2.715,0,0,1-.7,1.941,2.472,2.472,0,0,1-1.869.749,2.43,2.43,0,0,1-1.861-.761,2.708,2.708,0,0,1-.715-1.933V34.292a2.708,2.708,0,0,1,.715-1.933,2.687,2.687,0,0,1,3.735-.013,2.722,2.722,0,0,1,.7,1.941V35.3h1.112v-.964a3.516,3.516,0,0,0-1-2.648,3.667,3.667,0,0,0-2.686-.994Z" transform="translate(-439.87 -30.16)" fill="#fff"/></g><g transform="translate(114.388 0.186)"><path d="M470,47.329l-.584-2.889a.09.09,0,0,0-.034-.072.128.128,0,0,0-.08-.021h-4.213a.162.162,0,0,0-.08.021.085.085,0,0,0-.034.072l-.584,2.889a.225.225,0,0,1-.258.211h-1.188a.2.2,0,0,1-.173-.072.211.211,0,0,1-.034-.186l3.494-15.831a.242.242,0,0,1,.258-.211h1.4a.225.225,0,0,1,.258.211l3.54,15.831v.047a.185.185,0,0,1-.207.211h-1.21a.245.245,0,0,1-.258-.211ZM465.345,43h3.68c.047,0,.072-.03.072-.093l-1.861-9.149c-.017-.047-.03-.072-.047-.072s-.03.025-.047.072l-1.861,9.149c0,.063.021.093.068.093Z" transform="translate(-462.46 -30.969)" fill="#fff"/><path d="M471.1,47.438h-1.21a.507.507,0,0,1-.52-.419l-.558-2.77h-3.972l-.554,2.762a.484.484,0,0,1-.52.427h-1.188a.479.479,0,0,1-.385-.169.462.462,0,0,1-.089-.41L465.6,31.023a.511.511,0,0,1,.52-.423h1.4a.489.489,0,0,1,.524.448l3.54,15.861a.467.467,0,0,1-.478.524Zm-4.982-16.3-3.472,15.78,1.117-.025.579-2.88a.319.319,0,0,1,.148-.241.43.43,0,0,1,.233-.072h4.213a.392.392,0,0,1,.228.068.345.345,0,0,1,.156.3l.575,2.83,0,.017,1.129-.021L467.5,31.137h-1.392Zm2.669,12.98v0Zm-3.917-.055-.013.063A.318.318,0,0,0,464.868,44.067Zm3.781-1.176h-3.68a.338.338,0,0,1-.338-.364v-.055l1.87-9.149c.08-.254.228-.288.309-.288a.314.314,0,0,1,.3.254l1.878,9.237A.34.34,0,0,1,468.649,42.891Zm-3.439-.541H468.4l-1.6-7.85-1.6,7.85Z" transform="translate(-462.089 -30.6)" fill="#fff"/></g><g transform="translate(125.309 0.19)"><path d="M495.3,31.25h1.163a.2.2,0,0,1,.233.233V47.314a.2.2,0,0,1-.233.233h-1.375a.258.258,0,0,1-.258-.186l-4.538-12.037c-.017-.047-.038-.068-.072-.059s-.047.034-.047.08l.021,11.965a.2.2,0,0,1-.233.233h-1.188a.2.2,0,0,1-.233-.233V31.483a.2.2,0,0,1,.233-.233h1.349a.261.261,0,0,1,.258.186l4.564,12.058c.017.047.038.068.072.059s.047-.034.047-.08V31.483a.2.2,0,0,1,.233-.233Z" transform="translate(-488.274 -30.979)" fill="#fff"/><path d="M496.1,47.444h-1.375a.521.521,0,0,1-.508-.36L490.084,36.13l.021,10.811a.473.473,0,0,1-.5.5h-1.189a.473.473,0,0,1-.5-.5V31.113a.473.473,0,0,1,.5-.5h1.349a.521.521,0,0,1,.508.36l4.158,10.988V31.113a.473.473,0,0,1,.5-.5h1.163a.473.473,0,0,1,.5.5V46.945a.473.473,0,0,1-.5.5Zm-7.647-.541h1.112l-.021-11.927a.337.337,0,0,1,.25-.343.331.331,0,0,1,.393.233l4.538,12.029,1.341.013V31.151h-1.087V43.1a.336.336,0,0,1-.254.343.328.328,0,0,1-.389-.237l-4.559-12.05-1.315-.013V46.9Zm6.378-3.883Zm-5.156-7.973Z" transform="translate(-487.91 -30.61)" fill="#fff"/></g><g transform="translate(136.788 0.19)"><path d="M515.7,47.31V31.483a.2.2,0,0,1,.233-.233h1.189a.2.2,0,0,1,.233.233V47.314a.2.2,0,0,1-.233.233h-1.189a.2.2,0,0,1-.233-.233Z" transform="translate(-515.425 -30.979)" fill="#fff"/><path d="M516.742,47.444h-1.189a.473.473,0,0,1-.5-.5V31.113a.473.473,0,0,1,.5-.5h1.189a.473.473,0,0,1,.5.5V46.945a.473.473,0,0,1-.5.5Zm-1.15-.541H516.7V31.151h-1.112V46.906Z" transform="translate(-515.05 -30.61)" fill="#fff"/></g><g transform="translate(141.402)"><path d="M527.683,46.383a3.979,3.979,0,0,1-1.083-2.931V34.815a3.955,3.955,0,0,1,1.083-2.91,3.873,3.873,0,0,1,2.876-1.1,3.731,3.731,0,0,1,3.98,4.005v.4a.2.2,0,0,1-.233.233l-1.21.068a.2.2,0,0,1-.233-.233V34.7a2.492,2.492,0,0,0-.63-1.768,2.4,2.4,0,0,0-3.341,0,2.46,2.46,0,0,0-.639,1.768v8.895a2.46,2.46,0,0,0,.639,1.768,2.4,2.4,0,0,0,3.341,0,2.492,2.492,0,0,0,.63-1.768v-.584a.2.2,0,0,1,.233-.233l1.21.068a.2.2,0,0,1,.233.233v.372a3.768,3.768,0,0,1-3.984,4.027,3.857,3.857,0,0,1-2.876-1.1Z" transform="translate(-526.329 -30.535)" fill="#fff"/><path d="M530.185,47.37a4.124,4.124,0,0,1-3.066-1.176h0a4.26,4.26,0,0,1-1.159-3.121V34.436a4.237,4.237,0,0,1,1.159-3.1,4.141,4.141,0,0,1,3.066-1.176,4,4,0,0,1,4.251,4.276v.4a.473.473,0,0,1-.5.5l-1.193.068h0a.474.474,0,0,1-.516-.5v-.584a2.208,2.208,0,0,0-.558-1.586,2.136,2.136,0,0,0-2.948,0,2.185,2.185,0,0,0-.567,1.582v8.895a2.178,2.178,0,0,0,.567,1.582,1.916,1.916,0,0,0,1.468.592,1.949,1.949,0,0,0,1.48-.588,2.208,2.208,0,0,0,.558-1.586v-.584a.473.473,0,0,1,.5-.5l1.227.072h0a.469.469,0,0,1,.486.5v.372a4.244,4.244,0,0,1-1.172,3.126,4.181,4.181,0,0,1-3.079,1.172Zm0-16.669a3.558,3.558,0,0,0-2.682,1.015,3.668,3.668,0,0,0-1.007,2.72v8.637a3.749,3.749,0,0,0,1.007,2.745h0a3.58,3.58,0,0,0,2.682,1.015,3.616,3.616,0,0,0,2.694-1.015,3.72,3.72,0,0,0,1.015-2.741v-.338l-1.133-.063v.541a2.767,2.767,0,0,1-.7,1.954,2.453,2.453,0,0,1-1.874.761,2.423,2.423,0,0,1-1.861-.761,2.731,2.731,0,0,1-.715-1.954V34.322a2.731,2.731,0,0,1,.715-1.954,2.671,2.671,0,0,1,3.735,0,2.76,2.76,0,0,1,.7,1.954v.541l1.133-.063v-.36a3.72,3.72,0,0,0-1-2.732,3.679,3.679,0,0,0-2.707-1Z" transform="translate(-525.96 -30.16)" fill="#fff"/></g><g transform="translate(0.321 23.707)"><path d="M194.113,102.433A3.979,3.979,0,0,1,193.03,99.5V90.865a3.955,3.955,0,0,1,1.083-2.91,3.873,3.873,0,0,1,2.876-1.1,3.731,3.731,0,0,1,3.98,4.005v.4a.2.2,0,0,1-.233.233l-1.21.068a.2.2,0,0,1-.233-.233v-.584a2.473,2.473,0,0,0-.63-1.768,2.4,2.4,0,0,0-3.341,0,2.46,2.46,0,0,0-.639,1.768v8.895a2.46,2.46,0,0,0,.639,1.768,2.4,2.4,0,0,0,3.341,0,2.492,2.492,0,0,0,.63-1.768v-.584a.2.2,0,0,1,.233-.233l1.21.068a.2.2,0,0,1,.233.233V99.5a3.947,3.947,0,0,1-1.1,2.931,3.9,3.9,0,0,1-2.889,1.1,3.857,3.857,0,0,1-2.876-1.1Z" transform="translate(-192.764 -86.585)" fill="#fff"/><path d="M196.625,103.42a4.124,4.124,0,0,1-3.066-1.176h0a4.26,4.26,0,0,1-1.159-3.121V90.486a4.237,4.237,0,0,1,1.159-3.1,4.141,4.141,0,0,1,3.066-1.176h0a4.179,4.179,0,0,1,3.088,1.163,4.229,4.229,0,0,1,1.163,3.113v.4a.473.473,0,0,1-.5.5l-1.2.068h0a.474.474,0,0,1-.516-.5v-.584a2.225,2.225,0,0,0-.554-1.586,2.136,2.136,0,0,0-2.948,0,2.192,2.192,0,0,0-.567,1.582v8.895a2.185,2.185,0,0,0,.567,1.582,1.916,1.916,0,0,0,1.468.592,1.95,1.95,0,0,0,1.48-.588,2.209,2.209,0,0,0,.558-1.586v-.584a.473.473,0,0,1,.5-.5l1.227.072h0a.469.469,0,0,1,.486.5v.372a4.244,4.244,0,0,1-1.172,3.126,4.181,4.181,0,0,1-3.079,1.172Zm0-16.669a3.558,3.558,0,0,0-2.682,1.015,3.715,3.715,0,0,0-1.007,2.72v8.637a3.749,3.749,0,0,0,1.007,2.745h0a3.58,3.58,0,0,0,2.682,1.015,3.616,3.616,0,0,0,2.694-1.015,3.7,3.7,0,0,0,1.015-2.741v-.338l-1.138-.063v.541a2.767,2.767,0,0,1-.7,1.954,2.453,2.453,0,0,1-1.874.761,2.423,2.423,0,0,1-1.861-.761,2.731,2.731,0,0,1-.715-1.954V90.372a2.738,2.738,0,0,1,.715-1.954,2.671,2.671,0,0,1,3.735,0,2.76,2.76,0,0,1,.7,1.954v.541l1.138-.063v-.36a3.72,3.72,0,0,0-1-2.732,3.679,3.679,0,0,0-2.707-1Z" transform="translate(-192.4 -86.21)" fill="#fff"/></g><g transform="translate(11.098 23.893)"><path d="M218.52,103.364V87.533a.2.2,0,0,1,.233-.233h1.189a.2.2,0,0,1,.233.233v14.528a.081.081,0,0,0,.093.093H225.6a.2.2,0,0,1,.233.233v.977a.2.2,0,0,1-.233.233h-6.843A.2.2,0,0,1,218.52,103.364Z" transform="translate(-218.249 -87.025)" fill="#fff"/><path d="M225.227,103.488h-6.843a.473.473,0,0,1-.5-.5V87.153a.473.473,0,0,1,.5-.5h1.189a.473.473,0,0,1,.5.5V101.5h5.156a.473.473,0,0,1,.5.5v.977a.473.473,0,0,1-.5.5Zm-6.81-.541h6.772v-.9H219.9a.351.351,0,0,1-.364-.364V87.191h-1.112v15.755Z" transform="translate(-217.88 -86.65)" fill="#fff"/></g><g transform="translate(20.319 23.893)"><path d="M247.468,88.742h-5.4a.081.081,0,0,0-.093.093v5.773a.081.081,0,0,0,.093.093h3.4a.2.2,0,0,1,.233.233v1a.2.2,0,0,1-.233.233h-3.4a.081.081,0,0,0-.093.093v5.8a.081.081,0,0,0,.093.093h5.4a.2.2,0,0,1,.233.233v.977a.2.2,0,0,1-.233.233h-6.915a.2.2,0,0,1-.233-.233V87.533a.2.2,0,0,1,.233-.233h6.915a.2.2,0,0,1,.233.233v.977a.2.2,0,0,1-.233.233Z" transform="translate(-240.049 -87.025)" fill="#fff"/><path d="M247.1,103.488h-6.915a.473.473,0,0,1-.5-.5V87.153a.473.473,0,0,1,.5-.5H247.1a.473.473,0,0,1,.5.5v.977a.473.473,0,0,1-.5.5h-5.224v5.422H245.1a.473.473,0,0,1,.5.5v1a.473.473,0,0,1-.5.5h-3.223v5.443H247.1a.473.473,0,0,1,.5.5v.977a.473.473,0,0,1-.5.5Zm-6.877-.541h6.839v-.9H241.7a.351.351,0,0,1-.364-.364v-5.8a.351.351,0,0,1,.364-.364h3.362v-.926H241.7a.351.351,0,0,1-.364-.364V88.456a.351.351,0,0,1,.364-.364h5.363v-.905h-6.839v15.755Z" transform="translate(-239.68 -86.65)" fill="#fff"/></g><g transform="translate(29.484 23.893)"><path d="M269.262,103.379l-.584-2.889a.09.09,0,0,0-.034-.072.128.128,0,0,0-.08-.021h-4.213a.162.162,0,0,0-.08.021.075.075,0,0,0-.034.072l-.584,2.889a.225.225,0,0,1-.258.211h-1.189a.2.2,0,0,1-.173-.072.211.211,0,0,1-.034-.186L265.494,87.5a.242.242,0,0,1,.258-.211h1.4a.225.225,0,0,1,.258.211l3.54,15.831v.047a.186.186,0,0,1-.212.211h-1.21a.245.245,0,0,1-.258-.211Zm-4.657-4.331h3.68c.047,0,.072-.03.072-.093L266.5,89.807c-.017-.047-.03-.072-.046-.072s-.03.025-.047.072l-1.861,9.149c0,.063.025.093.072.093Z" transform="translate(-261.72 -87.019)" fill="#fff"/><path d="M270.358,103.488h-1.21a.507.507,0,0,1-.52-.423h0l-.558-2.766H264.1l-.554,2.762a.481.481,0,0,1-.52.427h-1.189a.479.479,0,0,1-.385-.169.462.462,0,0,1-.089-.41l3.494-15.835a.507.507,0,0,1,.52-.423h1.4a.489.489,0,0,1,.524.448l3.54,15.861a.467.467,0,0,1-.478.524Zm-4.982-16.3L261.9,102.976l1.117-.025.579-2.88a.319.319,0,0,1,.148-.241.405.405,0,0,1,.233-.068h4.213a.392.392,0,0,1,.228.068.345.345,0,0,1,.156.3l.575,2.83,0,.017,1.129-.021L266.763,87.2h-1.392Zm2.669,12.98v0Zm-3.917-.055-.013.063A.317.317,0,0,0,264.128,100.117Zm3.781-1.176h-3.68a.338.338,0,0,1-.338-.364v-.055l1.869-9.149c.085-.254.228-.288.309-.288a.321.321,0,0,1,.3.254l1.878,9.237a.34.34,0,0,1-.338.364Zm-3.439-.541h3.2l-1.6-7.854Z" transform="translate(-261.349 -86.65)" fill="#fff"/></g><g transform="translate(40.405 23.893)"><path d="M294.559,87.294h1.163a.2.2,0,0,1,.233.233v15.831a.2.2,0,0,1-.233.233h-1.375a.258.258,0,0,1-.258-.186l-4.538-12.037c-.017-.047-.038-.068-.072-.059s-.047.034-.047.08l.021,11.965a.2.2,0,0,1-.233.233h-1.188a.2.2,0,0,1-.233-.233V87.523a.2.2,0,0,1,.233-.233h1.349a.261.261,0,0,1,.258.186L294.2,99.535c.017.047.038.068.072.059s.047-.034.047-.08V87.523a.2.2,0,0,1,.233-.233Z" transform="translate(-287.534 -87.019)" fill="#fff"/><path d="M295.358,103.488h-1.375a.521.521,0,0,1-.508-.36l-4.132-10.955.021,10.811a.473.473,0,0,1-.5.5h-1.189a.473.473,0,0,1-.5-.5V87.153a.473.473,0,0,1,.5-.5h1.349a.521.521,0,0,1,.508.36L293.688,98V87.153a.473.473,0,0,1,.5-.5h1.163a.473.473,0,0,1,.5.5v15.831a.473.473,0,0,1-.5.5Zm-7.647-.541h1.112L288.8,91.019a.337.337,0,0,1,.25-.343.331.331,0,0,1,.393.233l4.538,12.029,1.341.013V87.2h-1.087V99.148a.336.336,0,0,1-.254.343.328.328,0,0,1-.389-.237L289.035,87.2l-1.315-.013v15.755Zm6.378-3.883Zm-5.156-7.973Z" transform="translate(-287.17 -86.65)" fill="#fff"/></g><g transform="translate(51.884 23.893)"><path d="M322.1,88.742h-5.4a.081.081,0,0,0-.093.093v5.773a.081.081,0,0,0,.093.093h3.4a.2.2,0,0,1,.233.233v1a.2.2,0,0,1-.233.233h-3.4a.081.081,0,0,0-.093.093v5.8a.081.081,0,0,0,.093.093h5.4a.2.2,0,0,1,.233.233v.977a.2.2,0,0,1-.233.233h-6.915a.2.2,0,0,1-.233-.233V87.533a.2.2,0,0,1,.233-.233H322.1a.2.2,0,0,1,.233.233v.977a.2.2,0,0,1-.233.233Z" transform="translate(-314.679 -87.025)" fill="#fff"/><path d="M321.729,103.488h-6.915a.473.473,0,0,1-.5-.5V87.153a.473.473,0,0,1,.5-.5h6.915a.473.473,0,0,1,.5.5v.977a.473.473,0,0,1-.5.5h-5.223v5.422h3.223a.473.473,0,0,1,.5.5v1a.473.473,0,0,1-.5.5h-3.223v5.443h5.223a.473.473,0,0,1,.5.5v.977a.473.473,0,0,1-.5.5Zm-6.877-.541h6.839v-.9h-5.363a.351.351,0,0,1-.364-.364v-5.8a.351.351,0,0,1,.364-.364h3.362v-.926h-3.362a.351.351,0,0,1-.364-.364V88.456a.351.351,0,0,1,.364-.364h5.363v-.905h-6.839v15.755Z" transform="translate(-314.31 -86.65)" fill="#fff"/></g><g transform="translate(61.87 23.893)"><path d="M344.809,103.4l-2.373-7.194a.094.094,0,0,0-.093-.072h-2.026a.081.081,0,0,0-.093.093v7.123a.2.2,0,0,1-.233.233H338.8a.2.2,0,0,1-.233-.233V87.523a.2.2,0,0,1,.233-.233h3.84a3.418,3.418,0,0,1,2.749,1.248,4.874,4.874,0,0,1,1.049,3.248,5,5,0,0,1-.651,2.61,3.518,3.518,0,0,1-1.768,1.535.088.088,0,0,0-.072.118l2.538,7.288.025.093c0,.11-.072.161-.211.161h-1.21a.273.273,0,0,1-.279-.186ZM340.224,88.83v5.892a.081.081,0,0,0,.093.093h2.094a2.073,2.073,0,0,0,1.721-.829,3.447,3.447,0,0,0,.651-2.2,3.5,3.5,0,0,0-.651-2.212,2.08,2.08,0,0,0-1.721-.837h-2.094A.081.081,0,0,0,340.224,88.83Z" transform="translate(-338.295 -87.019)" fill="#fff"/><path d="M345.922,103.488h-1.21a.536.536,0,0,1-.533-.364v-.008l-2.339-7.08h-1.726v6.949a.473.473,0,0,1-.5.5h-1.188a.473.473,0,0,1-.5-.5V87.153a.473.473,0,0,1,.5-.5h3.84a3.694,3.694,0,0,1,2.952,1.341,5.16,5.16,0,0,1,1.112,3.422,5.3,5.3,0,0,1-.689,2.745,3.845,3.845,0,0,1-1.759,1.59l2.521,7.3a.431.431,0,0,1-.478.431Zm-1.235-.546,0,.013h1.125l-2.5-7.19a.358.358,0,0,1,.258-.465,3.3,3.3,0,0,0,1.6-1.413,4.777,4.777,0,0,0,.613-2.47,4.627,4.627,0,0,0-.985-3.075,3.132,3.132,0,0,0-2.542-1.15h-3.8v15.755h1.112V95.862a.351.351,0,0,1,.364-.364h2.026a.362.362,0,0,1,.351.258l2.373,7.186ZM341.8,95.925Zm1.954-.118h0Zm-1.721-1.091h-2.094a.351.351,0,0,1-.364-.364V88.46a.351.351,0,0,1,.364-.364h2.094a2.342,2.342,0,0,1,1.937.943,3.784,3.784,0,0,1,.711,2.377,3.717,3.717,0,0,1-.711,2.369,2.351,2.351,0,0,1-1.933.931Zm-1.92-.541h1.92a1.812,1.812,0,0,0,1.51-.723,3.8,3.8,0,0,0,0-4.082,1.8,1.8,0,0,0-1.51-.732h-1.92v5.536Z" transform="translate(-337.92 -86.65)" fill="#fff"/></g><g transform="translate(71.632 23.707)"><path d="M362.725,102.375a4.178,4.178,0,0,1-1.07-2.982v-.537a.2.2,0,0,1,.233-.233h1.142a.2.2,0,0,1,.233.233v.465a3.022,3.022,0,0,0,.63,1.992,2.025,2.025,0,0,0,1.628.757,2.078,2.078,0,0,0,1.628-.723,2.733,2.733,0,0,0,.651-1.908,2.8,2.8,0,0,0-.313-1.362,3.649,3.649,0,0,0-.816-1q-.5-.431-1.662-1.315a23.272,23.272,0,0,1-1.84-1.48,5.052,5.052,0,0,1-1.108-1.48,4.47,4.47,0,0,1-.431-2.026,3.917,3.917,0,0,1,1.049-2.876,4.046,4.046,0,0,1,5.553.093,4.349,4.349,0,0,1,1.057,3.062v.584a.2.2,0,0,1-.233.233h-1.163a.2.2,0,0,1-.233-.233v-.6a3.064,3.064,0,0,0-.618-1.992,2,2,0,0,0-1.641-.757,1.977,1.977,0,0,0-1.535.664,2.67,2.67,0,0,0-.6,1.874,2.859,2.859,0,0,0,.266,1.269,3.455,3.455,0,0,0,.8,1.036q.533.489,1.582,1.282A25.388,25.388,0,0,1,368,96.073a4.8,4.8,0,0,1,1.057,1.4,4.08,4.08,0,0,1,.372,1.827,4.257,4.257,0,0,1-1.1,3.062,3.7,3.7,0,0,1-2.817,1.15,3.641,3.641,0,0,1-2.792-1.142Z" transform="translate(-361.364 -86.574)" fill="#fff"/><path d="M365.153,103.42a3.937,3.937,0,0,1-2.99-1.227h0a4.444,4.444,0,0,1-1.142-3.164v-.537a.473.473,0,0,1,.5-.5h1.142a.473.473,0,0,1,.5.5v.465a2.768,2.768,0,0,0,.567,1.819,1.745,1.745,0,0,0,1.421.66,1.813,1.813,0,0,0,1.43-.634,2.5,2.5,0,0,0,.584-1.73,2.532,2.532,0,0,0-.279-1.231,3.387,3.387,0,0,0-.753-.926c-.33-.283-.888-.723-1.654-1.307a23.722,23.722,0,0,1-1.857-1.493,5.371,5.371,0,0,1-1.167-1.556A4.753,4.753,0,0,1,361,90.414a4.2,4.2,0,0,1,1.125-3.066,4.311,4.311,0,0,1,5.943.1,4.632,4.632,0,0,1,1.129,3.244v.584a.473.473,0,0,1-.5.5H367.53a.473.473,0,0,1-.5-.5v-.6a2.788,2.788,0,0,0-.558-1.819,1.865,1.865,0,0,0-2.77-.085,2.439,2.439,0,0,0-.537,1.692,2.589,2.589,0,0,0,.241,1.15,3.23,3.23,0,0,0,.744.956c.347.317.876.744,1.565,1.265a24.031,24.031,0,0,1,2.106,1.683,5.158,5.158,0,0,1,1.117,1.476,4.387,4.387,0,0,1,.4,1.946,4.551,4.551,0,0,1-1.167,3.248,3.985,3.985,0,0,1-3.011,1.235Zm-3.6-4.889v.5a3.929,3.929,0,0,0,1,2.8h0a3.368,3.368,0,0,0,2.6,1.057,3.428,3.428,0,0,0,2.622-1.07,4.023,4.023,0,0,0,1.019-2.876,3.811,3.811,0,0,0-.347-1.709,4.571,4.571,0,0,0-1-1.32,23.927,23.927,0,0,0-2.06-1.645c-.706-.533-1.243-.969-1.607-1.3a3.735,3.735,0,0,1-.863-1.117,3.156,3.156,0,0,1-.3-1.387,2.952,2.952,0,0,1,.677-2.056,2.4,2.4,0,0,1,3.582.1,3.335,3.335,0,0,1,.677,2.161v.567h1.091v-.546a4.111,4.111,0,0,0-.985-2.88,3.777,3.777,0,0,0-5.164-.089,3.668,3.668,0,0,0-.969,2.686,4.225,4.225,0,0,0,.4,1.9,4.756,4.756,0,0,0,1.045,1.4,22.636,22.636,0,0,0,1.819,1.459c.774.592,1.341,1.036,1.679,1.328a3.893,3.893,0,0,1,.876,1.074,3.042,3.042,0,0,1,.347,1.493,2.99,2.99,0,0,1-.723,2.089,2.376,2.376,0,0,1-1.831.812,2.305,2.305,0,0,1-1.836-.854,3.286,3.286,0,0,1-.689-2.161v-.427H361.55Z" transform="translate(-361 -86.21)" fill="#fff"/></g><g transform="translate(85.97 23.711)"><path d="M406.078,103.191a.14.14,0,0,1-.046.093.191.191,0,0,1-.14.047h-1.256a.311.311,0,0,1-.279-.14l-.956-1.4a.078.078,0,0,0-.072-.047.092.092,0,0,0-.068.021,5.656,5.656,0,0,1-1.781,1.349,4.911,4.911,0,0,1-2.06.419,3.945,3.945,0,0,1-2.842-1,3.751,3.751,0,0,1-1.049-2.842,4.888,4.888,0,0,1,.744-2.711,10.167,10.167,0,0,1,2.047-2.246c.047-.017.055-.055.021-.118q-.837-1.256-1.235-1.946a5.137,5.137,0,0,1-.524-1.163,4.227,4.227,0,0,1-.127-1.083,3.63,3.63,0,0,1,.931-2.61,3.221,3.221,0,0,1,2.445-.977,3.307,3.307,0,0,1,2.479.99,3.534,3.534,0,0,1,.969,2.572,4.066,4.066,0,0,1-.723,2.432,12.2,12.2,0,0,1-2.072,2.153c-.047.017-.055.055-.021.118.622.871,1.079,1.527,1.375,1.979l1.442,2.047a.175.175,0,0,0,.068.021.121.121,0,0,0,.072-.021q.324-.489,1.117-1.886a.205.205,0,0,1,.14-.118.262.262,0,0,1,.186.021l.884.512a.217.217,0,0,1,.072.326,23.4,23.4,0,0,1-1.514,2.445.2.2,0,0,0,0,.14l1.721,2.47a.191.191,0,0,1,.047.14Zm-5.05-1.48a5.6,5.6,0,0,0,1.375-1.176.121.121,0,0,0,0-.14l-1.117-1.607-1.933-2.724c-.03-.047-.072-.047-.118,0a7.747,7.747,0,0,0-1.527,1.7,3.472,3.472,0,0,0-.524,1.886,2.542,2.542,0,0,0,.63,1.768,2.3,2.3,0,0,0,1.768.677,2.846,2.846,0,0,0,1.442-.385Zm-2.419-12.782a2.3,2.3,0,0,0-.491,1.548,3.125,3.125,0,0,0,.245,1.235,13.924,13.924,0,0,0,1.129,1.933c.03.063.068.068.118.021a9.07,9.07,0,0,0,1.5-1.582,2.823,2.823,0,0,0,.524-1.675,2.158,2.158,0,0,0-.491-1.489,1.593,1.593,0,0,0-1.256-.558,1.629,1.629,0,0,0-1.282.571Z" transform="translate(-395.264 -86.578)" fill="#fff"/><path d="M399.058,103.451a4.239,4.239,0,0,1-3.028-1.074A4.02,4.02,0,0,1,394.9,99.34a5.2,5.2,0,0,1,.787-2.859,10.5,10.5,0,0,1,1.984-2.208c-.508-.761-.9-1.383-1.155-1.819a5.068,5.068,0,0,1-.55-1.231,4.352,4.352,0,0,1-.14-1.15,3.884,3.884,0,0,1,1.007-2.792,3.494,3.494,0,0,1,2.639-1.062,3.585,3.585,0,0,1,2.673,1.07,3.8,3.8,0,0,1,1.045,2.762,4.366,4.366,0,0,1-.77,2.588,12.155,12.155,0,0,1-2,2.1c.563.782,1,1.413,1.282,1.844l1.282,1.819c.22-.355.541-.905.96-1.641a.468.468,0,0,1,.309-.245.544.544,0,0,1,.372.042l.9.52a.479.479,0,0,1,.169.689,24.124,24.124,0,0,1-1.468,2.385l1.662,2.381a.409.409,0,0,1,.093.292.4.4,0,0,1-.123.283.456.456,0,0,1-.334.127h-1.256a.588.588,0,0,1-.5-.258l-.833-1.218A5.743,5.743,0,0,1,401.227,103a5.161,5.161,0,0,1-2.174.444Zm-.943-8.844a9.925,9.925,0,0,0-1.971,2.166,4.64,4.64,0,0,0-.7,2.567,3.5,3.5,0,0,0,.964,2.643,3.705,3.705,0,0,0,2.656.926,4.668,4.668,0,0,0,1.95-.393,5.477,5.477,0,0,0,1.7-1.29.356.356,0,0,1,.266-.11.339.339,0,0,1,.309.195l.935,1.366s.013.021.059.021h1.079l-1.662-2.39a.5.5,0,0,1,0-.313l.038-.072a23.3,23.3,0,0,0,1.489-2.4l-.816-.474q-.787,1.383-1.112,1.878l-.038.042a.358.358,0,0,1-.258.1.378.378,0,0,1-.262-.1l-1.472-2.085c-.3-.453-.757-1.112-1.375-1.979a.4.4,0,0,1-.047-.343l.047-.114.089-.042a12.026,12.026,0,0,0,2-2.085,3.849,3.849,0,0,0,.672-2.275,3.253,3.253,0,0,0-.888-2.385,3.036,3.036,0,0,0-2.284-.909,2.947,2.947,0,0,0-2.25.892,3.373,3.373,0,0,0-.859,2.424,3.833,3.833,0,0,0,.118,1.011,4.833,4.833,0,0,0,.495,1.1c.258.448.673,1.1,1.227,1.929a.376.376,0,0,1,.038.338l-.047.114-.089.042Zm7.338,8.239a.211.211,0,0,0,.025.034Zm0-.013Zm-2.631-1.243a.061.061,0,0,0,.008.013Zm-3.6.419a2.574,2.574,0,0,1-1.967-.761,2.76,2.76,0,0,1-.7-1.954,3.789,3.789,0,0,1,.563-2.03,7.971,7.971,0,0,1,1.578-1.759.315.315,0,0,1,.271-.1.331.331,0,0,1,.245.152l3.045,4.327a.388.388,0,0,1,0,.444,5.877,5.877,0,0,1-1.463,1.26h0a3.146,3.146,0,0,1-1.578.419Zm-.326-5.964a7.253,7.253,0,0,0-1.32,1.506,3.224,3.224,0,0,0-.482,1.743,2.26,2.26,0,0,0,.554,1.586,2.021,2.021,0,0,0,1.573.588,2.667,2.667,0,0,0,1.311-.347h0a5.13,5.13,0,0,0,1.218-1.024l-1.049-1.51-1.8-2.542Zm.169-.148-.008.008S399.066,95.9,399.066,95.9Zm-.3-.034Zm.423-2.254h-.055a.332.332,0,0,1-.25-.2,14.438,14.438,0,0,1-1.138-1.946,3.411,3.411,0,0,1-.266-1.337,2.558,2.558,0,0,1,.554-1.721,1.874,1.874,0,0,1,1.485-.664,1.839,1.839,0,0,1,1.459.651,2.447,2.447,0,0,1,.554,1.666,3.125,3.125,0,0,1-.571,1.831,9.173,9.173,0,0,1-1.548,1.633.317.317,0,0,1-.228.093Zm-.123-.5a.061.061,0,0,0-.013.008S399.066,93.106,399.07,93.106Zm.457-4.839a1.333,1.333,0,0,0-1.074.478,2.07,2.07,0,0,0-.423,1.375,2.893,2.893,0,0,0,.224,1.129,12.68,12.68,0,0,0,.99,1.709,8.518,8.518,0,0,0,1.29-1.387,2.541,2.541,0,0,0,.474-1.523,1.88,1.88,0,0,0-.423-1.311,1.315,1.315,0,0,0-1.053-.465Z" transform="translate(-394.9 -86.22)" fill="#fff"/></g><g transform="translate(103.966 23.893)"><path d="M438.09,103.364V87.533a.2.2,0,0,1,.233-.233h1.189a.2.2,0,0,1,.233.233v14.528a.081.081,0,0,0,.093.093h5.329a.2.2,0,0,1,.233.233v.977a.2.2,0,0,1-.233.233h-6.843A.2.2,0,0,1,438.09,103.364Z" transform="translate(-437.819 -87.025)" fill="#fff"/><path d="M444.8,103.488h-6.843a.473.473,0,0,1-.5-.5V87.153a.473.473,0,0,1,.5-.5h1.189a.473.473,0,0,1,.5.5V101.5H444.8a.473.473,0,0,1,.5.5v.977a.473.473,0,0,1-.5.5Zm-6.805-.541h6.767v-.9h-5.291a.351.351,0,0,1-.364-.364V87.191h-1.112Z" transform="translate(-437.45 -86.65)" fill="#fff"/></g><g transform="translate(112.802 23.893)"><path d="M466.262,103.379l-.584-2.889a.09.09,0,0,0-.034-.072.128.128,0,0,0-.08-.021h-4.213a.162.162,0,0,0-.08.021.085.085,0,0,0-.034.072l-.584,2.889a.225.225,0,0,1-.258.211h-1.188a.2.2,0,0,1-.173-.072.211.211,0,0,1-.034-.186L462.494,87.5a.242.242,0,0,1,.258-.211h1.4a.225.225,0,0,1,.258.211l3.54,15.831v.047a.185.185,0,0,1-.207.211h-1.21a.245.245,0,0,1-.258-.211Zm-4.657-4.331h3.68c.047,0,.072-.03.072-.093L463.5,89.807c-.017-.047-.03-.072-.046-.072s-.03.025-.047.072l-1.861,9.149c0,.063.021.093.068.093Z" transform="translate(-458.716 -87.019)" fill="#fff"/><path d="M467.348,103.488h-1.21a.507.507,0,0,1-.52-.419l-.558-2.77h-3.972l-.554,2.762a.484.484,0,0,1-.52.427h-1.189a.479.479,0,0,1-.385-.169.462.462,0,0,1-.089-.41l3.494-15.835a.511.511,0,0,1,.52-.423h1.4a.489.489,0,0,1,.524.448l3.54,15.861a.467.467,0,0,1-.478.524Zm-4.982-16.3-3.472,15.785,1.117-.025.579-2.88a.319.319,0,0,1,.148-.241.43.43,0,0,1,.233-.072h4.213a.392.392,0,0,1,.228.068.345.345,0,0,1,.157.3l.575,2.83,0,.017,1.129-.021-3.523-15.755h-1.392Zm2.669,12.98v0Zm-3.917-.055-.013.063A.318.318,0,0,0,461.118,100.117Zm3.781-1.176h-3.68a.338.338,0,0,1-.338-.364v-.055l1.869-9.149c.08-.254.228-.288.309-.288a.314.314,0,0,1,.3.254l1.878,9.237A.34.34,0,0,1,464.9,98.941Zm-3.439-.541h3.193l-1.6-7.85-1.6,7.85Z" transform="translate(-458.339 -86.65)" fill="#fff"/></g><g transform="translate(123.592 23.893)"><path d="M485.576,102.542a4.723,4.723,0,0,1-1.1-3.261V87.523a.2.2,0,0,1,.233-.233H485.9a.2.2,0,0,1,.233.233V99.467a3.192,3.192,0,0,0,.639,2.072,2.062,2.062,0,0,0,1.688.791,2.133,2.133,0,0,0,1.721-.791,3.15,3.15,0,0,0,.651-2.072V87.523a.2.2,0,0,1,.233-.233h1.189a.2.2,0,0,1,.233.233V99.281a4.7,4.7,0,0,1-1.108,3.261,3.729,3.729,0,0,1-2.923,1.235,3.646,3.646,0,0,1-2.889-1.235Z" transform="translate(-484.214 -87.019)" fill="#fff"/><path d="M488.1,103.674a3.941,3.941,0,0,1-3.088-1.324h0a5.021,5.021,0,0,1-1.163-3.439V87.153a.473.473,0,0,1,.5-.5h1.188a.473.473,0,0,1,.5.5V99.1a2.953,2.953,0,0,0,.579,1.9,1.794,1.794,0,0,0,1.48.694,1.87,1.87,0,0,0,1.514-.694,2.9,2.9,0,0,0,.592-1.9V87.158a.473.473,0,0,1,.5-.5H491.9a.473.473,0,0,1,.5.5V98.916a4.967,4.967,0,0,1-1.176,3.439,4.006,4.006,0,0,1-3.121,1.324Zm-3.709-16.483v11.72a4.481,4.481,0,0,0,1.024,3.079h0a3.382,3.382,0,0,0,2.686,1.142,3.467,3.467,0,0,0,2.72-1.146,4.453,4.453,0,0,0,1.036-3.079V87.187h-1.112V99.093a3.416,3.416,0,0,1-.715,2.242,2.386,2.386,0,0,1-1.933.888,2.313,2.313,0,0,1-1.9-.892,3.456,3.456,0,0,1-.7-2.242V87.183h-1.112Z" transform="translate(-483.85 -86.65)" fill="#fff"/></g><g transform="translate(134.483 23.893)"><path d="M516.989,87.294h1.163a.2.2,0,0,1,.233.233v15.831a.2.2,0,0,1-.233.233h-1.375a.258.258,0,0,1-.258-.186l-4.538-12.037c-.017-.047-.038-.068-.072-.059s-.046.034-.046.08l.021,11.965a.2.2,0,0,1-.233.233h-1.188a.2.2,0,0,1-.233-.233V87.523a.2.2,0,0,1,.233-.233h1.349a.261.261,0,0,1,.258.186l4.564,12.058c.017.047.038.068.072.059s.047-.034.047-.08V87.523a.2.2,0,0,1,.233-.233Z" transform="translate(-509.964 -87.019)" fill="#fff"/><path d="M517.788,103.488h-1.375a.521.521,0,0,1-.508-.36l-4.132-10.955.021,10.811a.473.473,0,0,1-.5.5H510.1a.473.473,0,0,1-.5-.5V87.153a.473.473,0,0,1,.5-.5h1.349a.521.521,0,0,1,.508.36L516.118,98V87.153a.473.473,0,0,1,.5-.5h1.163a.473.473,0,0,1,.5.5v15.831a.473.473,0,0,1-.5.5Zm-7.647-.541h1.112l-.021-11.927a.337.337,0,0,1,.25-.343.331.331,0,0,1,.393.233l4.538,12.029,1.341.013V87.2h-1.087V99.148a.336.336,0,0,1-.254.343.328.328,0,0,1-.389-.237l-4.56-12.05-1.315-.013v15.755Zm6.378-3.883Zm-5.156-7.973Z" transform="translate(-509.6 -86.65)" fill="#fff"/></g><g transform="translate(145.962 23.893)"><path d="M537.38,103.364V87.533a.2.2,0,0,1,.233-.233H541.2a3.687,3.687,0,0,1,2.863,1.176,4.5,4.5,0,0,1,1.07,3.155v7.634a4.5,4.5,0,0,1-1.07,3.155A3.687,3.687,0,0,1,541.2,103.6h-3.587A.2.2,0,0,1,537.38,103.364Zm1.747-1.21,2.047-.021a1.974,1.974,0,0,0,1.641-.791,3.49,3.49,0,0,0,.639-2.14V91.707a3.5,3.5,0,0,0-.6-2.166,1.989,1.989,0,0,0-1.675-.791h-2.047a.081.081,0,0,0-.093.093v13.222a.081.081,0,0,0,.093.093Z" transform="translate(-537.109 -87.025)" fill="#fff"/><path d="M540.83,103.488h-3.587a.473.473,0,0,1-.5-.5V87.153a.473.473,0,0,1,.5-.5h3.587a3.95,3.95,0,0,1,3.062,1.265,4.79,4.79,0,0,1,1.142,3.337v7.634a4.79,4.79,0,0,1-1.142,3.337A3.964,3.964,0,0,1,540.83,103.488Zm-3.549-.541h3.549a3.4,3.4,0,0,0,2.665-1.087,4.265,4.265,0,0,0,1-2.973V91.252a4.272,4.272,0,0,0-1-2.973,3.4,3.4,0,0,0-2.665-1.087h-3.549Zm1.476-.905h0a.351.351,0,0,1-.364-.364V88.456a.351.351,0,0,1,.364-.364H540.8a2.256,2.256,0,0,1,1.891.9,3.756,3.756,0,0,1,.66,2.33v7.495a3.778,3.778,0,0,1-.7,2.309,2.246,2.246,0,0,1-1.853.9Zm.173-13.408V101.5l1.869-.021a1.7,1.7,0,0,0,1.43-.689,3.277,3.277,0,0,0,.584-1.979V91.319a3.25,3.25,0,0,0-.55-2,1.718,1.718,0,0,0-1.463-.685h-1.874Z" transform="translate(-536.74 -86.65)" fill="#fff"/></g><g transform="translate(156.785 23.893)"><path d="M569.219,103.4l-2.373-7.194a.094.094,0,0,0-.093-.072h-2.026a.081.081,0,0,0-.093.093v7.123a.2.2,0,0,1-.233.233h-1.189a.2.2,0,0,1-.233-.233V87.523a.2.2,0,0,1,.233-.233h3.84a3.418,3.418,0,0,1,2.749,1.248,4.874,4.874,0,0,1,1.049,3.248,5,5,0,0,1-.651,2.61,3.518,3.518,0,0,1-1.768,1.535.088.088,0,0,0-.072.118l2.538,7.288.025.093c0,.11-.072.161-.211.161H569.5a.273.273,0,0,1-.279-.186ZM564.634,88.83v5.892a.081.081,0,0,0,.093.093h2.094a2.072,2.072,0,0,0,1.721-.829,3.447,3.447,0,0,0,.651-2.2,3.5,3.5,0,0,0-.651-2.212,2.079,2.079,0,0,0-1.721-.837h-2.094A.081.081,0,0,0,564.634,88.83Z" transform="translate(-562.705 -87.019)" fill="#fff"/><path d="M570.332,103.488h-1.21a.537.537,0,0,1-.533-.364v-.008l-2.339-7.08h-1.726v6.949a.473.473,0,0,1-.5.5h-1.189a.473.473,0,0,1-.5-.5V87.153a.473.473,0,0,1,.5-.5h3.84a3.694,3.694,0,0,1,2.952,1.341,5.16,5.16,0,0,1,1.112,3.422,5.3,5.3,0,0,1-.689,2.745,3.845,3.845,0,0,1-1.759,1.59l2.521,7.3a.431.431,0,0,1-.478.431Zm-1.235-.546,0,.013h1.125l-2.5-7.19a.358.358,0,0,1,.258-.465,3.3,3.3,0,0,0,1.6-1.413,4.777,4.777,0,0,0,.613-2.47,4.627,4.627,0,0,0-.985-3.075,3.132,3.132,0,0,0-2.542-1.15h-3.8v15.755h1.112V95.862a.351.351,0,0,1,.364-.364h2.026a.362.362,0,0,1,.351.258l2.373,7.186Zm-2.885-7.017Zm1.954-.118h0Zm-1.721-1.091h-2.094a.351.351,0,0,1-.364-.364V88.46a.351.351,0,0,1,.364-.364h2.094a2.342,2.342,0,0,1,1.937.943,3.784,3.784,0,0,1,.711,2.377,3.717,3.717,0,0,1-.711,2.369,2.352,2.352,0,0,1-1.933.931Zm-1.92-.541h1.92a1.812,1.812,0,0,0,1.51-.723,3.8,3.8,0,0,0,0-4.082,1.8,1.8,0,0,0-1.51-.732h-1.92v5.536Z" transform="translate(-562.33 -86.65)" fill="#fff"/></g><g transform="translate(165.984 23.897)"><path d="M588.008,103.333V96.371a.221.221,0,0,0-.021-.118l-3.236-8.683-.021-.093c0-.123.072-.186.211-.186H586.2a.273.273,0,0,1,.279.186l2.28,6.822a.079.079,0,0,0,.144,0l2.28-6.822a.273.273,0,0,1,.279-.186h1.256a.2.2,0,0,1,.173.08.2.2,0,0,1,.013.2l-3.214,8.683a.369.369,0,0,0-.021.118v6.962a.2.2,0,0,1-.233.233h-1.189a.2.2,0,0,1-.233-.233Z" transform="translate(-584.455 -87.024)" fill="#fff"/><path d="M589.054,103.472h-1.188a.473.473,0,0,1-.5-.5V96.007h0v-.021l-3.282-8.869a.443.443,0,0,1,.478-.457h1.256a.54.54,0,0,1,.533.364l2.1,6.277,2.094-6.268a.542.542,0,0,1,.537-.372h1.256a.46.46,0,0,1,.436.651L589.557,96v6.97a.473.473,0,0,1-.5.5Zm-1.15-.541h1.112V96.007a.49.49,0,0,1,.051-.237l3.172-8.573H591.08l-2.305,6.822a.348.348,0,0,1-.639.034L585.844,87.2h-1.184l3.2,8.569a.5.5,0,0,1,.051.241v6.924Z" transform="translate(-584.08 -86.66)" fill="#fff"/></g></g></g></g></g></svg>