<svg xmlns="http://www.w3.org/2000/svg" width="61.582" height="61.581" viewBox="0 0 61.582 61.581"><g transform="translate(0.01)"><g transform="translate(-0.01)"><g transform="translate(0)"><path d="M-.009,93.062c.14-.7.237-1.419.425-2.108,1.517-5.508,5.018-9.148,10.562-10.479,5.616-1.35,10.433.323,14.31,4.627.094.1.181.213.276.317a.818.818,0,0,0,.13.086c.3-.245.6-.5.913-.748A21.5,21.5,0,1,1,43.6,122.751a39.344,39.344,0,0,1-5.443.233c-.465.008-.638.122-.78.557a11.253,11.253,0,0,1-21.83-1.837,11.006,11.006,0,0,1,4.416-10.726c.154-.122.314-.238.481-.364-.359-.928-.708-1.833-1.072-2.778a14.867,14.867,0,0,1-5.851.879A14.392,14.392,0,0,1,.229,97c-.073-.432-.158-.861-.239-1.29V93.065Zm38,27.828a19.5,19.5,0,1,0-15.645-11.319,11.388,11.388,0,0,1,15.646,11.317ZM18.883,105.778a21.543,21.543,0,0,1,5.267-18.761,12.271,12.271,0,1,0-5.267,18.76Zm7.884,5.018a9.229,9.229,0,1,0,9.155,9.335,9.25,9.25,0,0,0-9.155-9.335Z" transform="translate(0.01 -69.733)" fill="#007192"/><path d="M364.637,0a1.411,1.411,0,0,1,.888,1.341,2.989,2.989,0,0,0,2.817,2.781c.476.05.92.125,1.152.614a1,1,0,0,1-.677,1.413c-.329.078-.679.069-1.008.152A3.087,3.087,0,0,0,365.5,9.123c-.072.757-.427,1.168-1.015,1.175-.609.006-.99-.434-1.046-1.215a3.04,3.04,0,0,0-2.751-2.856,3.486,3.486,0,0,1-.593-.087.939.939,0,0,1-.734-.974.937.937,0,0,1,.748-.963,4.588,4.588,0,0,1,.653-.091,2.994,2.994,0,0,0,2.657-2.744A1.449,1.449,0,0,1,364.276,0h.361Zm-.091,4.266-.954.952.841.838.978-.865-.865-.925Z" transform="translate(-313.169)" fill="#007192"/><path d="M29.4,361.736c-.568-.019-.946-.449-1-1.135a3.07,3.07,0,0,0-2.382-2.882c-.251-.058-.517-.048-.772-.09a1.02,1.02,0,0,1-.932-1.063.993.993,0,0,1,.959-.965c2.042-.272,2.9-1.134,3.135-3.13a1.022,1.022,0,0,1,2.041,0,3.08,3.08,0,0,0,3.075,3.126,1,1,0,0,1,1.019,1.03,1.033,1.033,0,0,1-.99,1.014c-2.073.3-2.839,1.073-3.107,3.141a1.048,1.048,0,0,1-1.048.956Zm.123-6-1,.815.855.978c.317-.333.641-.67.9-.938l-.752-.855Z" transform="translate(-21.186 -306.32)" fill="#007192"/><path d="M179.967,32.516a4.093,4.093,0,1,1,4.069-4.1A4.074,4.074,0,0,1,179.967,32.516Zm2.022-4.089a2.046,2.046,0,1,0-2.063,2.04,2.049,2.049,0,0,0,2.063-2.04Z" transform="translate(-153.246 -21.203)" fill="#007192"/><path d="M429.184,394.276a3.03,3.03,0,0,1-3.039,3.057,3.071,3.071,0,0,1-3.105-3.068,3.113,3.113,0,0,1,3.057-3.076,3.069,3.069,0,0,1,3.087,3.086Zm-2.055.008a1.017,1.017,0,0,0-1.01-1.037,1.049,1.049,0,0,0-1.021,1.041,1.02,1.02,0,0,0,.995.992.982.982,0,0,0,1.035-1Z" transform="translate(-368.664 -340.908)" fill="#007192"/><path d="M287.64,42.558V40.59h1.979v1.968Z" transform="translate(-250.667 -35.373)" fill="#007192"/><rect width="1.969" height="1.979" rx="0.985" transform="translate(12.398 42.126)" fill="#007192"/><path d="M16.13,440.207v-.019a1.174,1.174,0,0,1,1.177-1.177h.028a.809.809,0,0,1,.8.808v.386a.807.807,0,0,1-.807.807h-.395a.807.807,0,0,1-.807-.8Z" transform="translate(-14.055 -382.582)" fill="#007192"/><path d="M368.615,441.054h0a1,1,0,0,1-1.005-1.005v-.014a1,1,0,0,1,1.009-1.005c.233,0,.461.005.69.017a.407.407,0,0,1,.293.266c.012.243.017.487.017.733a1.006,1.006,0,0,1-1.005,1.01Z" transform="translate(-320.358 -382.6)" fill="#007192"/><path d="M319.59,113.8h0a1,1,0,0,1,1.121-.995,17.213,17.213,0,0,1,8.839,3.7,18.184,18.184,0,0,1,6.26,11.464,1,1,0,0,1-.852,1.134l-.039.005a1,1,0,0,1-1.122-.8c-1.427-7.5-5.53-12.324-13.364-13.518A1,1,0,0,1,319.59,113.8Z" transform="translate(-278.511 -98.301)" fill="#007192"/><path d="M252.857,144.03a.971.971,0,0,1,1,.994,3.166,3.166,0,0,0,3.158,3.117.978.978,0,0,1,.952.978,1.047,1.047,0,0,1-.958,1.046c-2.069.269-2.862,1.054-3.139,3.108a1.037,1.037,0,0,1-1.017.988,1,1,0,0,1-1.027-1.023,3.084,3.084,0,0,0-3.068-3.069,1.024,1.024,0,1,1,.005-2.048,3.081,3.081,0,0,0,3.059-3.015c.072-.706.438-1.087,1.036-1.077Zm.911,5.13-.91-.88-.892.887c.272.3.58.636.851.936l.951-.941Z" transform="translate(-215.887 -125.516)" fill="#007192"/><path d="M348.468,215.888a.994.994,0,0,1,1.042.942c.251,2.028,1.13,2.92,3.114,3.156a.987.987,0,0,1,.983,1,1.023,1.023,0,0,1-.96,1.039c-2.138.323-2.83,1.023-3.139,3.176a1.017,1.017,0,0,1-2.019.051c-.042-.235-.024-.481-.071-.716a3.052,3.052,0,0,0-2.839-2.5,2.528,2.528,0,0,1-.357-.037,1,1,0,0,1-.838-1.08.979.979,0,0,1,.931-.932c2.107-.285,2.86-1.042,3.162-3.163a1.008,1.008,0,0,1,.994-.937Zm.877,5.194-.818-.99-.943.844.964.942Z" transform="translate(-299.241 -188.139)" fill="#007192"/><rect width="1.97" height="1.968" rx="0.984" transform="translate(41.086 43.146)" fill="#007192"/><path d="M33.078,124.439h-.019a1,1,0,0,1-1.093-1.062c.053-.837.1-1.652.235-2.454a10,10,0,0,1,4.071-7.076,9.3,9.3,0,0,1,4.891-1.686,1,1,0,0,1,1.044,1v.045a1,1,0,0,1-.906,1,8.941,8.941,0,0,0-1.292.193,7.3,7.3,0,0,0-5.632,6.113,28.979,28.979,0,0,0-.392,3.026,1,1,0,0,1-.907.9Z" transform="translate(-27.854 -97.744)" fill="#007192"/><rect width="1.986" height="1.964" rx="0.982" transform="translate(12.384 26.743)" fill="#007192"/></g></g></g></svg>