<svg xmlns="http://www.w3.org/2000/svg" width="58.511" height="58.495" viewBox="0 0 58.511 58.495"><g transform="translate(0.25 0.25)"><path d="M0,17.1c.307-.356.651-.649,1.161-.445s.563.657.539,1.133c-.006.132,0,.265,0,.4V53.413A2.693,2.693,0,0,0,4.609,56.3c1.265,0,2.53,0,3.794,0H29.808c-.548-1.418-1.047-2.751-1.592-4.064-.054-.13-.4-.228-.59-.2A17.6,17.6,0,1,1,40.9,27.554c.091.2.186.407.345.754.129-.561.224-.987.325-1.412a19.829,19.829,0,0,1,2.513-6.266,7.846,7.846,0,0,1,3.831-3.347V4.658A2.7,2.7,0,0,0,44.96,1.7H4.639A2.7,2.7,0,0,0,1.7,4.667q0,4.5,0,9c0,.475-.021.929-.531,1.142S.321,14.72,0,14.384V3.738A15.914,15.914,0,0,1,1.074,1.545,4.334,4.334,0,0,1,3.738,0H45.874a.4.4,0,0,0,.1.058,4.39,4.39,0,0,1,3.641,4.748V17.063a6.012,6.012,0,0,1,4.057,2.288,15.421,15.421,0,0,1,2.966,5.737,34.005,34.005,0,0,1,.731,16.233,19.729,19.729,0,0,1-2.937,7.654,6.681,6.681,0,0,1-4.815,3.293v.973a4.4,4.4,0,0,1-4.77,4.753H20.325q-7.928,0-15.855,0A4.355,4.355,0,0,1,.11,54.572C.083,54.464.038,54.36,0,54.254V17.1ZM27.083,50.359a3.046,3.046,0,0,0-2.426-1.372,13.379,13.379,0,0,1-1.413-.077,14.33,14.33,0,1,1,7.937-27.08c.8.4,1.038.79.793,1.312-.256.545-.728.59-1.553.206a12.306,12.306,0,0,0-12.219.567,12.433,12.433,0,0,0-5.976,9.4c.192-.18.3-.274.4-.38A5.553,5.553,0,0,1,18.665,31.3a31.425,31.425,0,0,1,3.468,1.557c4.149-3.051,8.586-5.342,14.145-3.514a9.048,9.048,0,0,0-.643-1.165q-1.062-1.389-2.19-2.728c-.477-.567-.392-1.236.236-1.477.449-.173.751.065,1.05.351a14.333,14.333,0,0,1,.077,20.579,2.191,2.191,0,0,1-.5.284c.363.61.611,1.027.863,1.447a15.857,15.857,0,1,0-8.091,3.719Zm9.749-11.844-.592.194a12.037,12.037,0,0,1-11.86-1.882q-1.341-1.04-2.715-2.04a11.1,11.1,0,0,0-3.523-1.881A4,4,0,0,0,13.865,34.1c-1.145,1.224-1.973,2.548-1.13,4.3a3.877,3.877,0,0,1,.127.374,12.569,12.569,0,0,0,11.571,8.489,4.791,4.791,0,0,1,3.641,1.643,11.994,11.994,0,0,1,1.247,1.745,21.663,21.663,0,0,1,2.037,5.2c.048.171.242.422.375.427,1.034.035,2.069.02,3.172.02.4-4.721-.15-9.061-4.113-12.317L31.8,42.633l1.53,1.341a12.543,12.543,0,0,0,3.5-5.457Zm19.484-4.767c-.1-.968-.218-2.854-.5-4.715a18.311,18.311,0,0,0-2.485-7.221,10.187,10.187,0,0,0-2.032-2.32,2.9,2.9,0,0,0-3.856-.044,9.252,9.252,0,0,0-1.713,1.784,13.444,13.444,0,0,0-2,4.222,32.363,32.363,0,0,0-.737,15.5,17.747,17.747,0,0,0,2.55,6.841,9.391,9.391,0,0,0,1.944,2.1,2.943,2.943,0,0,0,3.727.021,4.167,4.167,0,0,0,1.083-.984,21.48,21.48,0,0,0,1.935-3.17c1.575-3.523,2.02-7.278,2.084-12.015ZM41.148,41.233a.711.711,0,0,0-.065.121,17.96,17.96,0,0,1-4.913,6.752.706.706,0,0,0-.154.605,17.921,17.921,0,0,1,.7,5.305c-.011.744,0,1.489,0,2.267,2.9,0,5.858.033,8.814-.017A2.427,2.427,0,0,0,47.8,54.289a16.191,16.191,0,0,0,.15-2.171c-.53-.3-1-.508-1.412-.794a10.179,10.179,0,0,1-3.585-4.771c-.7-1.737-1.211-3.545-1.8-5.317ZM23.385,34.047c1.347.911,2.539,1.769,3.789,2.539a8.326,8.326,0,0,0,1.969.837c2.752.822,5.37.188,7.932-.841a.62.62,0,0,0,.271-.489q-.061-2-.2-3.995a.792.792,0,0,0-.351-.516,7.266,7.266,0,0,0-3.055-1.112c-3.966-.484-7.148,1.306-10.358,3.579Z" fill="#007192"/><path d="M3.705-.25H45.945l.06.037.043.029.007,0a4.637,4.637,0,0,1,3.806,4.984V16.841a6.256,6.256,0,0,1,4,2.347,15.654,15.654,0,0,1,3.016,5.827,32.92,32.92,0,0,1,1.36,8.135,36.837,36.837,0,0,1-.623,8.216,19.707,19.707,0,0,1-2.976,7.749,9.143,9.143,0,0,1-2.07,2.248,5.919,5.919,0,0,1-2.7,1.122v.754a4.651,4.651,0,0,1-5.02,5H20.325l-9.064,0c-2.647,0-4.805,0-6.791-.005a4.6,4.6,0,0,1-4.6-3.607,1.863,1.863,0,0,0-.063-.187c-.014-.037-.028-.074-.041-.112L-.248,54.3V17.1h.234l-.175-.162a2.619,2.619,0,0,1,.329-.328L.25,16.5v.028a1.036,1.036,0,0,1,.586-.189,1.122,1.122,0,0,1,.417.085,1.235,1.235,0,0,1,.7,1.378c0,.079,0,.161,0,.248,0,.045,0,.091,0,.136V53.413a2.443,2.443,0,0,0,2.66,2.633q1.265,0,2.529,0H29.444l-.242-.63c-.407-1.061-.792-2.064-1.205-3.062a.657.657,0,0,0-.294-.076.238.238,0,0,0-.037,0,19.081,19.081,0,0,1-2.886.224A17.834,17.834,0,0,1,7.089,32.569a18.176,18.176,0,0,1,1.673-5.676,17.967,17.967,0,0,1,3.3-4.709,17.659,17.659,0,0,1,10.173-5.191A17.875,17.875,0,0,1,41.124,27.452l.037.082c.056-.245.108-.471.162-.7a19.863,19.863,0,0,1,2.547-6.344,8.124,8.124,0,0,1,3.791-3.383V4.658a2.438,2.438,0,0,0-2.7-2.705H4.639a2.461,2.461,0,0,0-2.69,2.715V5.8c0,2.581,0,5.249,0,7.874a1.278,1.278,0,0,1-.685,1.374,1.1,1.1,0,0,1-.418.087,1.469,1.469,0,0,1-1.03-.575l-.069-.072V3.681l.024-.051c.106-.222.207-.455.3-.681A9.03,9.03,0,0,1,.868,1.4,4.555,4.555,0,0,1,3.674-.242ZM45.8.25H3.77A4.089,4.089,0,0,0,1.28,1.687a8.527,8.527,0,0,0-.743,1.46C.446,3.36.351,3.58.25,3.794V14.283a.909.909,0,0,0,.6.349.591.591,0,0,0,.227-.049c.324-.135.376-.38.376-.911-.007-2.625-.005-5.294,0-7.875V4.667a2.944,2.944,0,0,1,3.19-3.214H44.96a2.943,2.943,0,0,1,3.2,3.205v12.8L48,17.516a7.567,7.567,0,0,0-3.709,3.249,19.384,19.384,0,0,0-2.48,6.188c-.074.309-.145.621-.227.981L41.32,29.08l-.307-.669-.144-.312c-.079-.172-.142-.308-.2-.444A17.343,17.343,0,1,0,24.78,52a18.574,18.574,0,0,0,2.808-.218.733.733,0,0,1,.114-.008c.23,0,.635.1.744.357.421,1.014.81,2.028,1.222,3.1q.184.479.373.969l.131.34H4.609a2.931,2.931,0,0,1-3.159-3.132V18.189c0-.043,0-.085,0-.128,0-.091,0-.184,0-.28.027-.541-.069-.765-.382-.89a.619.619,0,0,0-.232-.049c-.182,0-.355.1-.585.355V54.211l.023.061a2.269,2.269,0,0,1,.079.238A4.114,4.114,0,0,0,4.47,57.74c1.986,0,4.144.005,6.791.005l9.064,0H44.843a4.147,4.147,0,0,0,4.52-4.5v-1.2l.221-.026c1.85-.215,3.28-1.2,4.637-3.185a19.229,19.229,0,0,0,2.9-7.558,33.922,33.922,0,0,0-.725-16.116,15.169,15.169,0,0,0-2.916-5.645,5.741,5.741,0,0,0-3.893-2.2l-.225-.023V4.806A4.15,4.15,0,0,0,45.9.3.38.38,0,0,1,45.8.25Zm3.569,18.238h0a3.271,3.271,0,0,1,2.093.812,10.422,10.422,0,0,1,2.083,2.377A18.3,18.3,0,0,1,56.063,29c.211,1.387.332,2.788.42,3.811.031.358.057.667.083.916l.012.118-.014.014c-.079,5.364-.69,8.85-2.1,12.012a18.586,18.586,0,0,1-1.691,2.819l-.265.389a4.406,4.406,0,0,1-1.147,1.048,3.543,3.543,0,0,1-2.04.7,3.164,3.164,0,0,1-1.985-.729,9.617,9.617,0,0,1-2-2.156A17.824,17.824,0,0,1,42.745,41a35.282,35.282,0,0,1-.579-7.851,31.192,31.192,0,0,1,1.322-7.769,13.575,13.575,0,0,1,2.041-4.3,9.478,9.478,0,0,1,1.76-1.832A3.423,3.423,0,0,1,49.365,18.488Zm6.7,15.258c-.025-.248-.051-.549-.081-.9-.088-1.016-.207-2.408-.416-3.779a17.821,17.821,0,0,0-2.448-7.124,9.915,9.915,0,0,0-1.981-2.262,2.742,2.742,0,0,0-1.773-.7h0a2.89,2.89,0,0,0-1.77.659,8.983,8.983,0,0,0-1.665,1.736,13.1,13.1,0,0,0-1.963,4.145,32.283,32.283,0,0,0-.73,15.384,17.349,17.349,0,0,0,2.511,6.747A9.111,9.111,0,0,0,47.64,49.7a2.677,2.677,0,0,0,1.676.622,3.055,3.055,0,0,0,1.753-.609,3.992,3.992,0,0,0,1.02-.919l.266-.39A18.214,18.214,0,0,0,54,45.663c1.393-3.114,1.99-6.567,2.062-11.916ZM24.783,18.515A16.244,16.244,0,0,1,33,20.754,16.142,16.142,0,0,1,40.6,38.019a15.334,15.334,0,0,1-5.267,8.815l-.224.18-.148-.246c-.2-.329-.392-.656-.642-1.077l-.352-.591.224-.125c.05-.028.1-.053.159-.079a1.086,1.086,0,0,0,.288-.168A14.083,14.083,0,0,0,34.56,24.51c-.226-.216-.394-.341-.584-.34a.566.566,0,0,0-.2.042.548.548,0,0,0-.364.367.831.831,0,0,0,.23.715c.761.9,1.5,1.826,2.2,2.737a4.7,4.7,0,0,1,.456.79c.065.132.133.268.209.409l.3.553-.6-.2a12.309,12.309,0,0,0-3.844-.639c-3.945,0-7.307,2.081-10.075,4.116l-.118.087-.134-.061c-.372-.17-.74-.352-1.1-.528a16.642,16.642,0,0,0-2.344-1.018,5.989,5.989,0,0,0-1.8-.294A5.422,5.422,0,0,0,12.811,33.1c-.071.074-.144.141-.237.226l-.177.163-.519.486.1-.7a14.07,14.07,0,0,1,1.946-5.553A12.489,12.489,0,0,1,18.072,23.7a12.672,12.672,0,0,1,6.636-1.955,13.775,13.775,0,0,1,5.818,1.375,2.006,2.006,0,0,0,.777.229.45.45,0,0,0,.444-.314c.124-.263.173-.556-.679-.982a13.767,13.767,0,0,0-6.223-1.483A14.149,14.149,0,0,0,10.872,32.679a14.088,14.088,0,0,0,12.4,15.982,13.066,13.066,0,0,0,1.387.076,3.254,3.254,0,0,1,2.62,1.467l.268.336-.424.067a15.439,15.439,0,0,1-2.394.187,16.174,16.174,0,0,1-9.387-3.061,16.137,16.137,0,0,1,9.442-29.216ZM35.239,46.262A15.628,15.628,0,1,0,9.851,39.245,15.7,15.7,0,0,0,24.728,50.293a14.967,14.967,0,0,0,1.869-.117,2.546,2.546,0,0,0-1.941-.939,13.552,13.552,0,0,1-1.44-.079,14.589,14.589,0,0,1,1.63-29.088,14.262,14.262,0,0,1,6.447,1.536c.583.292,1.312.78.907,1.642a.94.94,0,0,1-.9.6,2.431,2.431,0,0,1-.988-.275,13.28,13.28,0,0,0-5.607-1.328,12.18,12.18,0,0,0-6.377,1.883,11.95,11.95,0,0,0-5.737,8.482,5.838,5.838,0,0,1,4.194-1.86,6.487,6.487,0,0,1,1.951.317,17.268,17.268,0,0,1,2.415,1.046c.309.153.628.311.948.46,2.811-2.055,6.22-4.126,10.252-4.126a12.615,12.615,0,0,1,3.433.49,3.681,3.681,0,0,0-.352-.6c-.693-.906-1.427-1.821-2.183-2.719a1.316,1.316,0,0,1-.331-1.162,1.041,1.041,0,0,1,.669-.709,1.07,1.07,0,0,1,.383-.075,1.373,1.373,0,0,1,.929.479,14.243,14.243,0,0,1,3.344,4.86,14.735,14.735,0,0,1,.039,11.21,14.2,14.2,0,0,1-3.3,4.869,1.249,1.249,0,0,1-.317.211l.081.136ZM32.446,30.14a10.992,10.992,0,0,1,1.327.081,7.523,7.523,0,0,1,3.16,1.15,1.038,1.038,0,0,1,.466.71c.088,1.274.155,2.622.2,4a.852.852,0,0,1-.427.728,14.326,14.326,0,0,1-5.428,1.236,9.328,9.328,0,0,1-2.67-.387,8.511,8.511,0,0,1-2.028-.864c-.887-.546-1.74-1.133-2.643-1.755-.327-.225-.665-.457-1.011-.692l-.253.179v-.954l.248.167C26.464,31.576,29.2,30.14,32.446,30.14Zm4.529,6.212A.45.45,0,0,0,37.1,36.1c-.042-1.375-.108-2.716-.2-3.984a.563.563,0,0,0-.235-.322,7.029,7.029,0,0,0-2.952-1.075,10.489,10.489,0,0,0-1.266-.078c-3.064,0-5.68,1.352-8.62,3.4q.439.3.857.588c.9.618,1.746,1.2,2.622,1.741a8.026,8.026,0,0,0,1.91.81,8.828,8.828,0,0,0,2.527.366A13.848,13.848,0,0,0,36.975,36.352ZM16.85,32.468a5.058,5.058,0,0,1,1.361.2,11.331,11.331,0,0,1,3.6,1.92c.949.693,1.864,1.38,2.72,2.044a11.666,11.666,0,0,0,7.251,2.6,13.854,13.854,0,0,0,4.377-.759l.23-.075.363-.119.328-.108v.386l-.012.039A12.806,12.806,0,0,1,33.5,44.157l-.165.152-.169-.148L31.841,43l-.707.942a11.041,11.041,0,0,1,3.591,5.581,18.985,18.985,0,0,1,.428,6.8l-.019.229H34.9c-.513,0-1.011,0-1.5,0-.462,0-1.071,0-1.678-.023-.307-.01-.551-.408-.607-.608a21.663,21.663,0,0,0-2.011-5.137,11.728,11.728,0,0,0-1.221-1.709,4.509,4.509,0,0,0-3.462-1.557A13.187,13.187,0,0,1,17.123,45a12.8,12.8,0,0,1-4.5-6.144c-.018-.05-.033-.1-.047-.149a1.445,1.445,0,0,0-.07-.2c-.93-1.937.071-3.4,1.174-4.581A4.235,4.235,0,0,1,16.85,32.468Zm14.935,7.263a12.154,12.154,0,0,1-7.557-2.707c-.853-.661-1.764-1.346-2.709-2.036a10.885,10.885,0,0,0-3.443-1.842,4.56,4.56,0,0,0-1.226-.179,3.754,3.754,0,0,0-2.8,1.3c-1.037,1.108-1.886,2.362-1.088,4.025a1.84,1.84,0,0,1,.1.273c.013.045.026.087.04.126a12.3,12.3,0,0,0,11.346,8.323,5.041,5.041,0,0,1,3.82,1.73,12.228,12.228,0,0,1,1.273,1.781A22.1,22.1,0,0,1,31.6,55.782a.587.587,0,0,0,.17.246c.591.019,1.183.022,1.635.022.417,0,.839,0,1.271,0,.318-4.01.041-8.52-4.041-11.874l-.185-.152.144-.191L31.6,42.483l.162-.216.2.178,1.36,1.191a12.247,12.247,0,0,0,3.1-4.726l-.112.037A14.349,14.349,0,0,1,31.785,39.731Zm9.185,1.327.2.168.211-.071h0l.005.015.034.1h0c.169.507.333,1.023.493,1.523.387,1.213.788,2.468,1.267,3.664a9.87,9.87,0,0,0,3.495,4.658,8.89,8.89,0,0,0,.886.51c.162.085.33.174.506.272l.137.077-.009.157c-.012.2-.018.407-.023.626a9.48,9.48,0,0,1-.131,1.578,2.691,2.691,0,0,1-2.508,2.18c-1.113.019-2.321.028-3.8.028-.846,0-1.7,0-2.53-.005s-1.663-.005-2.487-.005h-.25v-.25q0-.371,0-.734c0-.528,0-1.027,0-1.536a17.774,17.774,0,0,0-.692-5.232.948.948,0,0,1,.231-.864,17.807,17.807,0,0,0,4.846-6.659c.007-.017.014-.034.022-.049l-.014-.041Zm6.72,11.2c-.123-.067-.243-.13-.359-.191a9.251,9.251,0,0,1-.936-.54,10.352,10.352,0,0,1-3.675-4.884c-.486-1.213-.889-2.476-1.279-3.7-.108-.337-.218-.682-.33-1.026A18.316,18.316,0,0,1,36.333,48.3a.5.5,0,0,0-.078.346,18.272,18.272,0,0,1,.712,5.379c-.007.5-.005,1,0,1.527q0,.241,0,.486c.746,0,1.5,0,2.239.005.827,0,1.683.005,2.528.005,1.478,0,2.683-.009,3.793-.027a2.182,2.182,0,0,0,2.026-1.776,9.105,9.105,0,0,0,.122-1.5C47.678,52.578,47.682,52.418,47.689,52.261Z" fill="#007192"/><path d="M32.421,20.747c1.793,0,3.586-.008,5.379,0a2.935,2.935,0,0,1,3.152,3.144c.011,1.189.014,2.379,0,3.567a2.922,2.922,0,0,1-3.079,3.111q-5.463.039-10.928,0a2.9,2.9,0,0,1-3.057-3.122c0-1.245-.011-2.491,0-3.738a2.882,2.882,0,0,1,2.927-2.955c1.869-.026,3.738-.006,5.6-.006Zm-.008,1.7c-1.811,0-3.624-.008-5.435,0a1.228,1.228,0,0,0-1.391,1.4q-.009,1.784,0,3.567c0,.994.446,1.46,1.451,1.463q5.379.016,10.757,0c1,0,1.448-.468,1.457-1.466.012-1.152.009-2.3,0-3.453-.008-1.073-.443-1.506-1.518-1.509-1.773,0-3.548,0-5.322,0Z" transform="translate(-20.269 -17.604)" fill="#007192"/><path d="M29.033,20.492q.848,0,1.7,0l1.452,0,.241,0,3.361,0c.775,0,1.417,0,2.02,0a3.18,3.18,0,0,1,3.4,3.392c.012,1.372.012,2.506,0,3.572a3.175,3.175,0,0,1-3.328,3.358c-1.921.014-3.811.02-5.618.02s-3.6-.007-5.314-.02a3.153,3.153,0,0,1-3.3-3.371v-.288c0-1.131-.009-2.3,0-3.453a3.135,3.135,0,0,1,3.173-3.2C27.471,20.5,28.176,20.492,29.033,20.492ZM32.421,21q-.847,0-1.694,0t-1.694,0c-.854,0-1.558,0-2.213.013a2.62,2.62,0,0,0-2.68,2.708c-.011,1.149-.007,2.317,0,3.446v.288a2.657,2.657,0,0,0,2.809,2.873c1.718.014,3.5.02,5.31.02s3.694-.007,5.614-.02A2.677,2.677,0,0,0,40.7,27.456c.012-1.062.012-2.193,0-3.561A2.689,2.689,0,0,0,37.8,21c-.6,0-1.243,0-2.017,0l-3.111,0h0Zm-3.2,1.194,3.2,0h.25l3.3,0,1.774,0c1.214,0,1.759.545,1.767,1.757.011,1.347.011,2.446,0,3.457A1.527,1.527,0,0,1,37.8,29.125c-1.785.005-3.595.008-5.379.008s-3.594,0-5.379-.008a1.505,1.505,0,0,1-1.7-1.713c-.005-1.392-.005-2.526,0-3.569A1.477,1.477,0,0,1,26.977,22.2C27.636,22.2,28.348,22.193,29.217,22.193Zm2.947.5-2.947,0c-.868,0-1.579,0-2.237.006-.8,0-1.138.347-1.142,1.148-.005,1.041-.005,2.174,0,3.564,0,.871.34,1.212,1.2,1.214,1.784.005,3.594.008,5.378.008s3.593,0,5.378-.008c.85,0,1.2-.356,1.208-1.219.011-1.009.011-2.1,0-3.449-.007-.94-.327-1.258-1.268-1.261q-1.773,0-3.547,0H32.414Z" transform="translate(-20.269 -17.604)" fill="#007192"/><path d="M241.915,20.76a4.905,4.905,0,1,1-4.9,4.888,4.879,4.879,0,0,1,4.9-4.888Zm3.217,4.9a3.206,3.206,0,1,0-3.184,3.214,3.177,3.177,0,0,0,3.184-3.214Z" transform="translate(-201.154 -17.619)" fill="#007192"/><path d="M241.929,20.51a5.155,5.155,0,1,1,.009,10.31h-.015a5.154,5.154,0,0,1-.114-10.307h0Zm-.006,9.81h.013a4.655,4.655,0,0,0,.049-9.31h-.072a4.654,4.654,0,1,0,.01,9.309Zm0-8.109h.009a3.416,3.416,0,0,1,3.444,3.343h0l0,.1a3.436,3.436,0,0,1-3.434,3.463h-.021a3.456,3.456,0,1,1,0-6.911Zm2.956,3.51v-.063a2.923,2.923,0,0,0-2.946-2.948h-.008a2.956,2.956,0,1,0,0,5.911h.018A2.926,2.926,0,0,0,244.883,25.721Z" transform="translate(-201.154 -17.619)" fill="#007192"/><path d="M167.345,20.75a4.906,4.906,0,1,1-4.936,4.851A4.922,4.922,0,0,1,167.345,20.75Zm-.092,8.111a3.205,3.205,0,1,0-3.143-3.315A3.219,3.219,0,0,0,167.253,28.86Z" transform="translate(-137.834 -17.61)" fill="#007192"/><path d="M167.32,20.5h.027a5.177,5.177,0,0,1,5.145,5.151,5.177,5.177,0,0,1-5.164,5.161h-.035A5.156,5.156,0,0,1,167.32,20.5Zm.008,9.812A4.656,4.656,0,0,0,167.344,21h-.024a4.656,4.656,0,0,0-.023,9.312Zm.005-8.11h.089a3.459,3.459,0,1,1-3.562,3.337,3.37,3.37,0,0,1,1.049-2.368A3.488,3.488,0,0,1,167.334,22.2Zm-.011,6.41a2.955,2.955,0,0,0,.088-5.909h-.076a2.955,2.955,0,0,0-.076,5.909Z" transform="translate(-137.834 -17.61)" fill="#007192"/><path d="M59.528,41.662c-.9,0-1.81-.009-2.715,0-.633.008-.987.324-.984.841s.363.844.988.849q2.715.016,5.428,0c.62,0,.99-.345.99-.852s-.369-.831-.994-.838c-.9-.011-1.81,0-2.715,0Z" transform="translate(-47.382 -35.355)" fill="#007192"/><path d="M57.9,41.408c.543,0,1.085,0,1.628,0l1.6,0c.435,0,.791,0,1.121.006a1.1,1.1,0,1,1,0,2.19c-.9.005-1.814.008-2.715.008s-1.815,0-2.716-.008a1.109,1.109,0,0,1-1.237-1.1c0-.665.468-1.084,1.231-1.093C57.132,41.41,57.479,41.408,57.9,41.408Zm1.628.5v0h0c-.543,0-1.085,0-1.628,0-.419,0-.763,0-1.083.006-.338,0-.74.11-.737.59,0,.518.465.6.74.6.9.005,1.813.008,2.713.008s1.812,0,2.712-.008c.471,0,.741-.223.741-.6,0-.5-.468-.585-.747-.588-.328,0-.682-.006-1.115-.006l-1.595,0Z" transform="translate(-47.382 -35.355)" fill="#007192"/><path d="M294.916,170.767a17.957,17.957,0,0,1-1.335,6.9,6.849,6.849,0,0,1-1.834,2.618,3.156,3.156,0,0,1-4.367-.056,7.734,7.734,0,0,1-2.2-3.7,18.843,18.843,0,0,1,.4-12.638,6.707,6.707,0,0,1,1.758-2.6,3.174,3.174,0,0,1,4.537.018,8.456,8.456,0,0,1,2.277,4.1,18.644,18.644,0,0,1,.54,2.541c.129.932.154,1.878.224,2.818Zm-3.8,7.713c2.914-3.526,2.578-12.794-.038-15.445C288.343,165.834,288.347,175.739,291.116,178.479ZM289.4,161.963a4.185,4.185,0,0,0-1.133.828,11.1,11.1,0,0,0-1.43,2.6,16.811,16.811,0,0,0-.262,9.8,15.435,15.435,0,0,0,1.372,3.131,2.017,2.017,0,0,0,1.486,1.093A18.74,18.74,0,0,1,289.4,161.963Z" transform="translate(-241.266 -136.083)" fill="#007192"/><path d="M289.588,181.386a3.584,3.584,0,0,1-2.374-.968,7.962,7.962,0,0,1-2.271-3.814,19.162,19.162,0,0,1,.4-12.8,6.977,6.977,0,0,1,1.825-2.7A3.655,3.655,0,0,1,289.6,160.1a3.618,3.618,0,0,1,2.44,1.028,8.772,8.772,0,0,1,2.349,4.217,18.918,18.918,0,0,1,.547,2.575c.091.663.132,1.339.171,1.993.017.276.034.561.054.84v.022h0a17.98,17.98,0,0,1-1.355,7,7.01,7.01,0,0,1-1.9,2.71A3.62,3.62,0,0,1,289.588,181.386ZM289.6,160.6a3.165,3.165,0,0,0-2.1.881,6.483,6.483,0,0,0-1.692,2.508,18.674,18.674,0,0,0-.39,12.475,7.382,7.382,0,0,0,2.123,3.583,3.093,3.093,0,0,0,2.042.843,3.128,3.128,0,0,0,2-.791,6.534,6.534,0,0,0,1.765-2.525,17.489,17.489,0,0,0,1.314-6.794c-.021-.279-.038-.562-.054-.836-.039-.644-.079-1.31-.167-1.954a18.42,18.42,0,0,0-.533-2.507,8.311,8.311,0,0,0-2.206-3.984A3.129,3.129,0,0,0,289.6,160.6Zm.266,19.135-.472-.068a2.256,2.256,0,0,1-1.672-1.224l-.056-.106a15.071,15.071,0,0,1-1.337-3.077,17.054,17.054,0,0,1,.266-9.947,11.447,11.447,0,0,1,1.46-2.659,2.4,2.4,0,0,1,.83-.665c.131-.076.254-.149.367-.227l.788-.553-.42.867a18.441,18.441,0,0,0,.032,17.233Zm-1.046-17.12a1.25,1.25,0,0,0-.35.319,11.064,11.064,0,0,0-1.4,2.537,16.562,16.562,0,0,0-.257,9.661,14.7,14.7,0,0,0,1.3,2.972l.056.106a1.847,1.847,0,0,0,.789.8,19.506,19.506,0,0,1-1.946-8.268A19.919,19.919,0,0,1,288.823,162.611Zm2.312,16.238-.194-.192c-1.584-1.567-2.153-5.1-2.157-7.878s.549-6.316,2.117-7.92l.178-.182.179.181c1.284,1.3,2.114,4.2,2.165,7.566.053,3.479-.737,6.55-2.112,8.214Zm-.055-15.442c-1.1,1.333-1.8,4.175-1.8,7.371.005,3.239.7,6,1.817,7.315,1.193-1.621,1.87-4.452,1.821-7.661C292.876,167.4,292.16,164.7,291.08,163.407Z" transform="translate(-241.266 -136.083)" fill="#007192"/><path d="M59.537,41.662c.9,0,1.81-.008,2.715,0,.625.008.994.331.994.838s-.369.849-.99.852q-2.715.018-5.428,0c-.625,0-.985-.334-.988-.849s.351-.834.984-.841c.9-.012,1.81,0,2.715,0Z" transform="translate(-47.39 -35.355)" fill="#007192"/><path d="M57.909,41.408c.543,0,1.086,0,1.628,0l1.6,0c.434,0,.79,0,1.12.006a1.1,1.1,0,1,1,0,2.19c-.845.006-1.729.009-2.626.009s-1.839,0-2.8-.009a1.107,1.107,0,0,1-1.237-1.1c0-.665.468-1.084,1.231-1.093C57.142,41.41,57.488,41.408,57.909,41.408Zm1.629.5v0c-.271,0-.544,0-.815,0l-.814,0c-.419,0-.762,0-1.082.006-.338,0-.74.11-.737.59,0,.519.465.6.739.6.965.006,1.908.009,2.8.009s1.778,0,2.623-.009c.471,0,.741-.222.741-.6,0-.5-.468-.585-.747-.588-.328,0-.682-.006-1.114-.006l-1.6,0Z" transform="translate(-47.39 -35.355)" fill="#007192"/></g></svg>