<svg xmlns="http://www.w3.org/2000/svg" width="57.944" height="55.224" viewBox="0 0 57.944 55.224"><g transform="translate(0.26 0.25)"><g transform="translate(-0.01 0)"><g transform="translate(0 0)"><path d="M-.009,53.276A3.045,3.045,0,0,1,2.9,50.924c.37-.013.74,0,1.181,0,0-1.111-.012-2.17,0-3.228A10.371,10.371,0,0,1,4.2,45.8a4.783,4.783,0,0,1,4.749-3.831c2.094-.019,4.187,0,6.281,0h.652c.01-.226.025-.406.025-.587,0-1.158-.007-2.318,0-3.477a4.752,4.752,0,0,1,4.8-4.874q8.187-.061,16.378,0a4.786,4.786,0,0,1,4.842,4.905c.015,1.323,0,2.647,0,4.034h.647q3.365,0,6.731,0a4.96,4.96,0,0,1,5.127,5.8.83.83,0,0,1-1.659-.024c-.027-.334,0-.673-.021-1.009a3.116,3.116,0,0,0-3.2-3.077c-2.524-.015-5.048,0-7.571,0H30.165v3.463h15.8c1.087,0,1.484-.33,1.679-1.383a.816.816,0,0,1,.97-.766.852.852,0,0,1,.694.992,3.025,3.025,0,0,1-3.051,2.837c-2.431.012-4.86,0-7.291,0H30.144v2.131H54.135a2.962,2.962,0,0,1,3.3,3.285c0,.655,0,1.308,0,1.963a2.954,2.954,0,0,1-2.665,3.017.6.6,0,0,0-.593.507Q51.047,69.507,47.9,79.318a4.586,4.586,0,0,1-4.722,3.454H14.688a4.579,4.579,0,0,1-4.739-3.429c-.15-.462-.3-.923-.444-1.386-.21-.674-.04-1.12.484-1.286.505-.16.9.12,1.121.8.18.55.346,1.1.54,1.649a2.828,2.828,0,0,0,2.722,1.963q14.554.011,29.109,0A2.823,2.823,0,0,0,46.228,79q2.079-6.447,4.136-12.9.991-3.093,1.981-6.185c.067-.21.12-.423.192-.674H5.282c.538,1.691,1.061,3.342,1.589,4.992q1.416,4.426,2.837,8.85c.04.124.087.247.115.375a.842.842,0,0,1-.547,1.028.812.812,0,0,1-1.043-.514c-.22-.595-.4-1.2-.595-1.807C6.32,68.039,5,63.916,3.7,59.787a.69.69,0,0,0-.76-.586A3.123,3.123,0,0,1-.01,56.866V53.276Zm37.688,4.252h5.5q5.553,0,11.105,0a1.288,1.288,0,0,0,1.457-1.445c0-.561,0-1.121,0-1.683,0-1.446-.346-1.8-1.77-1.8H3.161c-1.016.007-1.481.463-1.487,1.463,0,.6,0,1.2,0,1.8,0,1.26.412,1.67,1.683,1.67q8.5,0,16.994,0h.6c.033-.193.054-.321.075-.45a3.218,3.218,0,0,1,3.282-2.855c3.309-.027,6.618-.016,9.927,0A3.1,3.1,0,0,1,37.1,55.874a10.612,10.612,0,0,1,.583,1.655Zm2.575-15.6c0-1.295,0-2.543,0-3.79a3.175,3.175,0,0,0-3.456-3.45q-7.875,0-15.751,0a5.408,5.408,0,0,0-.947.075,3.122,3.122,0,0,0-2.434,3.577H18.2c.916,0,1.831-.009,2.747,0a.8.8,0,0,1,.859.773.806.806,0,0,1-.7.877,2.555,2.555,0,0,1-.558.025c-.967,0-1.932,0-2.924,0v1.9h22.63ZM5.821,47.082a1.961,1.961,0,0,0,.2.022q7.906,0,15.814,0a1.347,1.347,0,0,0,1.455-1.316c.109-.617.444-.907.967-.833.5.07.76.484.692,1.1a3.019,3.019,0,0,1-3.14,2.738q-7.655.007-15.311,0H5.8v2.085H28.377V43.643H9.324c-.187,0-.375,0-.561.006a3.132,3.132,0,0,0-2.942,3.434Zm30,10.405A1.562,1.562,0,0,0,34.037,55.9q-4.761-.007-9.521,0a2.75,2.75,0,0,0-.665.069,1.464,1.464,0,0,0-1.106,1.523H35.819Z" transform="translate(0.01 -28.049)" fill="#007192"/><path d="M28.821,32.744c2.676,0,5.459.009,8.272.028a5.075,5.075,0,0,1,3.632,1.489,5.265,5.265,0,0,1,1.459,3.664c.01.914.008,1.811.005,2.761q0,.509,0,1.026h7.128a5.209,5.209,0,0,1,5.375,6.076,1.085,1.085,0,0,1-1.073,1.024H53.6a1.071,1.071,0,0,1-1.063-1.059c-.016-.193-.015-.386-.014-.573,0-.153,0-.3-.007-.442a2.882,2.882,0,0,0-2.95-2.84c-.926-.005-1.927-.008-3.152-.008q-2.209,0-4.418,0H30.415v2.963H45.965c.965,0,1.26-.242,1.433-1.179a1.067,1.067,0,0,1,1.055-.983,1.335,1.335,0,0,1,.2.015,1.094,1.094,0,0,1,.906,1.255,3.27,3.27,0,0,1-3.3,3.072c-.863,0-1.79.006-2.918.006q-2.187,0-4.374,0H30.394v1.631H54.135a3.208,3.208,0,0,1,3.547,3.535q0,.328,0,.654c0,.429,0,.873,0,1.311A3.213,3.213,0,0,1,54.8,59.434c-.245.028-.3.078-.383.334C52.425,66,50.4,72.34,48.436,78.469l-.3.925a4.841,4.841,0,0,1-4.96,3.628H14.688a5.24,5.24,0,0,1-3.14-.911A5.187,5.187,0,0,1,9.711,79.42c-.148-.455-.3-.924-.445-1.389-.356-1.144.334-1.5.647-1.6a1.132,1.132,0,0,1,.342-.056c.345,0,.815.176,1.092,1.018.06.183.118.365.176.548.115.361.234.735.362,1.1a2.571,2.571,0,0,0,2.486,1.8c4.828,0,9.725.006,14.554.006s9.726,0,14.554-.006a2.576,2.576,0,0,0,2.509-1.91c.933-2.894,1.875-5.838,2.786-8.686q.675-2.108,1.35-4.216l.385-1.2q.8-2.492,1.6-4.984c.036-.112.068-.227.1-.348H5.624L6.071,60.9c.348,1.094.691,2.176,1.037,3.258Q8.1,67.248,9.09,70.338l.856,2.668.03.089a2.97,2.97,0,0,1,.092.307,1.085,1.085,0,0,1-.717,1.321A1.188,1.188,0,0,1,9,74.778a1.057,1.057,0,0,1-1-.72c-.17-.46-.319-.933-.463-1.39q-.067-.214-.136-.428L6.57,69.645c-1.025-3.205-2.084-6.519-3.113-9.783-.1-.329-.188-.395-.533-.411a3.35,3.35,0,0,1-3.17-2.5l-.014-.04V53.026h.076a3.256,3.256,0,0,1,3.078-2.353c.123,0,.254-.007.413-.007l.362,0h.165q0-.37,0-.733c0-.774,0-1.5.007-2.248,0-.118,0-.236,0-.355a8.176,8.176,0,0,1,.114-1.589,4.946,4.946,0,0,1,1.754-2.9,5.178,5.178,0,0,1,3.238-1.13c.734-.007,1.521-.01,2.477-.01l1.9,0,1.9,0h.415c.007-.122.012-.23.012-.337q0-.68,0-1.36c0-.694,0-1.413,0-2.119a5.229,5.229,0,0,1,1.444-3.637,5.039,5.039,0,0,1,3.606-1.485C23.345,32.754,26.074,32.744,28.821,32.744Zm13.763,9.468h-.9v-.25q0-.647,0-1.278c0-.948.005-1.844-.005-2.754a4.528,4.528,0,0,0-4.594-4.658c-2.811-.019-5.593-.028-8.269-.028-2.747,0-5.474.01-8.106.029A4.493,4.493,0,0,0,16.162,37.9c-.006.7,0,1.42,0,2.113q0,.681,0,1.362c0,.13-.007.259-.015.4,0,.064-.007.131-.011.2l-.011.238h-.891l-1.9,0-1.9,0c-.954,0-1.74,0-2.472.01a4.514,4.514,0,0,0-4.507,3.631,7.8,7.8,0,0,0-.1,1.492c0,.12,0,.24,0,.36-.012.739-.009,1.467-.007,2.239q0,.487,0,.985v.25h-.25l-.42,0-.357,0c-.152,0-.277,0-.394.006A2.766,2.766,0,0,0,.24,53.323v3.5a2.878,2.878,0,0,0,2.709,2.128.927.927,0,0,1,.986.761c1.028,3.262,2.087,6.576,3.112,9.781l.829,2.595q.069.215.136.43c.142.451.289.918.455,1.366A.555.555,0,0,0,9,74.278a.689.689,0,0,0,.2-.032.6.6,0,0,0,.377-.733,2.558,2.558,0,0,0-.077-.257l-.032-.1L8.614,70.49Q7.622,67.4,6.632,64.308c-.346-1.082-.69-2.165-1.038-3.259l-.551-1.734-.1-.326H52.869l-.091.319c-.026.089-.049.174-.071.255-.04.148-.079.288-.123.427q-.8,2.492-1.6,4.984l-.385,1.2q-.676,2.108-1.35,4.216c-.911,2.848-1.853,5.792-2.787,8.687a3.056,3.056,0,0,1-2.985,2.256c-4.828,0-9.725.006-14.555.006s-9.726,0-14.555-.006a3.091,3.091,0,0,1-2.957-2.13c-.131-.368-.251-.746-.367-1.111-.058-.181-.115-.363-.174-.543-.147-.447-.355-.674-.617-.674a.634.634,0,0,0-.191.032c-.155.049-.568.18-.321.973.144.462.3.93.443,1.383a4.343,4.343,0,0,0,4.5,3.256H43.179a4.33,4.33,0,0,0,4.484-3.281l.3-.925c1.961-6.128,3.989-12.465,5.976-18.7a.837.837,0,0,1,.8-.679,2.693,2.693,0,0,0,2.443-2.771c0-.435,0-.878,0-1.306q0-.327,0-.655a2.72,2.72,0,0,0-3.047-3.035H29.894V48.539h9.071q2.188,0,4.374,0c1.127,0,2.054,0,2.916-.006a2.775,2.775,0,0,0,2.8-2.6c.025-.407-.155-.679-.482-.73a.831.831,0,0,0-.122-.009c-.3,0-.494.193-.564.573a1.641,1.641,0,0,1-1.924,1.588H29.915V43.393H41.992q2.209,0,4.418,0c1.226,0,2.228,0,3.155.008a3.365,3.365,0,0,1,3.446,3.314c.008.158.008.317.008.47,0,.185,0,.359.013.532a.58.58,0,0,0,.572.6h.012a.59.59,0,0,0,.577-.586,4.711,4.711,0,0,0-4.879-5.515h-6.73Zm-11.544-7.77H36.8a3.422,3.422,0,0,1,3.706,3.7c0,.828,0,1.657,0,2.5q0,.515,0,1.038h.357l-.854.854,0-.354H17.377v-2.4H20.55l.24,0a1.221,1.221,0,0,0,.263-.022.559.559,0,0,0,.5-.625.55.55,0,0,0-.613-.531c-.343-.005-.716-.007-1.173-.007l-1.57,0h-.738l-.041-.2a3.242,3.242,0,0,1,.519-2.448,3.305,3.305,0,0,1,2.115-1.427,5.612,5.612,0,0,1,.992-.079C24.107,34.443,27.376,34.442,31.041,34.442ZM40,41.68q0-.524,0-1.039c0-.842,0-1.671,0-2.5a2.921,2.921,0,0,0-3.206-3.2H31.041c-3.664,0-6.933,0-9.994,0a5.121,5.121,0,0,0-.9.071A2.886,2.886,0,0,0,17.878,38.1H18.2l1.57,0c.46,0,.835,0,1.181.007a1.08,1.08,0,0,1,.211,2.144,1.7,1.7,0,0,1-.372.034l-.24,0H17.877v1.4ZM9.065,43.392H28.627v7.731H5.55V48.539H6.5l10.208,0,5.1,0A2.772,2.772,0,0,0,24.7,46.024c.031-.277.009-.752-.479-.821a.86.86,0,0,0-.119-.009c-.195,0-.465.066-.567.638a1.591,1.591,0,0,1-1.7,1.522q-5.271,0-10.543,0H6.021a1.062,1.062,0,0,1-.154-.014l-.074-.01L5.6,47.308l-.03-.186a3.1,3.1,0,0,1,.683-2.411A3.479,3.479,0,0,1,8.748,43.4C8.865,43.393,8.978,43.392,9.065,43.392Zm19.062.5H9.065c-.08,0-.184,0-.287.007a2.978,2.978,0,0,0-2.13,1.125,2.64,2.64,0,0,0-.6,1.832l10.517,0,5.271,0c.72,0,1.071-.321,1.209-1.109.162-.915.733-1.051,1.059-1.051a1.361,1.361,0,0,1,.189.014,1.117,1.117,0,0,1,.906,1.371,3.256,3.256,0,0,1-1.085,2.14,3.442,3.442,0,0,1-2.3.821q-5.1,0-10.206,0H6.05v1.585H28.127ZM3.441,52.352H53.976c1.567,0,2.02.459,2.02,2.048q0,.281,0,.561c0,.368,0,.749,0,1.124a1.528,1.528,0,0,1-1.707,1.693q-3.7,0-7.4,0H37.5l-.058-.169c-.07-.2-.128-.4-.184-.59A5.133,5.133,0,0,0,36.878,56a2.841,2.841,0,0,0-2.645-1.527c-1.638-.007-3.542-.014-5.405-.014-1.655,0-3.133.005-4.519.017a2.958,2.958,0,0,0-3.038,2.647c-.021.128-.042.255-.075.45l-.035.208-6.472,0-11.331,0c-1.409,0-1.933-.52-1.933-1.92q0-.3,0-.6c0-.393,0-.8,0-1.2a1.527,1.527,0,0,1,1.735-1.711ZM50.587,57.28l3.7,0c.827,0,1.2-.369,1.207-1.2,0-.372,0-.751,0-1.118q0-.281,0-.563c0-1.3-.241-1.548-1.52-1.548H3.161c-.884.007-1.232.347-1.237,1.214,0,.4,0,.8,0,1.194q0,.3,0,.6c0,1.128.295,1.42,1.433,1.42l11.331,0,6.049,0c.015-.089.027-.164.039-.24A3.468,3.468,0,0,1,24.3,53.971c1.387-.011,2.867-.017,4.523-.017,1.864,0,3.769.007,5.407.014a3.351,3.351,0,0,1,3.08,1.785,5.491,5.491,0,0,1,.423,1.125c.039.131.079.265.122.4h5.324ZM29.74,55.643q2.148,0,4.3,0a1.812,1.812,0,0,1,2.031,1.831l.011.261H22.509L22.5,57.5a1.722,1.722,0,0,1,1.3-1.78,2.938,2.938,0,0,1,.725-.076Zm5.8,1.594c-.121-.724-.627-1.09-1.506-1.092q-4.761-.007-9.521,0a2.464,2.464,0,0,0-.6.061A1.216,1.216,0,0,0,23,57.238Z" transform="translate(0.01 -28.049)" fill="#007192"/><path d="M261.252,227.868c.877,0,1.755-.01,2.632,0a1.8,1.8,0,0,1,1.777,2.485q-.5,1.6-1.019,3.2a1.57,1.57,0,0,1-1.7,1.244c-1.475.01-2.949.013-4.423,0a1.571,1.571,0,0,1-1.7-1.717q-.018-1.735,0-3.471a1.587,1.587,0,0,1,1.747-1.732c.9-.013,1.791,0,2.687,0Zm-2.723,5.244c1.436,0,2.831,0,4.226-.01a.421.421,0,0,0,.319-.223c.361-1.073.7-2.154,1.063-3.288h-5.608Z" transform="translate(-218.321 -193.714)" fill="#007192"/><path d="M262.854,227.614c.4,0,.727,0,1.034.007a2.146,2.146,0,0,1,1.768.837,2.181,2.181,0,0,1,.244,1.972c-.317,1.016-.65,2.062-1.02,3.2a1.811,1.811,0,0,1-1.934,1.417c-.854.006-1.623.009-2.35.009s-1.412,0-2.077-.009a1.823,1.823,0,0,1-1.95-1.965c-.012-1.153-.012-2.323,0-3.476a1.835,1.835,0,0,1,1.994-1.98c.313,0,.648-.007,1.055-.007.43,0,.86,0,1.291,0l.343,0C261.786,227.618,262.32,227.614,262.854,227.614Zm-2.258,6.94c.726,0,1.493,0,2.346-.009a1.331,1.331,0,0,0,1.462-1.072c.369-1.134.7-2.178,1.018-3.192a1.7,1.7,0,0,0-.172-1.53,1.661,1.661,0,0,0-1.371-.63c-.3,0-.63-.007-1.026-.007s-.8,0-1.2,0h0l-.4,0c-.546,0-1.09,0-1.635,0-.4,0-.737,0-1.048.007a1.342,1.342,0,0,0-1.5,1.485c-.012,1.15-.012,2.316,0,3.466a1.325,1.325,0,0,0,1.455,1.47C259.187,234.551,259.865,234.554,260.6,234.554Zm-2.317-5.214h6.2l-.1.326-.23.722c-.282.887-.549,1.725-.834,2.57a.663.663,0,0,1-.556.394c-.911.01-1.838.011-2.625.011h-1.851Zm5.516.5h-5.016v3.022h1.351c.784,0,1.708,0,2.617-.011a.253.253,0,0,0,.094-.064c.282-.837.547-1.67.827-2.551Z" transform="translate(-218.321 -193.714)" fill="#007192"/><path d="M75.026,234.776c-.746,0-1.494.012-2.241,0a1.52,1.52,0,0,1-1.553-1.132c-.378-1.132-.746-2.266-1.09-3.408a1.786,1.786,0,0,1,1.753-2.378c1.773-.019,3.547-.016,5.32,0a1.583,1.583,0,0,1,1.725,1.756q.016,1.709,0,3.417a1.586,1.586,0,0,1-1.731,1.749c-.728.012-1.457,0-2.184,0ZM71.7,229.557c.228.716.427,1.35.632,1.984.16.5.189,1.185.531,1.43.367.261,1.033.114,1.569.12.925.01,1.851,0,2.789,0v-3.537Z" transform="translate(-59.552 -193.694)" fill="#007192"/><path d="M76.364,235.032l-.764,0-.573,0h-.1l-.559,0-.665,0c-.356,0-.647,0-.918-.009a1.77,1.77,0,0,1-1.784-1.3c-.455-1.362-.791-2.415-1.092-3.415a2.035,2.035,0,0,1,1.99-2.7c.817-.009,1.676-.014,2.553-.014s1.794,0,2.773.014a1.83,1.83,0,0,1,1.973,2c.01,1.135.01,2.286,0,3.422a1.838,1.838,0,0,1-1.977,2C76.959,235.03,76.688,235.032,76.364,235.032Zm-1.232-.5.47,0,.762,0c.322,0,.59,0,.843-.006a1.344,1.344,0,0,0,1.485-1.5c.01-1.132.01-2.28,0-3.412a1.338,1.338,0,0,0-1.477-1.509c-.977-.009-1.883-.013-2.768-.013s-1.732,0-2.547.013a1.536,1.536,0,0,0-1.517,2.057c.3.995.634,2.044,1.087,3.4a1.267,1.267,0,0,0,1.321.961c.267.006.555.009.907.009l.663,0,.665,0Zm-1.591-1.15a1.412,1.412,0,0,1-.824-.2,1.752,1.752,0,0,1-.51-1.1c-.036-.164-.07-.318-.114-.454-.148-.458-.294-.917-.448-1.4l-.185-.582-.1-.326H77.47v4.037h-.25l-1.645,0c-.445,0-.81,0-1.147-.006H74.4c-.128,0-.264.008-.408.017S73.689,233.377,73.541,233.377Zm-1.5-3.57.082.257c.154.485.3.944.447,1.4.052.159.09.333.126.5.07.322.15.686.312.8a.94.94,0,0,0,.534.109c.133,0,.278-.009.418-.018s.3-.018.439-.018h.036c.335,0,.7.006,1.141.006l1.4,0v-3.037Z" transform="translate(-59.552 -193.694)" fill="#007192"/><path d="M147.668,289.2c0,.671.016,1.344,0,2.016a1.526,1.526,0,0,1-1.626,1.607q-1.875.018-3.75,0a1.533,1.533,0,0,1-1.6-1.58q-.027-2.014,0-4.03a1.51,1.51,0,0,1,1.523-1.6q1.958-.049,3.918,0a1.506,1.506,0,0,1,1.542,1.574c0,.037,0,.075,0,.112v1.9h0Zm-1.708-1.878H142.4v3.787h3.562Z" transform="translate(-119.59 -242.791)" fill="#007192"/><path d="M144.215,285.342c.632,0,1.277.007,1.918.022a1.752,1.752,0,0,1,1.786,1.811c0,.043,0,.084,0,.125v2.153h0q0,.18,0,.361c0,.461.007.939-.008,1.41a1.774,1.774,0,0,1-1.873,1.849c-.663.006-1.314.01-1.934.01s-1.233,0-1.821-.01a1.789,1.789,0,0,1-1.848-1.826c-.017-1.281-.017-2.639,0-4.036a1.751,1.751,0,0,1,1.767-1.843C142.865,285.351,143.542,285.342,144.215,285.342Zm3.207,3.255v-1.3c0-.034,0-.068,0-.1a1.257,1.257,0,0,0-1.3-1.334c-.637-.015-1.279-.022-1.907-.022-.669,0-1.341.008-2,.025a1.262,1.262,0,0,0-1.279,1.349c-.017,1.393-.017,2.747,0,4.024a1.28,1.28,0,0,0,1.354,1.333c.586.006,1.2.01,1.816.01s1.267,0,1.929-.01a1.281,1.281,0,0,0,1.379-1.364c.014-.462.011-.934.007-1.391,0-.206,0-.412,0-.618v-.608Zm-5.275-1.525h4.062v4.287h-4.062Zm3.562.5h-3.062v3.287h3.062Z" transform="translate(-119.59 -242.791)" fill="#007192"/><path d="M198.848,289.16c0-.671-.019-1.344,0-2.014a1.5,1.5,0,0,1,1.557-1.557q1.931-.043,3.862,0a1.519,1.519,0,0,1,1.56,1.619q.022,1.987,0,3.975a1.54,1.54,0,0,1-1.623,1.617q-1.875.02-3.75,0a1.519,1.519,0,0,1-1.605-1.569c-.024-.689,0-1.38,0-2.071Zm1.719-1.875v3.8h3.541v-3.8Z" transform="translate(-169.039 -242.77)" fill="#007192"/><path d="M202.34,285.317c.643,0,1.294.007,1.937.021a1.762,1.762,0,0,1,1.8,1.865c.016,1.4.016,2.7,0,3.981a1.8,1.8,0,0,1-1.87,1.864c-.657.007-1.3.011-1.926.011s-1.237,0-1.83-.011a1.771,1.771,0,0,1-1.852-1.81c-.017-.482-.012-.969-.008-1.44q0-.186,0-.373v-.265c0-.207,0-.414,0-.621,0-.459-.008-.934.008-1.4a1.753,1.753,0,0,1,1.8-1.8C201.046,285.325,201.7,285.317,202.34,285.317Zm-.055,7.242c.619,0,1.265,0,1.92-.011a1.3,1.3,0,0,0,1.376-1.371c.016-1.272.016-2.57,0-3.968a1.277,1.277,0,0,0-1.316-1.371c-.638-.014-1.286-.021-1.925-.021s-1.287.007-1.926.021a1.254,1.254,0,0,0-1.313,1.316c-.016.457-.012.926-.008,1.38v.031l0,0,0,.6c0,.215,0,.429,0,.644,0,.466-.008.948.008,1.418a1.273,1.273,0,0,0,1.358,1.328C201.053,292.556,201.666,292.56,202.286,292.56Zm-1.969-5.524h4.041v4.3h-4.041Zm3.541.5h-3.041v3.3h3.041Z" transform="translate(-169.039 -242.77)" fill="#007192"/><path d="M202.3,234.772c-.616,0-1.232.014-1.848,0a1.523,1.523,0,0,1-1.628-1.605q-.034-1.848,0-3.7a1.515,1.515,0,0,1,1.619-1.616q1.875-.034,3.751,0a1.535,1.535,0,0,1,1.611,1.631q.022,1.819,0,3.64a1.544,1.544,0,0,1-1.6,1.643c-.634.021-1.269,0-1.9,0h0Zm1.8-5.2h-3.561v3.49H204.1Z" transform="translate(-169.011 -193.69)" fill="#007192"/><path d="M203.465,235.028c-.195,0-.389,0-.584,0-.386,0-.771,0-1.153,0l-.575,0c-.272,0-.5,0-.708-.008a1.779,1.779,0,0,1-1.871-1.85c-.022-1.229-.022-2.476,0-3.7a1.769,1.769,0,0,1,1.864-1.861c.638-.011,1.27-.017,1.881-.017.636,0,1.269.006,1.88.019a1.789,1.789,0,0,1,1.856,1.877c.015,1.209.015,2.436,0,3.646a1.784,1.784,0,0,1-1.842,1.889C203.991,235.024,203.753,235.028,203.465,235.028Zm-1.165-.506c.2,0,.39,0,.585,0s.387,0,.58,0c.282,0,.515,0,.732-.011a1.291,1.291,0,0,0,1.359-1.4c.015-1.207.015-2.429,0-3.634a1.291,1.291,0,0,0-1.366-1.384c-.608-.012-1.237-.019-1.87-.019-.607,0-1.237.006-1.871.017a1.266,1.266,0,0,0-1.373,1.37c-.022,1.224-.022,2.464,0,3.687a1.274,1.274,0,0,0,1.384,1.36c.207.006.427.008.694.008l.572,0Zm2.05-1.214h-4.061v-3.99h4.061Zm-3.561-.5h3.061v-2.99h-3.061Z" transform="translate(-169.011 -193.69)" fill="#007192"/><path d="M147.668,231.358c0,.616.019,1.232,0,1.848a1.5,1.5,0,0,1-1.556,1.559q-1.931.038-3.864,0a1.515,1.515,0,0,1-1.556-1.566q-.029-1.875,0-3.751a1.51,1.51,0,0,1,1.536-1.584q1.958-.049,3.919,0a1.483,1.483,0,0,1,1.518,1.536c.024.652,0,1.307.006,1.96Zm-5.277,1.7h3.559v-3.49h-3.559Z" transform="translate(-119.592 -193.693)" fill="#007192"/><path d="M144.178,235.033c-.643,0-1.294-.006-1.937-.019a1.771,1.771,0,0,1-1.8-1.812c-.019-1.2-.019-2.462,0-3.759a1.753,1.753,0,0,1,1.78-1.83c.637-.016,1.291-.024,1.943-.024s1.321.008,1.988.024a1.728,1.728,0,0,1,1.762,1.777c.016.445.013.9.009,1.333,0,.209,0,.425,0,.636v.439q0,.072,0,.143c0,.416.008.847-.007,1.274a1.752,1.752,0,0,1-1.8,1.8C145.472,235.027,144.821,235.033,144.178,235.033Zm-.015-6.945c-.648,0-1.3.008-1.93.024a1.264,1.264,0,0,0-1.292,1.337c-.019,1.292-.019,2.552,0,3.744a1.263,1.263,0,0,0,1.311,1.32c.639.013,1.287.019,1.927.019s1.288-.006,1.927-.019a1.253,1.253,0,0,0,1.311-1.318c.015-.415.011-.839.007-1.25,0-.2,0-.392,0-.588v-.606l0,0q0-.019,0-.037c0-.431.007-.876-.009-1.31a1.229,1.229,0,0,0-1.275-1.3C145.476,228.1,144.811,228.089,144.163,228.089Zm2.038,5.217h-4.059v-3.99H146.2Zm-3.559-.5H145.7v-2.99h-3.059Z" transform="translate(-119.592 -193.693)" fill="#007192"/><path d="M256.819,289.161c0-.653-.015-1.307,0-1.959a1.547,1.547,0,0,1,1.611-1.637c1.045-.025,2.091-.03,3.134,0a1.528,1.528,0,0,1,1.472,2.017c-.3,1.037-.622,2.071-.992,3.084a3.513,3.513,0,0,1-4.027,2.076,1.617,1.617,0,0,1-1.2-1.571c0-.037,0-.075,0-.112v-1.9Zm1.7,1.929a1.639,1.639,0,0,0,1.818-.791,31.174,31.174,0,0,0,1.049-3.009H258.52Z" transform="translate(-218.323 -242.751)" fill="#007192"/><path d="M260,285.295c.546,0,1.075.008,1.575.025a1.777,1.777,0,0,1,1.7,2.336c-.35,1.21-.667,2.2-1,3.1a3.778,3.778,0,0,1-3.491,2.334,3.42,3.42,0,0,1-.832-.1,1.858,1.858,0,0,1-1.388-1.8c0-.044,0-.084,0-.125v-1.9c0-.2,0-.4,0-.593,0-.45-.006-.915.007-1.374a1.793,1.793,0,0,1,1.855-1.879C258.988,285.3,259.5,285.295,260,285.295Zm-1.21,7.3a3.264,3.264,0,0,0,3.021-2.005c.327-.894.64-1.869.987-3.068a1.278,1.278,0,0,0-1.24-1.7c-.494-.016-1.018-.025-1.558-.025-.495,0-1.005.007-1.561.02a1.3,1.3,0,0,0-1.367,1.393c-.013.45-.01.911-.007,1.356q0,.173,0,.346h0v2.153c0,.034,0,.068,0,.1a1.373,1.373,0,0,0,1.01,1.338A2.92,2.92,0,0,0,258.792,292.591Zm-.522-5.552h3.465l-.112.33c-.1.3-.2.613-.294.912a18.127,18.127,0,0,1-.765,2.121,1.865,1.865,0,0,1-2.069.936l-.227-.021Zm2.771.5H258.77v3.315a1.27,1.27,0,0,0,1.341-.66,17.483,17.483,0,0,0,.742-2.063C260.914,287.937,260.976,287.738,261.041,287.539Z" transform="translate(-218.323 -242.751)" fill="#007192"/><path d="M94.186,289.213c0,.634.013,1.269,0,1.9a1.582,1.582,0,0,1-1.638,1.677,3.393,3.393,0,0,1-3.64-2.509c-.276-.851-.561-1.7-.823-2.554a1.563,1.563,0,0,1,1.566-2.167q1.428-.027,2.855,0a1.571,1.571,0,0,1,1.679,1.689c.015.653,0,1.307,0,1.96Zm-1.729,1.858V287.28H89.709c.291.914.555,1.785.847,2.644A1.655,1.655,0,0,0,92.457,291.071Z" transform="translate(-74.794 -242.755)" fill="#007192"/><path d="M91.076,285.3c.476,0,.957,0,1.432.014a1.824,1.824,0,0,1,1.924,1.933c.01.456.008.918.005,1.364q0,.2,0,.405v.2c0,.2,0,.392,0,.589,0,.432.006.88-.006,1.321a1.836,1.836,0,0,1-1.875,1.92c-.087,0-.175.007-.26.007a3.609,3.609,0,0,1-3.631-2.688q-.12-.372-.242-.743c-.194-.593-.4-1.206-.582-1.815a1.81,1.81,0,0,1,1.8-2.49C90.118,285.3,90.6,285.3,91.076,285.3Zm2.861,4.163h0v-.25c0-.2,0-.4,0-.6,0-.443.005-.9-.005-1.35a1.323,1.323,0,0,0-1.434-1.445c-.471-.009-.949-.013-1.422-.013s-.951,0-1.423.013a1.316,1.316,0,0,0-1.332,1.844c.185.6.385,1.215.579,1.806q.122.372.243.744A3.1,3.1,0,0,0,92.3,292.55c.077,0,.156,0,.235-.006a1.332,1.332,0,0,0,1.4-1.434c.011-.433.008-.876.005-1.3Q93.937,289.634,93.937,289.463Zm-4.569-2.433h3.339v4.27l-.227.021c-.093.009-.186.013-.275.013A1.865,1.865,0,0,1,90.319,290c-.208-.61-.4-1.216-.6-1.857q-.123-.391-.25-.792Zm2.839.5H90.051L90.2,288c.2.638.389,1.241.595,1.845a1.364,1.364,0,0,0,1.412.99h0Z" transform="translate(-74.794 -242.755)" fill="#007192"/><path d="M300.14,24.14c.147-.748-.268-1.773.832-1.821,1.262-.054.76,1.094.946,1.816.3,0,.6-.009.892,0a.872.872,0,0,1,.937.838.857.857,0,0,1-.926.839c-.294.01-.589,0-.955,0,0,.364.01.676,0,.988a.849.849,0,0,1-.817.89.862.862,0,0,1-.857-.857c-.013-.166,0-.336-.006-.5,0-.147-.013-.294-.026-.519-.345,0-.674.015-1,0a.812.812,0,0,1-.824-.814.824.824,0,0,1,.794-.85c.33-.028.664-.006,1.015-.006Z" transform="translate(-253.617 -18.973)" fill="#007192"/><path d="M301.055,22.068a1.049,1.049,0,0,1,.785.269,1.5,1.5,0,0,1,.279,1.128c0,.142,0,.288.01.42l.355,0c.128,0,.234,0,.334.005A1.122,1.122,0,0,1,304,24.974a1.107,1.107,0,0,1-1.167,1.091c-.1,0-.208.005-.338.005l-.375,0v.076c0,.232,0,.451-.005.671a1.1,1.1,0,0,1-1.061,1.129h-.025a1.116,1.116,0,0,1-1.087-1.087c-.009-.108-.007-.214-.006-.316,0-.07,0-.135,0-.2,0-.087-.006-.174-.012-.276h-.083l-.313,0c-.147,0-.269,0-.384-.009A1.058,1.058,0,0,1,298.079,25a1.079,1.079,0,0,1,1.023-1.1c.12-.01.25-.015.407-.015.1,0,.207,0,.312,0l.1,0c.009-.126.008-.26.007-.391,0-.584-.009-1.383,1.034-1.429Zm.862,2.318h-.194l-.048-.188a2.9,2.9,0,0,1-.056-.737c0-.325.005-.631-.134-.772a.671.671,0,0,0-.5-.119c-.518.023-.56.245-.556.926a3.5,3.5,0,0,1-.042.693l-.015.077-.129.124h-.1c-.11,0-.219,0-.326,0s-.2,0-.3,0c-.142,0-.258,0-.365.014a.576.576,0,0,0-.566.6.566.566,0,0,0,.589.568c.1.006.218.008.356.008l.306,0c.107,0,.216,0,.326,0h.237l.013.237c0,.063.007.119.01.171.008.137.014.245.016.356,0,.073,0,.148,0,.22,0,.094,0,.184,0,.268a.62.62,0,0,0,.588.628h.014a.6.6,0,0,0,.573-.65c.009-.208.007-.421,0-.646,0-.107,0-.217,0-.332v-.25h.25c.231,0,.434,0,.626,0,.124,0,.226,0,.32,0,.425-.016.687-.241.685-.588s-.276-.573-.7-.59c-.093,0-.194,0-.315,0C302.3,24.382,302.109,24.386,301.917,24.386Z" transform="translate(-253.617 -18.973)" fill="#007192"/><path d="M346.432,0a.822.822,0,1,1-.8.827.818.818,0,0,1,.8-.827Z" transform="translate(-293.829 0)" fill="#007192"/><path d="M346.437-.25A1.067,1.067,0,0,1,347.5.814a1.067,1.067,0,0,1-1.05,1.08h-.01A1.067,1.067,0,0,1,345.38.829,1.068,1.068,0,0,1,346.429-.25Zm0,1.644h.005A.573.573,0,0,0,347,.817a.566.566,0,0,0-.558-.567h0a.572.572,0,0,0,0,1.144Z" transform="translate(-293.829 0)" fill="#007192"/><path d="M166.413,58.063c-1.439,0-2.879.006-4.318,0-.59,0-.956-.3-1.009-.766-.06-.535.349-.911,1.013-.913q4.011,0,8.02,0c1.388,0,1.611-.18,1.956-1.517a.8.8,0,0,1,.911-.655.832.832,0,0,1,.746.895,3.053,3.053,0,0,1-3.056,2.957h-4.262Z" transform="translate(-136.939 -46.081)" fill="#007192"/><path d="M163.945,58.315c-.722,0-1.31,0-1.851,0a1.14,1.14,0,0,1-1.256-.988.992.992,0,0,1,.24-.793,1.341,1.341,0,0,1,1.021-.4h8.02c1.269,0,1.4-.1,1.714-1.329a1.053,1.053,0,0,1,1.173-.842,1.075,1.075,0,0,1,.977,1.139,3.008,3.008,0,0,1-.953,2.231,3.511,3.511,0,0,1-2.345.98h-4.271Zm1.119-1.685H162.1a.857.857,0,0,0-.649.23.5.5,0,0,0-.116.4c.052.47.5.542.761.544.54,0,1.127,0,1.848,0l2.365,0h4.363a2.821,2.821,0,0,0,2.81-2.7.585.585,0,0,0-.516-.65c-.027,0-.053,0-.077,0a.548.548,0,0,0-.573.472c-.374,1.449-.7,1.7-2.2,1.7h-5.055Z" transform="translate(-136.939 -46.081)" fill="#007192"/></g></g></g></svg>