<svg xmlns="http://www.w3.org/2000/svg" width="77.059" height="84.084" viewBox="0 0 77.059 84.084"><g transform="translate(0.005 -0.001)"><g transform="translate(-0.005 0.001)"><path d="M46.257,81.268h27.99V80.29q0-13.922.007-27.845a12.779,12.779,0,0,0-3.925-9.5c-2.386-2.358-4.744-4.744-7.226-7.228-.028.379-.061.622-.063.863,0,3.036,0,6.07,0,9.106a3.607,3.607,0,0,1-.04.872,1.387,1.387,0,0,1-2.725-.028,4.513,4.513,0,0,1-.035-.959V7.656c0-3.165-1.637-4.8-4.793-4.8H37.759a4.162,4.162,0,0,1-.872-.033,1.318,1.318,0,0,1-1.149-1.345,1.326,1.326,0,0,1,1.188-1.4,3.993,3.993,0,0,1,.786-.026q8.93,0,17.859,0c4.5,0,7.464,2.954,7.466,7.445q.007,11.691-.009,23.38a1.752,1.752,0,0,0,.554,1.378c2.926,2.893,5.822,5.817,8.739,8.72A15.518,15.518,0,0,1,77.054,52.45q-.028,14.8,0,29.595c0,1.677-.388,2.072-2.044,2.072H45.413c-1.56,0-1.984-.416-1.986-1.956V74.309H42.4q-9.761,0-19.522,0c-4.5,0-7.466-2.957-7.471-7.443q-.007-5.561,0-11.12V54.693h-.994q-4.947,0-9.892,0A4.227,4.227,0,0,1,0,50.137Q-.009,37.877,0,25.62a4.223,4.223,0,0,1,4.6-4.559c5.427,0,10.854,0,16.414,0V7.5c0-1.382.461-1.848,1.825-1.85q3.109-.007,6.215,0c1.172,0,1.57.342,1.771,1.474a1.406,1.406,0,0,0,1.56,1.322q6.828.018,13.658,0a1.416,1.416,0,0,0,1.588-1.387,1.428,1.428,0,0,1,1.654-1.408c2.042-.012,4.086,0,6.129,0,1.616,0,2.026.4,2.026,2q0,18.607-.016,37.213a2.218,2.218,0,0,0,.72,1.75c3.017,2.968,6,5.969,8.985,8.971.281.283.655.632.681.973a1.886,1.886,0,0,1-.393,1.387,1.966,1.966,0,0,1-1.42.253c-.318-.042-.618-.407-.882-.671q-7.716-7.7-15.422-15.41a4.9,4.9,0,1,0-6.945,6.905Q48.3,54.607,53.885,60.167c.185.185.456.346.531.571.157.468.416,1.067.248,1.434a2.126,2.126,0,0,1-1.24.9,28.912,28.912,0,0,0-2.945.706,6.5,6.5,0,0,0-4.175,5.8c-.185,3.867-.047,7.75-.047,11.693ZM38.079,63.1H37.12q-7.179,0-14.358,0c-1.256,0-1.74-.494-1.747-1.752-.007-1.2-.012-2.393,0-3.591.012-1.008.589-1.654,1.432-1.63a1.448,1.448,0,0,1,1.364,1.612c.014.835,0,1.67,0,2.564h19.8c1.083,0,1.743.559,1.724,1.425-.019.835-.66,1.364-1.691,1.373-1.095.009-2.187,0-3.282,0A4.424,4.424,0,0,1,43.4,67.3c0,2.072-1.179,3.375-3.221,4.152H43.4c-.133-5.188,2.115-8.8,7.258-10.849a6.05,6.05,0,0,1-.912-.613q-4.47-4.445-8.919-8.912A7.711,7.711,0,1,1,51.752,40.2c.77.758,1.525,1.53,2.292,2.288.15.147.325.269.519.428V8.451c-1.324,0-2.578-.023-3.831.019a1,1,0,0,0-.716.428,4.357,4.357,0,0,1-4.091,2.358q-6.7-.014-13.4,0A4.348,4.348,0,0,1,28.438,8.9a.844.844,0,0,0-.543-.43c-1.333-.037-2.667-.019-4.028-.019V21H49.034c0-.968-.03-1.871.009-2.772a1.369,1.369,0,0,1,1.422-1.359,1.4,1.4,0,0,1,1.357,1.345c.019.2.009.409.009.613V35.9c0,.2.009.409-.009.613A1.4,1.4,0,0,1,50.39,37.87a1.385,1.385,0,0,1-1.35-1.347c-.035-.494-.012-.992-.012-1.488V29.527H2.866v5.548h37.1a5.189,5.189,0,0,1,.875.021,1.391,1.391,0,0,1,.026,2.755,4.714,4.714,0,0,1-.872.026H2.8v11.96c0,1.663.393,2.051,2.065,2.051H38.573a4.924,4.924,0,0,1,.872.021,1.391,1.391,0,0,1,.007,2.755,4.715,4.715,0,0,1-.872.023H18.209v.849q0,5.737,0,11.471A4.206,4.206,0,0,0,22.7,71.5q7.4.011,14.8,0c.2,0,.4-.03.786-.061-2.042-.746-3.186-2.021-3.237-4.023-.056-2.124,1.12-3.464,3.034-4.32ZM48.956,26.645V23.864H4.81a4.882,4.882,0,0,0-.786.021,1.327,1.327,0,0,0-1.2,1.209,13.151,13.151,0,0,0-.012,1.551ZM40.617,67.252a1.394,1.394,0,1,0-1.329,1.439,1.411,1.411,0,0,0,1.329-1.439Z" transform="translate(0.005 -0.033)" fill="#007192"/><path d="M68.653,12.435c0,1.839.007,3.677,0,5.516,0,1.032-.545,1.661-1.389,1.668s-1.4-.625-1.406-1.649c-.007-3.677-.03-7.357.007-11.034A6.966,6.966,0,0,1,72.788.019c2.51-.033,5.02-.014,7.53,0,1.02,0,1.649.568,1.635,1.418S81.31,2.805,80.274,2.81c-2.393.009-4.786,0-7.179,0a4.2,4.2,0,0,0-4.44,4.454c-.007,1.722,0,3.443,0,5.167Z" transform="translate(-50.439 -0.001)" fill="#007192"/><path d="M28.922,173.743c1.081,0,2.159-.014,3.24,0a1.413,1.413,0,0,1,1.581,1.563q.028,2.628,0,5.254a1.41,1.41,0,0,1-1.565,1.581q-3.326.025-6.652,0a1.407,1.407,0,0,1-1.579-1.565q-.028-2.628,0-5.254a1.408,1.408,0,0,1,1.563-1.579c1.137-.019,2.276,0,3.415,0Zm-2.161,5.548H30.88v-2.674H26.761Z" transform="translate(-18.334 -133.099)" fill="#007192"/></g></g></svg>