<svg xmlns="http://www.w3.org/2000/svg" width="81.593" height="88.648" viewBox="0 0 81.593 88.648"><g transform="translate(-0.005)"><g transform="translate(0.005)"><g transform="translate(0)"><path d="M43.2,187.291a8.2,8.2,0,0,1-3.371-2.013,15.678,15.678,0,0,0-7.727-3.532c-.056.252-.106.467-.153.682a2.791,2.791,0,0,1-2.7,2.265c-4.934.021-9.871.028-14.806,0a2.815,2.815,0,0,1-2.746-2.975c-.021-2.6-.007-5.2-.007-7.791V153.317c0-2.293,1.11-3.408,3.391-3.408H28.247c2.454,0,3.183.532,3.886,2.908.787-.717,1.5-1.455,2.3-2.084,1.9-1.49,3.868-2.889,5.753-4.4a13.324,13.324,0,0,0,5.071-8.673,24.072,24.072,0,0,0,.319-4.571c-.109-2.424,2.246-4.324,4.129-4.666a5.365,5.365,0,0,1,6.133,3.491,23.755,23.755,0,0,1,.081,16.679c-.095.264-.178.532-.308.921H72.384c3.278,0,5.538,1.575,6.216,4.4a5.731,5.731,0,0,1-3.359,6.681.579.579,0,0,0-.132.109c2.075,3.6.6,6.649-2.107,8.55a5.813,5.813,0,0,1,1.02,4.648,6.38,6.38,0,0,1-2.783,3.856,16.6,16.6,0,0,1,1.027,2.63,5.7,5.7,0,0,1-4.176,6.718c-.16.046-.312.12-.47.183H43.205Zm12.147-2.771c3.75,0,7.5.016,11.252-.007a2.978,2.978,0,0,0,.366-5.938c-.2-.03-.4-.044-.6-.09a1.328,1.328,0,0,1-1.094-1.441,1.3,1.3,0,0,1,1.312-1.252,5.9,5.9,0,0,1,1.12.083,3.476,3.476,0,0,0,3.676-2.915,3.014,3.014,0,0,0-2.871-3.165,2.189,2.189,0,0,1-.509-.086,1.293,1.293,0,0,1-.953-1.46,1.241,1.241,0,0,1,1.245-1.205,10.2,10.2,0,0,1,1.37.12,3.711,3.711,0,0,0,1.022.028,3.552,3.552,0,0,0,2.628-3.44,3.042,3.042,0,0,0-3.144-2.737,12.573,12.573,0,0,1-2.07-.053,1.683,1.683,0,0,1-1.1-.784,1.52,1.52,0,0,1,.155-1.337,2.023,2.023,0,0,1,1.346-.574c1.527-.072,3.058,0,4.587-.039a2.97,2.97,0,1,0-.227-5.936c-6.348-.009-12.7,0-19.044-.007-1.571,0-2.172-.935-1.485-2.32a21.675,21.675,0,0,0,2.246-8.2,20.845,20.845,0,0,0-1.4-9.073,2.529,2.529,0,0,0-2.887-1.529,2.146,2.146,0,0,0-1.911,2.258c-.056.893-.146,1.784-.183,2.677a16.257,16.257,0,0,1-6.14,12.293c-.766.636-1.767.992-2.519,1.642-2.417,2.1-4.777,4.261-7.13,6.431a1.487,1.487,0,0,0-.366.985c-.021,6.9-.009,13.792-.025,20.688,0,.571.176.78.747.9a19.477,19.477,0,0,1,9.649,4.749,3.159,3.159,0,0,0,1.95.7c3.662.067,7.329.032,10.993.03ZM14.5,181.889H29.175V152.75H14.5v29.139Z" transform="translate(-8.987 -98.643)" fill="#007192"/><path d="M111.153,29.819c.333-1.5.687-3.107,1.043-4.71.326-1.462.608-2.936,1-4.379a1.179,1.179,0,0,0-.477-1.388c-2.184-1.885-4.333-3.81-6.5-5.712-.546-.479-1.006-.976-.717-1.779.28-.784.921-.916,1.656-.981,2.959-.259,5.913-.574,8.872-.824.514-.044.669-.308.837-.7,1.159-2.7,2.339-5.39,3.493-8.09C120.647.585,120.987,0,121.818,0s1.175.576,1.464,1.254c1.154,2.7,2.348,5.386,3.486,8.094a1.012,1.012,0,0,0,1.013.706c3.017.257,6.029.562,9.043.844a1.408,1.408,0,0,1,1.346,1.029,1.445,1.445,0,0,1-.606,1.589c-2.23,1.964-4.449,3.94-6.7,5.881a1.146,1.146,0,0,0-.416,1.328c.648,2.718,1.233,5.45,1.839,8.178.037.169.065.34.111.507a1.413,1.413,0,0,1-.525,1.689,1.448,1.448,0,0,1-1.7-.076c-2.524-1.508-5.069-2.98-7.576-4.513a1.284,1.284,0,0,0-1.552,0c-2.535,1.543-5.094,3.049-7.66,4.541a1.405,1.405,0,0,1-2.239-1.233Zm-1.006-16.443c.4.363.648.592.9.817,1.45,1.279,2.885,2.575,4.358,3.824a1.892,1.892,0,0,1,.738,2.2c-.289.965-.46,1.962-.675,2.947-.275,1.252-.541,2.505-.856,3.958,2.172-1.284,4.164-2.434,6.126-3.634a1.87,1.87,0,0,1,2.17,0c1.6.981,3.22,1.915,4.833,2.869.375.222.752.442,1.3.763-.548-2.475-1.011-4.731-1.559-6.963a1.844,1.844,0,0,1,.678-2.054c1.469-1.256,2.908-2.547,4.356-3.826.289-.254.567-.521.967-.888-2.549-.25-4.9-.5-7.245-.7a1.7,1.7,0,0,1-1.55-1.161c-.75-1.779-1.529-3.544-2.3-5.314-.164-.379-.333-.756-.564-1.284-.227.486-.377.789-.511,1.1-.766,1.772-1.55,3.535-2.283,5.321a1.919,1.919,0,0,1-1.784,1.365c-2.3.176-4.59.428-7.109.673Z" transform="translate(-81.029)" fill="#007192"/><path d="M250.441,70.185c.5-2.269.916-4.3,1.423-6.315a1.337,1.337,0,0,0-.5-1.559c-1.478-1.245-2.906-2.549-4.365-3.819a1.429,1.429,0,0,1,.879-2.637c1.9-.155,3.789-.372,5.689-.516a1.392,1.392,0,0,0,1.393-.995c.669-1.717,1.457-3.387,2.175-5.085.3-.7.641-1.33,1.513-1.319.824.012,1.166.608,1.45,1.282.75,1.779,1.541,3.539,2.279,5.323a1.06,1.06,0,0,0,1.009.752c2.013.169,4.018.389,6.031.56a1.454,1.454,0,0,1,1.42.93,1.436,1.436,0,0,1-.557,1.679c-1.52,1.33-3.021,2.681-4.555,4a1.061,1.061,0,0,0-.384,1.2c.444,1.848.849,3.708,1.268,5.561.164.722.3,1.446-.407,1.976s-1.346.217-1.994-.174c-1.58-.953-3.188-1.862-4.752-2.838a1.316,1.316,0,0,0-1.624-.021c-1.68,1.064-3.391,2.084-5.14,3.026a1.921,1.921,0,0,1-1.513.035c-.375-.176-.555-.766-.733-1.041Zm8.187-17.359c-.571,1.316-1.129,2.457-1.564,3.641a2.1,2.1,0,0,1-2.138,1.52c-1.24.046-2.475.229-3.88.368,1.168,1.034,2.165,1.95,3.2,2.818a1.762,1.762,0,0,1,.622,1.927c-.16.673-.319,1.344-.467,2.02-.141.65-.266,1.3-.437,2.138,1.228-.726,2.3-1.286,3.294-1.971a2.183,2.183,0,0,1,2.771.023c.992.676,2.061,1.235,3.278,1.952-.319-1.453-.56-2.718-.881-3.963a1.935,1.935,0,0,1,.685-2.221c1.018-.828,1.978-1.728,3.107-2.725-1.42-.141-2.637-.324-3.861-.363a2.144,2.144,0,0,1-2.193-1.571c-.421-1.159-.967-2.274-1.538-3.59Z" transform="translate(-189.342 -36.849)" fill="#007192"/><path d="M4.119,70.214c.509-2.293.935-4.354,1.439-6.394a1.277,1.277,0,0,0-.486-1.481c-1.457-1.226-2.862-2.512-4.3-3.762-.53-.46-.939-.953-.694-1.714s.824-.946,1.545-1c1.925-.157,3.847-.372,5.772-.527A1.227,1.227,0,0,0,8.6,54.464c.717-1.791,1.518-3.549,2.274-5.325.278-.652.648-1.184,1.427-1.189s1.161.521,1.439,1.173c.768,1.8,1.566,3.593,2.311,5.4a1.117,1.117,0,0,0,1.073.791c1.983.162,3.963.382,5.945.546a1.457,1.457,0,0,1,1.467.985,1.484,1.484,0,0,1-.618,1.666c-1.478,1.289-2.933,2.607-4.425,3.88a1.176,1.176,0,0,0-.458,1.335c.451,1.846.849,3.706,1.27,5.561.167.731.257,1.453-.47,1.955-.685.474-1.3.178-1.927-.2-1.679-1.011-3.378-1.992-5.05-3.012a.916.916,0,0,0-1.1,0C9.988,69.115,8.216,70.2,6.393,71.19a1.932,1.932,0,0,1-1.513.058c-.379-.169-.571-.756-.759-1.032ZM19.906,58.353c-1.492-.141-2.774-.3-4.06-.375a1.934,1.934,0,0,1-1.9-1.337c-.481-1.235-1.048-2.438-1.642-3.8-.6,1.383-1.157,2.584-1.638,3.815A1.936,1.936,0,0,1,8.76,57.981c-1.282.074-2.561.234-4.035.375,1.122.992,2.08,1.892,3.1,2.723A1.947,1.947,0,0,1,8.51,63.3c-.322,1.247-.564,2.512-.884,3.972,1.265-.743,2.383-1.33,3.424-2.031a2.048,2.048,0,0,1,2.545.007c1.043.687,2.147,1.284,3.41,2.031-.338-1.506-.613-2.8-.921-4.076a1.858,1.858,0,0,1,.666-2.07c1.023-.84,1.994-1.744,3.158-2.774Z" transform="translate(-0.005 -36.857)" fill="#007192"/><path d="M58.075,248.811a1.348,1.348,0,0,1-1.346,1.464,1.382,1.382,0,0,1-1.409-1.425,1.4,1.4,0,0,1,1.37-1.471A1.35,1.35,0,0,1,58.075,248.811Z" transform="translate(-42.523 -190.151)" fill="#007192"/></g></g></g></svg>