<svg xmlns="http://www.w3.org/2000/svg" width="72.966" height="70.03" viewBox="0 0 72.966 70.03"><g transform="translate(0 0)"><g transform="translate(0 0)"><g transform="translate(0 0)"><path d="M0,33.036a1.739,1.739,0,0,1,1.824-1.056c4.8.025,9.594,0,14.389.025a.884.884,0,0,0,.975-.661c.59-1.42,1.268-2.8,1.913-4.2.086-.187.181-.369.32-.649H16.367c-1.639,0-3.276,0-4.915,0-1.083,0-1.755-.565-1.738-1.441.017-.845.685-1.4,1.715-1.4,3.135-.006,6.268.01,9.4-.019a1.288,1.288,0,0,0,.883-.4A28.614,28.614,0,0,1,37.3,13.345c.4-.1.6-.253.575-.708-.038-.853-.03-1.709,0-2.564a.6.6,0,0,0-.468-.662,4.827,4.827,0,0,1-3.16-5.358A4.879,4.879,0,0,1,39.209.009c3.253-.015,6.506-.01,9.759,0A4.86,4.86,0,0,1,50.688,9.5c-.065.025-.129.055-.215.089v3.4c2.1.8,4.218,1.4,6.15,2.368,9.192,4.6,14.6,12.044,16.054,22.22A27.959,27.959,0,0,1,68.468,56.7a1.475,1.475,0,0,1-1.589.826A1.222,1.222,0,0,1,65.767,56.4a2.606,2.606,0,0,1,.407-1.378,26.422,26.422,0,0,0,3.463-8.9A25.926,25.926,0,1,0,37.753,66.344a25.391,25.391,0,0,0,20.119-3.063c.143-.086.28-.181.424-.259a1.424,1.424,0,0,1,1.991.459,1.409,1.409,0,0,1-.52,1.974,27.771,27.771,0,0,1-8.713,3.754A28.713,28.713,0,0,1,17.524,52.077a.856.856,0,0,0-.954-.605c-2.945.019-5.89.011-8.832.008a5.3,5.3,0,0,1-.921-.053,1.394,1.394,0,0,1-.051-2.72,4.485,4.485,0,0,1,.919-.07c2.707-.006,5.414,0,8.121,0,.139,0,.276-.019.451-.032-.289-1.8-.573-3.563-.876-5.442h-.689c-1.782,0-3.562.006-5.343,0-1.016,0-1.671-.592-1.648-1.458a1.458,1.458,0,0,1,1.648-1.388c1.991-.008,3.984,0,5.987,0l.7-5.461h-.809c-4.393,0-8.787-.015-13.178.011A2.134,2.134,0,0,1,0,33.9v-.855ZM44.113,6.845c1.612,0,3.225.006,4.837-.006a3.3,3.3,0,0,0,.978-.118,1.958,1.958,0,0,0,1.329-2.107A2.023,2.023,0,0,0,49.1,2.861q-4.908-.023-9.817,0a2.021,2.021,0,0,0-2.24,2.035,1.994,1.994,0,0,0,2.237,1.949C40.888,6.853,42.5,6.845,44.113,6.845Zm-3.36,5.741h6.8V9.738h-6.8Z" transform="translate(0 0)" fill="#007192"/><path d="M0,256.461c.1-.124.2-.247.3-.369a1.425,1.425,0,0,1,2.121-.147,1.4,1.4,0,0,1-.063,2.071,1.423,1.423,0,0,1-2.1-.28c-.1-.133-.169-.28-.253-.421v-.855Z" transform="translate(0 -206.897)" fill="#007192"/><path d="M138.093,100.71a22.1,22.1,0,1,1-22.113,22.02A22.1,22.1,0,0,1,138.093,100.71Zm-.006,2.852a19.251,19.251,0,1,0,19.23,19.252,19.244,19.244,0,0,0-19.23-19.252Z" transform="translate(-93.902 -81.539)" fill="#007192"/><path d="M326.29,312.4a1.389,1.389,0,0,1,1.409-1.388,1.407,1.407,0,1,1-.036,2.813,1.4,1.4,0,0,1-1.372-1.428Z" transform="translate(-264.179 -251.808)" fill="#007192"/><path d="M195.51,167.94a4.92,4.92,0,0,1,.24-1.127.872.872,0,0,0-.265-1.157c-.87-.807-1.7-1.662-2.526-2.511a1.424,1.424,0,0,1-.124-2.141,1.462,1.462,0,0,1,2.147.143c.866.847,1.727,1.7,2.564,2.574a.763.763,0,0,0,.971.244,3.936,3.936,0,0,1,2.857-.006.777.777,0,0,0,.977-.227q3.129-3.167,6.291-6.3a4.014,4.014,0,0,1,.525-.478,1.409,1.409,0,0,1,1.936,2,5.584,5.584,0,0,1-.529.575c-2.063,2.067-4.121,4.138-6.2,6.188a.852.852,0,0,0-.238,1.037,4.405,4.405,0,0,1-6.006,5.393,4.395,4.395,0,0,1-2.615-4.2Zm4.475-1.363a1.551,1.551,0,0,0-1.6,1.544,1.568,1.568,0,0,0,3.135.067A1.552,1.552,0,0,0,199.985,166.577Z" transform="translate(-155.781 -126.869)" fill="#007192"/><path d="M227.415,131.4c0,.236.013.474,0,.708a1.412,1.412,0,0,1-2.815.1,8.814,8.814,0,0,1-.013-1.487,1.4,1.4,0,0,1,1.479-1.391,1.388,1.388,0,0,1,1.355,1.435c.01.211,0,.424,0,.638h0Z" transform="translate(-181.814 -104.708)" fill="#007192"/><path d="M299.822,209.421c.236,0,.472-.011.708,0a1.413,1.413,0,0,1,.089,2.823,8.323,8.323,0,0,1-1.555,0,1.414,1.414,0,0,1,.122-2.821c.211-.011.424,0,.638,0Z" transform="translate(-241.101 -169.553)" fill="#007192"/><path d="M224.514,284.474c0-.213-.01-.424,0-.638a1.417,1.417,0,0,1,2.832-.059,9.746,9.746,0,0,1,0,1.414,1.418,1.418,0,1,1-2.834-.082c-.01-.211,0-.424,0-.638Z" transform="translate(-181.774 -228.659)" fill="#007192"/><path d="M146.5,212.086a6.3,6.3,0,0,1-.879-.091,1.391,1.391,0,0,1-1.079-1.4,1.373,1.373,0,0,1,1.241-1.336,10.221,10.221,0,0,1,1.565-.013,1.347,1.347,0,0,1,1.338,1.3,1.373,1.373,0,0,1-1.222,1.49c-.28.044-.567.032-.961.051Z" transform="translate(-117.023 -169.391)" fill="#007192"/></g></g></g></svg>